%TF.GenerationSoftware,KiCad,Pcbnew,7.0.1*%
%TF.CreationDate,2023-11-26T17:03:09+00:00*%
%TF.ProjectId,ring-modulator,72696e67-2d6d-46f6-9475-6c61746f722e,rev?*%
%TF.SameCoordinates,Original*%
%TF.FileFunction,Copper,L2,Bot*%
%TF.FilePolarity,Positive*%
%FSLAX46Y46*%
G04 Gerber Fmt 4.6, Leading zero omitted, Abs format (unit mm)*
G04 Created by KiCad (PCBNEW 7.0.1) date 2023-11-26 17:03:09*
%MOMM*%
%LPD*%
G01*
G04 APERTURE LIST*
%TA.AperFunction,ComponentPad*%
%ADD10R,1.700000X1.700000*%
%TD*%
%TA.AperFunction,ComponentPad*%
%ADD11C,1.600000*%
%TD*%
%TA.AperFunction,ComponentPad*%
%ADD12O,1.600000X1.600000*%
%TD*%
%TA.AperFunction,ComponentPad*%
%ADD13R,1.800000X1.800000*%
%TD*%
%TA.AperFunction,ComponentPad*%
%ADD14C,1.800000*%
%TD*%
%TA.AperFunction,ComponentPad*%
%ADD15R,1.600000X1.600000*%
%TD*%
%TA.AperFunction,Conductor*%
%ADD16C,0.250000*%
%TD*%
G04 APERTURE END LIST*
D10*
%TO.P,J12,1,Pin_1*%
%TO.N,+9V*%
X135890000Y-137160000D03*
%TD*%
D11*
%TO.P,R5,1*%
%TO.N,Net-(J9-Pin_1)*%
X153670000Y-111760000D03*
D12*
%TO.P,R5,2*%
%TO.N,GND*%
X161290000Y-111760000D03*
%TD*%
D10*
%TO.P,J11,1,Pin_1*%
%TO.N,Net-(J11-Pin_1)*%
X139700000Y-137160000D03*
%TD*%
D11*
%TO.P,R6,1*%
%TO.N,+9V*%
X139700000Y-124460000D03*
D12*
%TO.P,R6,2*%
%TO.N,Net-(C6-Pad1)*%
X132080000Y-124460000D03*
%TD*%
D10*
%TO.P,J5,1,Pin_1*%
%TO.N,GND*%
X111760000Y-137160000D03*
%TD*%
%TO.P,J8,1,Pin_1*%
%TO.N,Net-(J8-Pin_1)*%
X147320000Y-100330000D03*
%TD*%
D13*
%TO.P,D3,1,K*%
%TO.N,GND*%
X146685000Y-125730000D03*
D14*
%TO.P,D3,2,A*%
%TO.N,Net-(D3-A)*%
X146685000Y-123190000D03*
%TD*%
D11*
%TO.P,C8,1*%
%TO.N,Net-(U2--)*%
X142240000Y-111760000D03*
%TO.P,C8,2*%
%TO.N,Net-(D3-A)*%
X144740000Y-111760000D03*
%TD*%
%TO.P,R7,1*%
%TO.N,Net-(U2-+)*%
X139700000Y-116840000D03*
D12*
%TO.P,R7,2*%
%TO.N,Net-(C6-Pad1)*%
X132080000Y-116840000D03*
%TD*%
D11*
%TO.P,R3,1*%
%TO.N,Net-(U1-LFIL)*%
X106680000Y-121920000D03*
D12*
%TO.P,R3,2*%
%TO.N,Net-(C4-Pad1)*%
X106680000Y-129540000D03*
%TD*%
D11*
%TO.P,R9,1*%
%TO.N,Net-(U2--)*%
X153670000Y-106680000D03*
D12*
%TO.P,R9,2*%
%TO.N,Net-(C7-Pad2)*%
X161290000Y-106680000D03*
%TD*%
D11*
%TO.P,C4,1*%
%TO.N,Net-(C4-Pad1)*%
X127000000Y-121920000D03*
%TO.P,C4,2*%
%TO.N,Net-(U2-+)*%
X127000000Y-119420000D03*
%TD*%
D10*
%TO.P,J6,1,Pin_1*%
%TO.N,Net-(D1-K)*%
X162560000Y-137160000D03*
%TD*%
D11*
%TO.P,R8,1*%
%TO.N,Net-(C6-Pad1)*%
X132080000Y-120650000D03*
D12*
%TO.P,R8,2*%
%TO.N,GND*%
X139700000Y-120650000D03*
%TD*%
D15*
%TO.P,D2,1,K*%
%TO.N,GND*%
X156210000Y-128270000D03*
D12*
%TO.P,D2,2,A*%
%TO.N,Net-(D1-K)*%
X163830000Y-128270000D03*
%TD*%
D10*
%TO.P,J2,1,Pin_1*%
%TO.N,Net-(J2-Pin_1)*%
X113030000Y-100330000D03*
%TD*%
D11*
%TO.P,C2,1*%
%TO.N,Net-(J2-Pin_1)*%
X119380000Y-100330000D03*
%TO.P,C2,2*%
%TO.N,GND*%
X121880000Y-100330000D03*
%TD*%
D15*
%TO.P,C6,1*%
%TO.N,Net-(C6-Pad1)*%
X127000000Y-129540000D03*
D11*
%TO.P,C6,2*%
%TO.N,GND*%
X124500000Y-129540000D03*
%TD*%
D15*
%TO.P,U1,1,OFIL*%
%TO.N,unconnected-(U1-OFIL-Pad1)*%
X109220000Y-116840000D03*
D12*
%TO.P,U1,2,LFIL*%
%TO.N,Net-(U1-LFIL)*%
X111760000Y-116840000D03*
%TO.P,U1,3,IN*%
%TO.N,Net-(U1-IN)*%
X114300000Y-116840000D03*
%TO.P,U1,4,V+*%
%TO.N,Net-(U1-V+)*%
X116840000Y-116840000D03*
%TO.P,U1,5,RT*%
%TO.N,Net-(U1-RT)*%
X116840000Y-109220000D03*
%TO.P,U1,6,CT*%
%TO.N,Net-(J2-Pin_1)*%
X114300000Y-109220000D03*
%TO.P,U1,7,GND*%
%TO.N,GND*%
X111760000Y-109220000D03*
%TO.P,U1,8,Q*%
%TO.N,unconnected-(U1-Q-Pad8)*%
X109220000Y-109220000D03*
%TD*%
D10*
%TO.P,J7,1,Pin_1*%
%TO.N,GND*%
X158750000Y-137160000D03*
%TD*%
%TO.P,J1,1,Pin_1*%
%TO.N,+9V*%
X127000000Y-100330000D03*
%TD*%
D15*
%TO.P,D1,1,K*%
%TO.N,Net-(D1-K)*%
X163830000Y-123190000D03*
D12*
%TO.P,D1,2,A*%
%TO.N,GND*%
X156210000Y-123190000D03*
%TD*%
D10*
%TO.P,J10,1,Pin_1*%
%TO.N,GND*%
X143510000Y-137160000D03*
%TD*%
D11*
%TO.P,C3,1*%
%TO.N,Net-(J4-Pin_1)*%
X111760000Y-127000000D03*
%TO.P,C3,2*%
%TO.N,Net-(U1-IN)*%
X111760000Y-122000000D03*
%TD*%
%TO.P,R1,1*%
%TO.N,Net-(U1-V+)*%
X121920000Y-116840000D03*
D12*
%TO.P,R1,2*%
%TO.N,+9V*%
X121920000Y-109220000D03*
%TD*%
D10*
%TO.P,J4,1,Pin_1*%
%TO.N,Net-(J4-Pin_1)*%
X107950000Y-137160000D03*
%TD*%
D15*
%TO.P,C1,1*%
%TO.N,Net-(U1-V+)*%
X120650000Y-123190000D03*
D11*
%TO.P,C1,2*%
%TO.N,GND*%
X117150000Y-123190000D03*
%TD*%
%TO.P,C5,1*%
%TO.N,Net-(J9-Pin_1)*%
X149900000Y-116840000D03*
%TO.P,C5,2*%
%TO.N,Net-(D1-K)*%
X154900000Y-116840000D03*
%TD*%
%TO.P,C9,1*%
%TO.N,Net-(D3-A)*%
X141010000Y-100330000D03*
%TO.P,C9,2*%
%TO.N,Net-(J8-Pin_1)*%
X143510000Y-100330000D03*
%TD*%
%TO.P,C7,1*%
%TO.N,GND*%
X158790000Y-116840000D03*
%TO.P,C7,2*%
%TO.N,Net-(C7-Pad2)*%
X161290000Y-116840000D03*
%TD*%
D15*
%TO.P,U2,1,NULL*%
%TO.N,unconnected-(U2-NULL-Pad1)*%
X127010000Y-113020000D03*
D12*
%TO.P,U2,2,-*%
%TO.N,Net-(U2--)*%
X129550000Y-113020000D03*
%TO.P,U2,3,+*%
%TO.N,Net-(U2-+)*%
X132090000Y-113020000D03*
%TO.P,U2,4,V-*%
%TO.N,GND*%
X134630000Y-113020000D03*
%TO.P,U2,5,NULL*%
%TO.N,unconnected-(U2-NULL-Pad5)*%
X134630000Y-105400000D03*
%TO.P,U2,6*%
%TO.N,Net-(J9-Pin_1)*%
X132090000Y-105400000D03*
%TO.P,U2,7,V+*%
%TO.N,+9V*%
X129550000Y-105400000D03*
%TO.P,U2,8,NC*%
%TO.N,unconnected-(U2-NC-Pad8)*%
X127010000Y-105400000D03*
%TD*%
D10*
%TO.P,J13,1,Pin_1*%
%TO.N,GND*%
X130810000Y-100330000D03*
%TD*%
D11*
%TO.P,R2,1*%
%TO.N,Net-(U1-RT)*%
X116840000Y-105410000D03*
D12*
%TO.P,R2,2*%
%TO.N,Net-(J3-Pin_1)*%
X109220000Y-105410000D03*
%TD*%
D10*
%TO.P,J9,1,Pin_1*%
%TO.N,Net-(J9-Pin_1)*%
X151130000Y-100330000D03*
%TD*%
D11*
%TO.P,R4,1*%
%TO.N,Net-(C4-Pad1)*%
X110490000Y-130810000D03*
D12*
%TO.P,R4,2*%
%TO.N,GND*%
X118110000Y-130810000D03*
%TD*%
D10*
%TO.P,J3,1,Pin_1*%
%TO.N,Net-(J3-Pin_1)*%
X109220000Y-100330000D03*
%TD*%
D11*
%TO.P,R11,1*%
%TO.N,Net-(D3-A)*%
X143510000Y-106680000D03*
D12*
%TO.P,R11,2*%
%TO.N,Net-(J11-Pin_1)*%
X151130000Y-106680000D03*
%TD*%
D11*
%TO.P,R10,1*%
%TO.N,Net-(C7-Pad2)*%
X162560000Y-100330000D03*
D12*
%TO.P,R10,2*%
%TO.N,Net-(J9-Pin_1)*%
X154940000Y-100330000D03*
%TD*%
D16*
%TO.N,Net-(J11-Pin_1)*%
X147320000Y-113665000D02*
X151130000Y-109855000D01*
X147320000Y-118110000D02*
X147320000Y-113665000D01*
X149860000Y-127000000D02*
X149860000Y-120650000D01*
X149860000Y-120650000D02*
X147320000Y-118110000D01*
X139700000Y-137160000D02*
X149860000Y-127000000D01*
X151130000Y-109855000D02*
X151130000Y-106680000D01*
%TO.N,Net-(D3-A)*%
X144740000Y-118070000D02*
X144740000Y-111760000D01*
X146685000Y-120015000D02*
X144740000Y-118070000D01*
X146685000Y-123190000D02*
X146685000Y-120015000D01*
%TO.N,+9V*%
X125730000Y-120650000D02*
X124460000Y-119380000D01*
X124460000Y-109220000D02*
X121920000Y-109220000D01*
X125730000Y-109220000D02*
X124460000Y-109220000D01*
X128905000Y-120650000D02*
X125730000Y-120650000D01*
X130175000Y-116840000D02*
X130175000Y-119380000D01*
X131445000Y-115570000D02*
X130175000Y-116840000D01*
X132715000Y-115570000D02*
X131445000Y-115570000D01*
X135255000Y-118110000D02*
X132715000Y-115570000D01*
X130175000Y-119380000D02*
X128905000Y-120650000D01*
X135255000Y-120015000D02*
X135255000Y-118110000D01*
X139700000Y-124460000D02*
X135255000Y-120015000D01*
X124460000Y-119380000D02*
X124460000Y-109220000D01*
%TO.N,Net-(U2-+)*%
X137795000Y-114935000D02*
X139700000Y-116840000D01*
X132715000Y-114935000D02*
X137795000Y-114935000D01*
X132080000Y-114300000D02*
X132715000Y-114935000D01*
X131445000Y-114300000D02*
X132080000Y-114300000D01*
X127000000Y-118745000D02*
X131445000Y-114300000D01*
X127000000Y-119420000D02*
X127000000Y-118745000D01*
X132090000Y-114290000D02*
X132090000Y-113020000D01*
X132080000Y-114300000D02*
X132090000Y-114290000D01*
%TO.N,Net-(U1-V+)*%
X116840000Y-116840000D02*
X121920000Y-116840000D01*
X121920000Y-116840000D02*
X121920000Y-121920000D01*
X121920000Y-121920000D02*
X120650000Y-123190000D01*
%TO.N,GND*%
X124500000Y-129540000D02*
X119380000Y-129540000D01*
X158790000Y-114260000D02*
X161290000Y-111760000D01*
X158790000Y-116840000D02*
X158790000Y-114260000D01*
X119380000Y-129540000D02*
X118110000Y-130810000D01*
%TO.N,Net-(J2-Pin_1)*%
X114300000Y-105410000D02*
X114300000Y-109220000D01*
X113030000Y-104140000D02*
X114300000Y-105410000D01*
X113030000Y-100330000D02*
X119380000Y-100330000D01*
X113030000Y-100330000D02*
X113030000Y-104140000D01*
%TO.N,Net-(J4-Pin_1)*%
X111760000Y-127000000D02*
X111760000Y-133350000D01*
X111760000Y-133350000D02*
X107950000Y-137160000D01*
%TO.N,Net-(U1-IN)*%
X114300000Y-119460000D02*
X111760000Y-122000000D01*
X114300000Y-116840000D02*
X114300000Y-119460000D01*
%TO.N,Net-(C4-Pad1)*%
X123190000Y-125730000D02*
X127000000Y-121920000D01*
X106680000Y-129540000D02*
X109220000Y-129540000D01*
X110490000Y-126679009D02*
X111439009Y-125730000D01*
X110490000Y-130810000D02*
X110490000Y-126679009D01*
X111439009Y-125730000D02*
X123190000Y-125730000D01*
X109220000Y-129540000D02*
X110490000Y-130810000D01*
%TO.N,Net-(J9-Pin_1)*%
X153670000Y-111760000D02*
X153670000Y-113070000D01*
X151130000Y-100330000D02*
X154940000Y-100330000D01*
X154940000Y-110490000D02*
X153670000Y-111760000D01*
X154940000Y-100330000D02*
X154940000Y-110490000D01*
X138335000Y-99155000D02*
X149955000Y-99155000D01*
X153670000Y-113070000D02*
X149900000Y-116840000D01*
X132090000Y-105400000D02*
X138335000Y-99155000D01*
X149955000Y-99155000D02*
X151130000Y-100330000D01*
%TO.N,Net-(D1-K)*%
X163830000Y-135890000D02*
X162560000Y-137160000D01*
X154900000Y-116840000D02*
X161250000Y-123190000D01*
X161250000Y-123190000D02*
X163830000Y-123190000D01*
X163830000Y-123190000D02*
X163830000Y-128270000D01*
X163830000Y-128270000D02*
X163830000Y-135890000D01*
%TO.N,Net-(C6-Pad1)*%
X132080000Y-124460000D02*
X132080000Y-120650000D01*
X132080000Y-120650000D02*
X132080000Y-116840000D01*
X127000000Y-129540000D02*
X132080000Y-124460000D01*
%TO.N,Net-(C7-Pad2)*%
X162560000Y-100330000D02*
X162560000Y-105410000D01*
X162560000Y-105410000D02*
X161290000Y-106680000D01*
X162415000Y-115715000D02*
X161290000Y-116840000D01*
X161290000Y-106680000D02*
X162415000Y-107805000D01*
X162415000Y-107805000D02*
X162415000Y-115715000D01*
%TO.N,Net-(U2--)*%
X129550000Y-113020000D02*
X130810000Y-111760000D01*
X130810000Y-111760000D02*
X142240000Y-111760000D01*
%TO.N,Net-(D3-A)*%
X143510000Y-106680000D02*
X143510000Y-102830000D01*
X143510000Y-102830000D02*
X141010000Y-100330000D01*
X144740000Y-107910000D02*
X143510000Y-106680000D01*
X144740000Y-111760000D02*
X144740000Y-107910000D01*
%TO.N,+9V*%
X129550000Y-105400000D02*
X125730000Y-109220000D01*
X127000000Y-102850000D02*
X129550000Y-105400000D01*
X139700000Y-127000000D02*
X135890000Y-130810000D01*
X127000000Y-100330000D02*
X127000000Y-102850000D01*
X135890000Y-130810000D02*
X135890000Y-137160000D01*
X139700000Y-124460000D02*
X139700000Y-127000000D01*
%TO.N,Net-(J3-Pin_1)*%
X109220000Y-100330000D02*
X109220000Y-105410000D01*
%TO.N,Net-(U1-RT)*%
X116840000Y-109220000D02*
X116840000Y-105410000D01*
%TO.N,Net-(U1-LFIL)*%
X111760000Y-116840000D02*
X106680000Y-121920000D01*
%TD*%
%TA.AperFunction,Conductor*%
%TO.N,GND*%
G36*
X166307500Y-95267113D02*
G01*
X166352887Y-95312500D01*
X166369500Y-95374500D01*
X166369500Y-142115500D01*
X166352887Y-142177500D01*
X166307500Y-142222887D01*
X166245500Y-142239500D01*
X102994500Y-142239500D01*
X102932500Y-142222887D01*
X102887113Y-142177500D01*
X102870500Y-142115500D01*
X102870500Y-129540000D01*
X105374531Y-129540000D01*
X105394364Y-129766689D01*
X105453261Y-129986497D01*
X105549432Y-130192735D01*
X105679953Y-130379140D01*
X105840859Y-130540046D01*
X106027264Y-130670567D01*
X106027265Y-130670567D01*
X106027266Y-130670568D01*
X106233504Y-130766739D01*
X106453308Y-130825635D01*
X106680000Y-130845468D01*
X106906692Y-130825635D01*
X107126496Y-130766739D01*
X107332734Y-130670568D01*
X107519139Y-130540047D01*
X107680047Y-130379139D01*
X107759637Y-130265472D01*
X107792613Y-130218377D01*
X107836931Y-130179511D01*
X107894188Y-130165500D01*
X108909548Y-130165500D01*
X108957001Y-130174939D01*
X108997229Y-130201819D01*
X109190586Y-130395177D01*
X109222680Y-130450764D01*
X109222680Y-130514950D01*
X109204364Y-130583307D01*
X109184531Y-130810000D01*
X109204364Y-131036689D01*
X109263261Y-131256497D01*
X109359432Y-131462735D01*
X109489953Y-131649140D01*
X109650859Y-131810046D01*
X109837264Y-131940567D01*
X109837265Y-131940567D01*
X109837266Y-131940568D01*
X110043504Y-132036739D01*
X110263308Y-132095635D01*
X110490000Y-132115468D01*
X110716692Y-132095635D01*
X110936496Y-132036739D01*
X110958095Y-132026666D01*
X111018610Y-132015314D01*
X111077125Y-132034468D01*
X111119214Y-132079406D01*
X111134500Y-132139049D01*
X111134500Y-133039548D01*
X111125061Y-133087001D01*
X111098181Y-133127229D01*
X108452226Y-135773181D01*
X108411998Y-135800061D01*
X108364545Y-135809500D01*
X107052130Y-135809500D01*
X106992515Y-135815909D01*
X106857669Y-135866204D01*
X106742454Y-135952454D01*
X106656204Y-136067668D01*
X106605909Y-136202515D01*
X106605909Y-136202517D01*
X106601554Y-136243029D01*
X106599500Y-136262130D01*
X106599500Y-138057869D01*
X106605897Y-138117375D01*
X106605909Y-138117483D01*
X106656204Y-138252331D01*
X106742454Y-138367546D01*
X106857669Y-138453796D01*
X106992517Y-138504091D01*
X107052127Y-138510500D01*
X108847872Y-138510499D01*
X108907483Y-138504091D01*
X109042331Y-138453796D01*
X109157546Y-138367546D01*
X109243796Y-138252331D01*
X109294091Y-138117483D01*
X109300500Y-138057873D01*
X109300499Y-137410000D01*
X110410000Y-137410000D01*
X110410000Y-138057824D01*
X110416402Y-138117375D01*
X110466647Y-138252089D01*
X110552811Y-138367188D01*
X110667910Y-138453352D01*
X110802624Y-138503597D01*
X110862176Y-138510000D01*
X111510000Y-138510000D01*
X111510000Y-137410000D01*
X112010000Y-137410000D01*
X112010000Y-138510000D01*
X112657824Y-138510000D01*
X112717375Y-138503597D01*
X112852089Y-138453352D01*
X112967188Y-138367188D01*
X113053352Y-138252089D01*
X113103597Y-138117375D01*
X113110000Y-138057824D01*
X113110000Y-137410000D01*
X112010000Y-137410000D01*
X111510000Y-137410000D01*
X110410000Y-137410000D01*
X109300499Y-137410000D01*
X109300499Y-136910000D01*
X110410000Y-136910000D01*
X111510000Y-136910000D01*
X111510000Y-135810000D01*
X112010000Y-135810000D01*
X112010000Y-136910000D01*
X113110000Y-136910000D01*
X113110000Y-136262176D01*
X113103597Y-136202624D01*
X113053352Y-136067910D01*
X112967188Y-135952811D01*
X112852089Y-135866647D01*
X112717375Y-135816402D01*
X112657824Y-135810000D01*
X112010000Y-135810000D01*
X111510000Y-135810000D01*
X110862176Y-135810000D01*
X110802624Y-135816402D01*
X110667910Y-135866647D01*
X110552811Y-135952811D01*
X110466647Y-136067910D01*
X110416402Y-136202624D01*
X110410000Y-136262176D01*
X110410000Y-136910000D01*
X109300499Y-136910000D01*
X109300499Y-136745450D01*
X109309938Y-136697998D01*
X109336815Y-136657773D01*
X111374589Y-134619999D01*
X119224728Y-134619999D01*
X119244167Y-134854587D01*
X119244167Y-134854590D01*
X119244168Y-134854592D01*
X119301954Y-135082785D01*
X119396512Y-135298354D01*
X119525261Y-135495420D01*
X119598095Y-135574539D01*
X119684689Y-135668606D01*
X119786053Y-135747500D01*
X119870451Y-135813189D01*
X120077475Y-135925225D01*
X120188795Y-135963441D01*
X120300113Y-136001657D01*
X120300115Y-136001657D01*
X120300117Y-136001658D01*
X120532302Y-136040403D01*
X120767697Y-136040403D01*
X120767698Y-136040403D01*
X120999883Y-136001658D01*
X121222525Y-135925225D01*
X121429549Y-135813189D01*
X121615310Y-135668606D01*
X121774739Y-135495420D01*
X121903488Y-135298354D01*
X121998046Y-135082785D01*
X122055832Y-134854592D01*
X122075271Y-134620000D01*
X122055832Y-134385408D01*
X121998046Y-134157215D01*
X121903488Y-133941646D01*
X121774739Y-133744580D01*
X121660383Y-133620356D01*
X121615310Y-133571393D01*
X121429550Y-133426812D01*
X121429549Y-133426811D01*
X121222525Y-133314775D01*
X121222521Y-133314773D01*
X121222520Y-133314773D01*
X120999886Y-133238342D01*
X120802743Y-133205445D01*
X120767698Y-133199597D01*
X120532302Y-133199597D01*
X120497257Y-133205445D01*
X120300113Y-133238342D01*
X120077479Y-133314773D01*
X119870449Y-133426812D01*
X119684689Y-133571393D01*
X119525260Y-133744581D01*
X119396513Y-133941643D01*
X119301954Y-134157215D01*
X119244167Y-134385412D01*
X119224728Y-134619999D01*
X111374589Y-134619999D01*
X112143786Y-133850802D01*
X112159887Y-133837904D01*
X112161874Y-133835787D01*
X112161877Y-133835786D01*
X112207932Y-133786741D01*
X112210613Y-133783976D01*
X112230120Y-133764470D01*
X112232581Y-133761295D01*
X112240152Y-133752431D01*
X112270062Y-133720582D01*
X112279713Y-133703026D01*
X112290393Y-133686767D01*
X112302674Y-133670936D01*
X112320018Y-133630851D01*
X112325160Y-133620356D01*
X112346197Y-133582092D01*
X112351178Y-133562688D01*
X112357480Y-133544283D01*
X112365438Y-133525895D01*
X112372270Y-133482748D01*
X112374639Y-133471316D01*
X112385500Y-133429020D01*
X112385500Y-133408984D01*
X112387027Y-133389585D01*
X112390160Y-133369804D01*
X112386050Y-133326325D01*
X112385500Y-133314656D01*
X112385500Y-131060000D01*
X116831128Y-131060000D01*
X116883733Y-131256326D01*
X116979865Y-131462480D01*
X117110341Y-131648819D01*
X117271180Y-131809658D01*
X117457519Y-131940134D01*
X117663673Y-132036266D01*
X117859999Y-132088871D01*
X117860000Y-132088872D01*
X117860000Y-131060000D01*
X118360000Y-131060000D01*
X118360000Y-132088871D01*
X118556326Y-132036266D01*
X118762480Y-131940134D01*
X118948819Y-131809658D01*
X119109658Y-131648819D01*
X119240134Y-131462480D01*
X119336266Y-131256326D01*
X119388872Y-131060000D01*
X118360000Y-131060000D01*
X117860000Y-131060000D01*
X116831128Y-131060000D01*
X112385500Y-131060000D01*
X112385500Y-130619026D01*
X123774526Y-130619026D01*
X123847515Y-130670133D01*
X124053673Y-130766266D01*
X124273397Y-130825141D01*
X124500000Y-130844966D01*
X124726602Y-130825141D01*
X124946326Y-130766266D01*
X125152480Y-130670134D01*
X125225472Y-130619025D01*
X124500001Y-129893553D01*
X124500000Y-129893553D01*
X123774526Y-130619025D01*
X123774526Y-130619026D01*
X112385500Y-130619026D01*
X112385500Y-130560000D01*
X116831128Y-130560000D01*
X117860000Y-130560000D01*
X117860000Y-129531128D01*
X118360000Y-129531128D01*
X118360000Y-130560000D01*
X119388872Y-130560000D01*
X119388871Y-130559999D01*
X119336266Y-130363673D01*
X119240134Y-130157519D01*
X119109658Y-129971180D01*
X118948819Y-129810341D01*
X118762480Y-129679865D01*
X118556326Y-129583733D01*
X118393107Y-129539999D01*
X123195033Y-129539999D01*
X123214858Y-129766602D01*
X123273733Y-129986326D01*
X123369866Y-130192484D01*
X123420972Y-130265471D01*
X123420974Y-130265472D01*
X124146446Y-129540001D01*
X124146446Y-129540000D01*
X123420973Y-128814526D01*
X123420973Y-128814527D01*
X123369865Y-128887516D01*
X123273733Y-129093672D01*
X123214858Y-129313397D01*
X123195033Y-129539999D01*
X118393107Y-129539999D01*
X118360000Y-129531128D01*
X117860000Y-129531128D01*
X117859999Y-129531128D01*
X117663673Y-129583733D01*
X117457519Y-129679865D01*
X117271180Y-129810341D01*
X117110341Y-129971180D01*
X116979865Y-130157519D01*
X116883733Y-130363673D01*
X116831128Y-130559999D01*
X116831128Y-130560000D01*
X112385500Y-130560000D01*
X112385500Y-128460973D01*
X123774526Y-128460973D01*
X124499998Y-129186446D01*
X124499999Y-129186446D01*
X125225472Y-128460973D01*
X125225471Y-128460972D01*
X125152484Y-128409866D01*
X124946326Y-128313733D01*
X124726602Y-128254858D01*
X124500000Y-128235033D01*
X124273397Y-128254858D01*
X124053672Y-128313733D01*
X123847516Y-128409865D01*
X123774526Y-128460973D01*
X112385500Y-128460973D01*
X112385500Y-128214188D01*
X112399511Y-128156931D01*
X112438377Y-128112613D01*
X112599140Y-128000046D01*
X112760046Y-127839140D01*
X112770994Y-127823504D01*
X112890568Y-127652734D01*
X112986739Y-127446496D01*
X113045635Y-127226692D01*
X113065468Y-127000000D01*
X113063403Y-126976402D01*
X113045635Y-126773310D01*
X113045635Y-126773308D01*
X112986739Y-126553504D01*
X112976666Y-126531904D01*
X112965314Y-126471390D01*
X112984468Y-126412875D01*
X113029406Y-126370786D01*
X113089049Y-126355500D01*
X123107256Y-126355500D01*
X123127762Y-126357764D01*
X123130665Y-126357672D01*
X123130667Y-126357673D01*
X123197872Y-126355561D01*
X123201768Y-126355500D01*
X123229349Y-126355500D01*
X123229350Y-126355500D01*
X123233319Y-126354998D01*
X123244965Y-126354080D01*
X123288627Y-126352709D01*
X123307859Y-126347120D01*
X123326918Y-126343174D01*
X123333196Y-126342381D01*
X123346792Y-126340664D01*
X123387407Y-126324582D01*
X123398444Y-126320803D01*
X123440390Y-126308618D01*
X123457629Y-126298422D01*
X123475102Y-126289862D01*
X123493732Y-126282486D01*
X123529064Y-126256814D01*
X123538830Y-126250400D01*
X123576418Y-126228171D01*
X123576417Y-126228171D01*
X123576420Y-126228170D01*
X123590585Y-126214004D01*
X123605373Y-126201373D01*
X123621587Y-126189594D01*
X123649438Y-126155926D01*
X123657279Y-126147309D01*
X126585178Y-123219410D01*
X126640764Y-123187318D01*
X126704947Y-123187318D01*
X126773308Y-123205635D01*
X127000000Y-123225468D01*
X127226692Y-123205635D01*
X127446496Y-123146739D01*
X127652734Y-123050568D01*
X127839139Y-122920047D01*
X128000047Y-122759139D01*
X128130568Y-122572734D01*
X128226739Y-122366496D01*
X128285635Y-122146692D01*
X128305468Y-121920000D01*
X128285635Y-121693308D01*
X128226739Y-121473504D01*
X128216666Y-121451904D01*
X128205314Y-121391390D01*
X128224468Y-121332875D01*
X128269406Y-121290786D01*
X128329049Y-121275500D01*
X128822256Y-121275500D01*
X128842762Y-121277764D01*
X128845665Y-121277672D01*
X128845667Y-121277673D01*
X128912872Y-121275561D01*
X128916768Y-121275500D01*
X128944349Y-121275500D01*
X128944350Y-121275500D01*
X128948319Y-121274998D01*
X128959965Y-121274080D01*
X129003627Y-121272709D01*
X129022859Y-121267120D01*
X129041918Y-121263174D01*
X129049099Y-121262267D01*
X129061792Y-121260664D01*
X129102407Y-121244582D01*
X129113444Y-121240803D01*
X129155390Y-121228618D01*
X129172629Y-121218422D01*
X129190102Y-121209862D01*
X129208732Y-121202486D01*
X129244064Y-121176814D01*
X129253830Y-121170400D01*
X129291418Y-121148171D01*
X129291417Y-121148171D01*
X129291420Y-121148170D01*
X129305585Y-121134004D01*
X129320373Y-121121373D01*
X129336587Y-121109594D01*
X129364438Y-121075926D01*
X129372279Y-121067309D01*
X130558788Y-119880801D01*
X130574885Y-119867906D01*
X130576873Y-119865787D01*
X130576877Y-119865786D01*
X130622948Y-119816723D01*
X130625566Y-119814023D01*
X130645120Y-119794471D01*
X130647581Y-119791298D01*
X130655156Y-119782427D01*
X130685062Y-119750582D01*
X130694717Y-119733018D01*
X130705394Y-119716764D01*
X130717673Y-119700936D01*
X130735018Y-119660852D01*
X130740160Y-119650356D01*
X130761197Y-119612092D01*
X130766179Y-119592684D01*
X130772481Y-119574280D01*
X130780437Y-119555896D01*
X130787269Y-119512752D01*
X130789633Y-119501338D01*
X130800500Y-119459019D01*
X130800500Y-119438984D01*
X130802027Y-119419585D01*
X130802068Y-119419321D01*
X130805160Y-119399804D01*
X130801050Y-119356325D01*
X130800500Y-119344656D01*
X130800500Y-117673316D01*
X130816047Y-117613199D01*
X130858790Y-117568158D01*
X130918011Y-117549486D01*
X130978859Y-117561866D01*
X131026075Y-117602193D01*
X131079953Y-117679140D01*
X131240859Y-117840046D01*
X131401623Y-117952613D01*
X131440489Y-117996931D01*
X131454500Y-118054188D01*
X131454500Y-119435812D01*
X131440489Y-119493069D01*
X131401623Y-119537387D01*
X131240859Y-119649953D01*
X131079953Y-119810859D01*
X130949432Y-119997264D01*
X130853261Y-120203502D01*
X130794364Y-120423310D01*
X130774531Y-120649999D01*
X130794364Y-120876689D01*
X130853261Y-121096497D01*
X130949432Y-121302735D01*
X131079953Y-121489140D01*
X131240859Y-121650046D01*
X131401623Y-121762613D01*
X131440489Y-121806931D01*
X131454500Y-121864188D01*
X131454500Y-123245812D01*
X131440489Y-123303069D01*
X131401623Y-123347387D01*
X131240859Y-123459953D01*
X131079953Y-123620859D01*
X130949432Y-123807264D01*
X130853261Y-124013502D01*
X130794364Y-124233310D01*
X130774531Y-124459999D01*
X130794364Y-124686690D01*
X130812680Y-124755047D01*
X130812680Y-124819234D01*
X130780586Y-124874821D01*
X127452226Y-128203181D01*
X127411998Y-128230061D01*
X127364545Y-128239500D01*
X126152130Y-128239500D01*
X126092515Y-128245909D01*
X125957669Y-128296204D01*
X125842454Y-128382454D01*
X125756204Y-128497668D01*
X125705909Y-128632516D01*
X125698790Y-128698735D01*
X125697004Y-128698543D01*
X125681039Y-128754841D01*
X125631152Y-128800554D01*
X125583968Y-128809583D01*
X124853553Y-129540000D01*
X124853553Y-129540001D01*
X125583966Y-130270413D01*
X125631142Y-130279439D01*
X125681028Y-130325140D01*
X125697011Y-130381456D01*
X125698791Y-130381265D01*
X125705909Y-130447484D01*
X125709449Y-130456974D01*
X125756204Y-130582331D01*
X125842454Y-130697546D01*
X125957669Y-130783796D01*
X126092517Y-130834091D01*
X126152127Y-130840500D01*
X127847872Y-130840499D01*
X127907483Y-130834091D01*
X128042331Y-130783796D01*
X128157546Y-130697546D01*
X128243796Y-130582331D01*
X128294091Y-130447483D01*
X128300500Y-130387873D01*
X128300499Y-129175450D01*
X128309938Y-129127998D01*
X128336815Y-129087773D01*
X131665178Y-125759411D01*
X131720763Y-125727319D01*
X131784951Y-125727319D01*
X131853308Y-125745635D01*
X132080000Y-125765468D01*
X132306692Y-125745635D01*
X132526496Y-125686739D01*
X132732734Y-125590568D01*
X132919139Y-125460047D01*
X133080047Y-125299139D01*
X133210568Y-125112734D01*
X133306739Y-124906496D01*
X133365635Y-124686692D01*
X133385468Y-124460000D01*
X133365635Y-124233308D01*
X133306739Y-124013504D01*
X133210568Y-123807266D01*
X133208727Y-123804637D01*
X133080046Y-123620859D01*
X132919140Y-123459953D01*
X132758377Y-123347387D01*
X132719511Y-123303069D01*
X132705500Y-123245812D01*
X132705500Y-121864188D01*
X132719511Y-121806931D01*
X132758377Y-121762613D01*
X132840727Y-121704951D01*
X132919139Y-121650047D01*
X133080047Y-121489139D01*
X133210568Y-121302734D01*
X133306739Y-121096496D01*
X133365635Y-120876692D01*
X133385468Y-120650000D01*
X133365635Y-120423308D01*
X133306739Y-120203504D01*
X133210568Y-119997266D01*
X133195437Y-119975657D01*
X133080046Y-119810859D01*
X132919140Y-119649953D01*
X132758377Y-119537387D01*
X132719511Y-119493069D01*
X132705500Y-119435812D01*
X132705500Y-118054188D01*
X132719511Y-117996931D01*
X132758377Y-117952613D01*
X132909209Y-117847000D01*
X132919139Y-117840047D01*
X133080047Y-117679139D01*
X133210568Y-117492734D01*
X133306739Y-117286496D01*
X133306740Y-117286490D01*
X133308273Y-117283204D01*
X133345168Y-117237232D01*
X133399122Y-117213492D01*
X133457942Y-117217347D01*
X133508336Y-117247927D01*
X134593181Y-118332772D01*
X134620061Y-118373000D01*
X134629500Y-118420453D01*
X134629500Y-119932256D01*
X134627235Y-119952762D01*
X134629439Y-120022873D01*
X134629500Y-120026768D01*
X134629500Y-120054349D01*
X134630003Y-120058334D01*
X134630918Y-120069967D01*
X134632290Y-120113626D01*
X134637879Y-120132860D01*
X134641825Y-120151916D01*
X134644335Y-120171792D01*
X134660414Y-120212404D01*
X134664197Y-120223451D01*
X134676382Y-120265391D01*
X134686580Y-120282635D01*
X134695136Y-120300100D01*
X134702514Y-120318732D01*
X134702515Y-120318733D01*
X134728180Y-120354059D01*
X134734593Y-120363822D01*
X134756826Y-120401416D01*
X134756829Y-120401419D01*
X134756830Y-120401420D01*
X134770995Y-120415585D01*
X134783627Y-120430375D01*
X134795406Y-120446587D01*
X134829058Y-120474426D01*
X134837699Y-120482289D01*
X138400586Y-124045177D01*
X138432680Y-124100764D01*
X138432680Y-124164950D01*
X138414364Y-124233307D01*
X138394531Y-124460000D01*
X138414364Y-124686689D01*
X138473261Y-124906497D01*
X138569432Y-125112735D01*
X138699953Y-125299140D01*
X138860859Y-125460046D01*
X139021623Y-125572613D01*
X139060489Y-125616931D01*
X139074500Y-125674188D01*
X139074500Y-126689548D01*
X139065061Y-126737001D01*
X139038181Y-126777229D01*
X135506208Y-130309199D01*
X135490110Y-130322096D01*
X135442096Y-130373225D01*
X135439391Y-130376017D01*
X135419874Y-130395534D01*
X135417415Y-130398705D01*
X135409842Y-130407572D01*
X135379935Y-130439420D01*
X135370285Y-130456974D01*
X135359609Y-130473228D01*
X135347326Y-130489063D01*
X135329975Y-130529158D01*
X135324838Y-130539644D01*
X135303802Y-130577907D01*
X135298821Y-130597309D01*
X135292520Y-130615711D01*
X135284561Y-130634102D01*
X135277728Y-130677242D01*
X135275360Y-130688674D01*
X135264500Y-130730978D01*
X135264500Y-130751016D01*
X135262973Y-130770415D01*
X135259840Y-130790194D01*
X135263950Y-130833675D01*
X135264500Y-130845344D01*
X135264500Y-135685501D01*
X135247887Y-135747501D01*
X135202500Y-135792888D01*
X135140500Y-135809501D01*
X134992128Y-135809501D01*
X134962322Y-135812704D01*
X134932515Y-135815909D01*
X134797669Y-135866204D01*
X134682454Y-135952454D01*
X134596204Y-136067668D01*
X134545909Y-136202515D01*
X134545909Y-136202517D01*
X134541554Y-136243029D01*
X134539500Y-136262130D01*
X134539500Y-138057869D01*
X134545897Y-138117375D01*
X134545909Y-138117483D01*
X134596204Y-138252331D01*
X134682454Y-138367546D01*
X134797669Y-138453796D01*
X134932517Y-138504091D01*
X134992127Y-138510500D01*
X136787872Y-138510499D01*
X136847483Y-138504091D01*
X136982331Y-138453796D01*
X137097546Y-138367546D01*
X137183796Y-138252331D01*
X137234091Y-138117483D01*
X137240500Y-138057873D01*
X137240499Y-136262128D01*
X137234091Y-136202517D01*
X137183796Y-136067669D01*
X137097546Y-135952454D01*
X136982331Y-135866204D01*
X136847483Y-135815909D01*
X136787873Y-135809500D01*
X136787869Y-135809500D01*
X136639500Y-135809500D01*
X136577500Y-135792887D01*
X136532113Y-135747500D01*
X136515500Y-135685500D01*
X136515500Y-131120452D01*
X136524939Y-131072999D01*
X136551819Y-131032771D01*
X137427071Y-130157519D01*
X140083786Y-127500802D01*
X140099887Y-127487904D01*
X140101874Y-127485787D01*
X140101877Y-127485786D01*
X140147932Y-127436741D01*
X140150613Y-127433976D01*
X140153730Y-127430859D01*
X140170120Y-127414470D01*
X140172581Y-127411295D01*
X140180152Y-127402431D01*
X140210062Y-127370582D01*
X140219713Y-127353026D01*
X140230393Y-127336767D01*
X140242674Y-127320936D01*
X140260018Y-127280851D01*
X140265160Y-127270356D01*
X140265382Y-127269953D01*
X140286197Y-127232092D01*
X140291178Y-127212688D01*
X140297482Y-127194280D01*
X140305438Y-127175895D01*
X140312270Y-127132748D01*
X140314639Y-127121316D01*
X140325500Y-127079020D01*
X140325500Y-127058984D01*
X140327027Y-127039585D01*
X140329076Y-127026647D01*
X140330160Y-127019804D01*
X140326050Y-126976325D01*
X140325500Y-126964656D01*
X140325500Y-125980000D01*
X145285000Y-125980000D01*
X145285000Y-126677824D01*
X145291402Y-126737375D01*
X145341647Y-126872089D01*
X145427811Y-126987188D01*
X145542910Y-127073352D01*
X145677624Y-127123597D01*
X145737176Y-127130000D01*
X146435000Y-127130000D01*
X146435000Y-125980000D01*
X146935000Y-125980000D01*
X146935000Y-127130000D01*
X147632824Y-127130000D01*
X147692375Y-127123597D01*
X147827089Y-127073352D01*
X147942188Y-126987188D01*
X148028352Y-126872089D01*
X148078597Y-126737375D01*
X148085000Y-126677824D01*
X148085000Y-125980000D01*
X146935000Y-125980000D01*
X146435000Y-125980000D01*
X145285000Y-125980000D01*
X140325500Y-125980000D01*
X140325500Y-125674188D01*
X140339511Y-125616931D01*
X140378377Y-125572613D01*
X140539140Y-125460046D01*
X140700046Y-125299140D01*
X140720166Y-125270405D01*
X140830568Y-125112734D01*
X140926739Y-124906496D01*
X140985635Y-124686692D01*
X141005468Y-124460000D01*
X140985635Y-124233308D01*
X140926739Y-124013504D01*
X140830568Y-123807266D01*
X140828727Y-123804637D01*
X140700046Y-123620859D01*
X140539140Y-123459953D01*
X140352735Y-123329432D01*
X140146497Y-123233261D01*
X139926689Y-123174364D01*
X139700000Y-123154531D01*
X139473307Y-123174364D01*
X139404950Y-123192680D01*
X139340764Y-123192680D01*
X139285177Y-123160586D01*
X137024591Y-120900000D01*
X138421128Y-120900000D01*
X138473733Y-121096326D01*
X138569865Y-121302480D01*
X138700341Y-121488819D01*
X138861180Y-121649658D01*
X139047519Y-121780134D01*
X139253673Y-121876266D01*
X139449999Y-121928871D01*
X139450000Y-121928872D01*
X139450000Y-120900000D01*
X139950000Y-120900000D01*
X139950000Y-121928871D01*
X140146326Y-121876266D01*
X140352480Y-121780134D01*
X140538819Y-121649658D01*
X140699658Y-121488819D01*
X140830134Y-121302480D01*
X140926266Y-121096326D01*
X140978872Y-120900000D01*
X139950000Y-120900000D01*
X139450000Y-120900000D01*
X138421128Y-120900000D01*
X137024591Y-120900000D01*
X136524591Y-120400000D01*
X138421128Y-120400000D01*
X139450000Y-120400000D01*
X139450000Y-119371128D01*
X139950000Y-119371128D01*
X139950000Y-120400000D01*
X140978872Y-120400000D01*
X140978871Y-120399999D01*
X140926266Y-120203673D01*
X140830134Y-119997519D01*
X140699658Y-119811180D01*
X140538819Y-119650341D01*
X140352480Y-119519865D01*
X140146326Y-119423733D01*
X139950000Y-119371128D01*
X139450000Y-119371128D01*
X139449999Y-119371128D01*
X139253673Y-119423733D01*
X139047519Y-119519865D01*
X138861180Y-119650341D01*
X138700341Y-119811180D01*
X138569865Y-119997519D01*
X138473733Y-120203673D01*
X138421128Y-120399999D01*
X138421128Y-120400000D01*
X136524591Y-120400000D01*
X135916819Y-119792228D01*
X135889939Y-119752000D01*
X135880500Y-119704547D01*
X135880500Y-118192740D01*
X135882763Y-118172236D01*
X135881283Y-118125141D01*
X135880561Y-118102144D01*
X135880500Y-118098250D01*
X135880500Y-118070657D01*
X135880500Y-118070650D01*
X135879995Y-118066653D01*
X135879080Y-118055023D01*
X135879054Y-118054188D01*
X135877709Y-118011372D01*
X135872119Y-117992134D01*
X135868174Y-117973082D01*
X135867856Y-117970568D01*
X135865664Y-117953208D01*
X135849578Y-117912581D01*
X135845805Y-117901560D01*
X135833617Y-117859610D01*
X135826294Y-117847228D01*
X135823421Y-117842369D01*
X135814863Y-117824902D01*
X135807486Y-117806268D01*
X135781798Y-117770912D01*
X135775409Y-117761184D01*
X135753170Y-117723579D01*
X135739006Y-117709415D01*
X135726369Y-117694620D01*
X135714595Y-117678414D01*
X135714594Y-117678413D01*
X135680935Y-117650568D01*
X135672305Y-117642714D01*
X133801772Y-115772181D01*
X133771522Y-115722818D01*
X133766980Y-115665102D01*
X133789135Y-115611615D01*
X133833158Y-115574015D01*
X133889453Y-115560500D01*
X137484548Y-115560500D01*
X137532001Y-115569939D01*
X137572229Y-115596819D01*
X138400586Y-116425177D01*
X138432680Y-116480764D01*
X138432680Y-116544950D01*
X138414364Y-116613307D01*
X138394531Y-116840000D01*
X138414364Y-117066689D01*
X138473261Y-117286497D01*
X138569432Y-117492735D01*
X138699953Y-117679140D01*
X138860859Y-117840046D01*
X139047264Y-117970567D01*
X139047265Y-117970567D01*
X139047266Y-117970568D01*
X139253504Y-118066739D01*
X139473308Y-118125635D01*
X139700000Y-118145468D01*
X139926692Y-118125635D01*
X140146496Y-118066739D01*
X140352734Y-117970568D01*
X140539139Y-117840047D01*
X140700047Y-117679139D01*
X140830568Y-117492734D01*
X140926739Y-117286496D01*
X140985635Y-117066692D01*
X141005468Y-116840000D01*
X140985635Y-116613308D01*
X140926739Y-116393504D01*
X140830568Y-116187266D01*
X140804729Y-116150364D01*
X140700046Y-116000859D01*
X140539140Y-115839953D01*
X140352735Y-115709432D01*
X140146497Y-115613261D01*
X139926689Y-115554364D01*
X139700000Y-115534531D01*
X139473307Y-115554364D01*
X139404950Y-115572680D01*
X139340764Y-115572680D01*
X139285177Y-115540586D01*
X138295802Y-114551211D01*
X138282906Y-114535113D01*
X138231775Y-114487098D01*
X138228978Y-114484387D01*
X138209470Y-114464879D01*
X138206290Y-114462412D01*
X138197424Y-114454839D01*
X138165582Y-114424938D01*
X138148024Y-114415285D01*
X138131764Y-114404604D01*
X138115936Y-114392327D01*
X138075851Y-114374980D01*
X138065361Y-114369841D01*
X138027091Y-114348802D01*
X138007691Y-114343821D01*
X137989284Y-114337519D01*
X137970897Y-114329562D01*
X137927758Y-114322729D01*
X137916324Y-114320361D01*
X137874019Y-114309500D01*
X137853984Y-114309500D01*
X137834586Y-114307973D01*
X137819824Y-114305635D01*
X137814805Y-114304840D01*
X137814804Y-114304840D01*
X137781751Y-114307964D01*
X137771325Y-114308950D01*
X137759656Y-114309500D01*
X135448162Y-114309500D01*
X135388046Y-114293953D01*
X135343004Y-114251210D01*
X135324332Y-114191990D01*
X135336711Y-114131142D01*
X135377038Y-114083925D01*
X135468819Y-114019658D01*
X135629658Y-113858819D01*
X135760134Y-113672480D01*
X135856266Y-113466326D01*
X135908872Y-113270000D01*
X134504000Y-113270000D01*
X134442000Y-113253387D01*
X134396613Y-113208000D01*
X134380000Y-113146000D01*
X134380000Y-112894000D01*
X134396613Y-112832000D01*
X134442000Y-112786613D01*
X134504000Y-112770000D01*
X135908872Y-112770000D01*
X135908871Y-112769999D01*
X135856265Y-112573672D01*
X135850779Y-112561906D01*
X135839425Y-112501391D01*
X135858579Y-112442876D01*
X135903517Y-112400786D01*
X135963160Y-112385500D01*
X141025812Y-112385500D01*
X141083069Y-112399511D01*
X141127387Y-112438377D01*
X141239953Y-112599140D01*
X141400859Y-112760046D01*
X141587264Y-112890567D01*
X141587265Y-112890567D01*
X141587266Y-112890568D01*
X141793504Y-112986739D01*
X142013308Y-113045635D01*
X142240000Y-113065468D01*
X142466692Y-113045635D01*
X142686496Y-112986739D01*
X142892734Y-112890568D01*
X143079139Y-112760047D01*
X143240047Y-112599139D01*
X143370568Y-112412734D01*
X143377619Y-112397612D01*
X143423374Y-112345439D01*
X143490000Y-112326019D01*
X143556626Y-112345439D01*
X143602380Y-112397612D01*
X143603861Y-112400786D01*
X143609434Y-112412738D01*
X143739953Y-112599140D01*
X143900859Y-112760046D01*
X144061623Y-112872613D01*
X144100489Y-112916931D01*
X144114500Y-112974188D01*
X144114500Y-117987256D01*
X144112235Y-118007762D01*
X144114439Y-118077873D01*
X144114500Y-118081768D01*
X144114500Y-118109349D01*
X144115003Y-118113334D01*
X144115918Y-118124967D01*
X144117290Y-118168626D01*
X144122879Y-118187860D01*
X144126825Y-118206916D01*
X144129335Y-118226792D01*
X144145414Y-118267404D01*
X144149197Y-118278451D01*
X144161382Y-118320391D01*
X144171580Y-118337635D01*
X144180136Y-118355100D01*
X144187514Y-118373732D01*
X144187515Y-118373733D01*
X144213180Y-118409059D01*
X144219593Y-118418822D01*
X144241826Y-118456416D01*
X144241829Y-118456419D01*
X144241830Y-118456420D01*
X144255995Y-118470585D01*
X144268627Y-118485375D01*
X144280406Y-118501587D01*
X144314058Y-118529426D01*
X144322699Y-118537289D01*
X146023181Y-120237772D01*
X146050061Y-120278000D01*
X146059500Y-120325453D01*
X146059500Y-121862186D01*
X146042023Y-121925659D01*
X145994518Y-121971240D01*
X145916377Y-122013528D01*
X145916375Y-122013529D01*
X145916374Y-122013530D01*
X145880660Y-122041327D01*
X145733215Y-122156087D01*
X145576020Y-122326848D01*
X145449076Y-122521150D01*
X145355844Y-122733696D01*
X145355842Y-122733700D01*
X145355843Y-122733700D01*
X145303601Y-122940000D01*
X145298865Y-122958700D01*
X145279699Y-123190000D01*
X145298865Y-123421299D01*
X145298865Y-123421301D01*
X145298866Y-123421305D01*
X145355843Y-123646300D01*
X145355844Y-123646303D01*
X145430731Y-123817027D01*
X145449076Y-123858849D01*
X145576021Y-124053153D01*
X145671167Y-124156509D01*
X145699940Y-124209262D01*
X145700533Y-124269348D01*
X145672806Y-124322658D01*
X145623272Y-124356673D01*
X145542913Y-124386646D01*
X145427811Y-124472811D01*
X145341647Y-124587910D01*
X145291402Y-124722624D01*
X145285000Y-124782176D01*
X145285000Y-125480000D01*
X148085000Y-125480000D01*
X148085000Y-124782176D01*
X148078597Y-124722624D01*
X148028352Y-124587910D01*
X147942188Y-124472811D01*
X147827088Y-124386647D01*
X147746728Y-124356674D01*
X147697193Y-124322658D01*
X147669466Y-124269348D01*
X147670059Y-124209262D01*
X147698829Y-124156512D01*
X147793979Y-124053153D01*
X147920924Y-123858849D01*
X148014157Y-123646300D01*
X148071134Y-123421305D01*
X148090300Y-123190000D01*
X148071134Y-122958695D01*
X148014157Y-122733700D01*
X147920924Y-122521151D01*
X147793979Y-122326847D01*
X147636784Y-122156087D01*
X147453626Y-122013530D01*
X147389791Y-121978984D01*
X147375482Y-121971240D01*
X147327977Y-121925659D01*
X147310500Y-121862186D01*
X147310500Y-120097740D01*
X147312763Y-120077236D01*
X147310561Y-120007144D01*
X147310500Y-120003250D01*
X147310500Y-119975657D01*
X147310500Y-119975650D01*
X147309995Y-119971653D01*
X147309080Y-119960023D01*
X147307709Y-119916372D01*
X147302119Y-119897134D01*
X147298174Y-119878082D01*
X147295664Y-119858208D01*
X147289703Y-119843152D01*
X147279578Y-119817581D01*
X147275805Y-119806560D01*
X147263617Y-119764610D01*
X147258471Y-119755909D01*
X147253421Y-119747369D01*
X147244863Y-119729902D01*
X147237486Y-119711268D01*
X147211798Y-119675912D01*
X147205409Y-119666184D01*
X147183170Y-119628579D01*
X147169006Y-119614415D01*
X147156369Y-119599620D01*
X147144595Y-119583414D01*
X147133544Y-119574272D01*
X147110935Y-119555568D01*
X147102305Y-119547714D01*
X145401819Y-117847228D01*
X145374939Y-117807000D01*
X145365500Y-117759547D01*
X145365500Y-112974188D01*
X145379511Y-112916931D01*
X145418377Y-112872613D01*
X145544622Y-112784216D01*
X145579139Y-112760047D01*
X145740047Y-112599139D01*
X145870568Y-112412734D01*
X145966739Y-112206496D01*
X146025635Y-111986692D01*
X146045468Y-111760000D01*
X146025635Y-111533308D01*
X145966739Y-111313504D01*
X145870568Y-111107266D01*
X145782241Y-110981121D01*
X145740046Y-110920859D01*
X145579140Y-110759953D01*
X145418377Y-110647387D01*
X145379511Y-110603069D01*
X145365500Y-110545812D01*
X145365500Y-107992744D01*
X145367764Y-107972236D01*
X145365561Y-107902113D01*
X145365500Y-107898219D01*
X145365500Y-107870654D01*
X145365500Y-107870650D01*
X145364997Y-107866670D01*
X145364081Y-107855028D01*
X145362710Y-107811373D01*
X145357118Y-107792126D01*
X145353174Y-107773085D01*
X145350664Y-107753208D01*
X145334579Y-107712583D01*
X145330808Y-107701568D01*
X145318618Y-107659610D01*
X145308414Y-107642355D01*
X145299861Y-107624895D01*
X145292486Y-107606268D01*
X145266808Y-107570925D01*
X145260401Y-107561171D01*
X145246323Y-107537366D01*
X145238170Y-107523580D01*
X145224006Y-107509416D01*
X145211367Y-107494617D01*
X145199595Y-107478413D01*
X145165941Y-107450573D01*
X145157299Y-107442709D01*
X144809413Y-107094822D01*
X144777319Y-107039234D01*
X144777319Y-106975047D01*
X144793993Y-106912819D01*
X144795635Y-106906692D01*
X144815468Y-106680000D01*
X144795635Y-106453308D01*
X144736739Y-106233504D01*
X144640568Y-106027266D01*
X144567651Y-105923129D01*
X144510046Y-105840859D01*
X144349140Y-105679953D01*
X144188377Y-105567387D01*
X144149511Y-105523069D01*
X144135500Y-105465812D01*
X144135500Y-102912744D01*
X144137764Y-102892237D01*
X144135561Y-102822127D01*
X144135500Y-102818232D01*
X144135500Y-102790653D01*
X144134997Y-102786672D01*
X144134080Y-102775019D01*
X144133836Y-102767256D01*
X144132709Y-102731373D01*
X144127120Y-102712140D01*
X144123174Y-102693082D01*
X144120664Y-102673206D01*
X144104588Y-102632604D01*
X144100804Y-102621553D01*
X144094881Y-102601168D01*
X144088618Y-102579610D01*
X144078414Y-102562355D01*
X144069861Y-102544895D01*
X144062486Y-102526268D01*
X144036808Y-102490925D01*
X144030401Y-102481171D01*
X144008169Y-102443579D01*
X143994006Y-102429416D01*
X143981367Y-102414617D01*
X143969595Y-102398413D01*
X143935941Y-102370573D01*
X143927299Y-102362709D01*
X143411244Y-101846654D01*
X143380343Y-101795227D01*
X143377203Y-101735312D01*
X143402559Y-101680937D01*
X143450475Y-101644830D01*
X143499253Y-101637104D01*
X143499193Y-101636414D01*
X143509071Y-101635549D01*
X143509733Y-101635445D01*
X143510000Y-101635468D01*
X143736692Y-101615635D01*
X143956496Y-101556739D01*
X144162734Y-101460568D01*
X144349139Y-101330047D01*
X144510047Y-101169139D01*
X144640568Y-100982734D01*
X144736739Y-100776496D01*
X144795635Y-100556692D01*
X144815468Y-100330000D01*
X144795635Y-100103308D01*
X144750963Y-99936592D01*
X144749122Y-99880309D01*
X144772363Y-99829014D01*
X144815895Y-99793288D01*
X144870739Y-99780500D01*
X145845500Y-99780500D01*
X145907500Y-99797113D01*
X145952887Y-99842500D01*
X145969500Y-99904500D01*
X145969500Y-101227869D01*
X145975897Y-101287375D01*
X145975909Y-101287483D01*
X146026204Y-101422331D01*
X146112454Y-101537546D01*
X146227669Y-101623796D01*
X146362517Y-101674091D01*
X146422127Y-101680500D01*
X148217872Y-101680499D01*
X148277483Y-101674091D01*
X148412331Y-101623796D01*
X148527546Y-101537546D01*
X148613796Y-101422331D01*
X148664091Y-101287483D01*
X148670500Y-101227873D01*
X148670499Y-99904499D01*
X148687112Y-99842500D01*
X148732499Y-99797113D01*
X148794499Y-99780500D01*
X149644548Y-99780500D01*
X149692001Y-99789939D01*
X149732229Y-99816819D01*
X149743181Y-99827771D01*
X149770061Y-99867999D01*
X149779500Y-99915452D01*
X149779500Y-101227869D01*
X149785897Y-101287375D01*
X149785909Y-101287483D01*
X149836204Y-101422331D01*
X149922454Y-101537546D01*
X150037669Y-101623796D01*
X150172517Y-101674091D01*
X150232127Y-101680500D01*
X152027872Y-101680499D01*
X152087483Y-101674091D01*
X152222331Y-101623796D01*
X152337546Y-101537546D01*
X152423796Y-101422331D01*
X152474091Y-101287483D01*
X152480500Y-101227873D01*
X152480500Y-101079500D01*
X152497113Y-101017500D01*
X152542500Y-100972113D01*
X152604500Y-100955500D01*
X153725812Y-100955500D01*
X153783069Y-100969511D01*
X153827387Y-101008377D01*
X153939953Y-101169140D01*
X154100859Y-101330046D01*
X154261623Y-101442613D01*
X154300489Y-101486931D01*
X154314500Y-101544188D01*
X154314500Y-105350951D01*
X154299214Y-105410594D01*
X154257125Y-105455532D01*
X154198610Y-105474686D01*
X154138095Y-105463333D01*
X154116497Y-105453261D01*
X153896689Y-105394364D01*
X153670000Y-105374531D01*
X153443310Y-105394364D01*
X153223502Y-105453261D01*
X153017264Y-105549432D01*
X152830859Y-105679953D01*
X152669953Y-105840859D01*
X152539433Y-106027263D01*
X152512382Y-106085275D01*
X152466625Y-106137450D01*
X152400000Y-106156869D01*
X152333375Y-106137450D01*
X152287618Y-106085275D01*
X152260568Y-106027266D01*
X152168506Y-105895786D01*
X152130046Y-105840859D01*
X151969140Y-105679953D01*
X151782735Y-105549432D01*
X151576497Y-105453261D01*
X151356689Y-105394364D01*
X151130000Y-105374531D01*
X150903310Y-105394364D01*
X150683502Y-105453261D01*
X150477264Y-105549432D01*
X150290859Y-105679953D01*
X150129953Y-105840859D01*
X149999432Y-106027264D01*
X149903261Y-106233502D01*
X149844364Y-106453310D01*
X149824531Y-106680000D01*
X149844364Y-106906689D01*
X149903261Y-107126497D01*
X149999432Y-107332735D01*
X150129953Y-107519140D01*
X150290859Y-107680046D01*
X150451623Y-107792613D01*
X150490489Y-107836931D01*
X150504500Y-107894188D01*
X150504500Y-109544548D01*
X150495061Y-109592001D01*
X150468181Y-109632229D01*
X146936208Y-113164199D01*
X146920110Y-113177096D01*
X146872096Y-113228225D01*
X146869391Y-113231017D01*
X146849874Y-113250534D01*
X146847415Y-113253705D01*
X146839842Y-113262572D01*
X146809935Y-113294420D01*
X146800285Y-113311974D01*
X146789609Y-113328228D01*
X146777326Y-113344063D01*
X146759975Y-113384158D01*
X146754838Y-113394644D01*
X146733802Y-113432907D01*
X146728821Y-113452309D01*
X146722520Y-113470711D01*
X146714561Y-113489102D01*
X146707728Y-113532242D01*
X146705360Y-113543674D01*
X146694500Y-113585978D01*
X146694500Y-113606016D01*
X146692973Y-113625415D01*
X146689840Y-113645194D01*
X146693950Y-113688675D01*
X146694500Y-113700344D01*
X146694500Y-118027256D01*
X146692235Y-118047762D01*
X146694439Y-118117873D01*
X146694500Y-118121768D01*
X146694500Y-118149349D01*
X146695003Y-118153334D01*
X146695918Y-118164967D01*
X146697290Y-118208626D01*
X146702879Y-118227860D01*
X146706825Y-118246916D01*
X146709335Y-118266792D01*
X146725414Y-118307404D01*
X146729197Y-118318451D01*
X146741382Y-118360391D01*
X146751580Y-118377635D01*
X146760136Y-118395100D01*
X146767514Y-118413732D01*
X146771212Y-118418822D01*
X146793180Y-118449059D01*
X146799593Y-118458822D01*
X146821826Y-118496416D01*
X146821829Y-118496419D01*
X146821830Y-118496420D01*
X146835995Y-118510585D01*
X146848627Y-118525375D01*
X146860406Y-118541587D01*
X146894058Y-118569426D01*
X146902699Y-118577289D01*
X149198181Y-120872772D01*
X149225061Y-120913000D01*
X149234500Y-120960453D01*
X149234500Y-126689548D01*
X149225061Y-126737001D01*
X149198181Y-126777229D01*
X140202226Y-135773181D01*
X140161998Y-135800061D01*
X140114545Y-135809500D01*
X138802130Y-135809500D01*
X138742515Y-135815909D01*
X138607669Y-135866204D01*
X138492454Y-135952454D01*
X138406204Y-136067668D01*
X138355909Y-136202515D01*
X138355909Y-136202517D01*
X138351554Y-136243029D01*
X138349500Y-136262130D01*
X138349500Y-138057869D01*
X138355897Y-138117375D01*
X138355909Y-138117483D01*
X138406204Y-138252331D01*
X138492454Y-138367546D01*
X138607669Y-138453796D01*
X138742517Y-138504091D01*
X138802127Y-138510500D01*
X140597872Y-138510499D01*
X140657483Y-138504091D01*
X140792331Y-138453796D01*
X140907546Y-138367546D01*
X140993796Y-138252331D01*
X141044091Y-138117483D01*
X141050500Y-138057873D01*
X141050499Y-137410000D01*
X142160000Y-137410000D01*
X142160000Y-138057824D01*
X142166402Y-138117375D01*
X142216647Y-138252089D01*
X142302811Y-138367188D01*
X142417910Y-138453352D01*
X142552624Y-138503597D01*
X142612176Y-138510000D01*
X143260000Y-138510000D01*
X143260000Y-137410000D01*
X143760000Y-137410000D01*
X143760000Y-138510000D01*
X144407824Y-138510000D01*
X144467375Y-138503597D01*
X144602089Y-138453352D01*
X144717188Y-138367188D01*
X144803352Y-138252089D01*
X144853597Y-138117375D01*
X144860000Y-138057824D01*
X144860000Y-137410000D01*
X157400000Y-137410000D01*
X157400000Y-138057824D01*
X157406402Y-138117375D01*
X157456647Y-138252089D01*
X157542811Y-138367188D01*
X157657910Y-138453352D01*
X157792624Y-138503597D01*
X157852176Y-138510000D01*
X158500000Y-138510000D01*
X158500000Y-137410000D01*
X159000000Y-137410000D01*
X159000000Y-138510000D01*
X159647824Y-138510000D01*
X159707375Y-138503597D01*
X159842089Y-138453352D01*
X159957188Y-138367188D01*
X160043352Y-138252089D01*
X160093597Y-138117375D01*
X160100000Y-138057824D01*
X160100000Y-137410000D01*
X159000000Y-137410000D01*
X158500000Y-137410000D01*
X157400000Y-137410000D01*
X144860000Y-137410000D01*
X143760000Y-137410000D01*
X143260000Y-137410000D01*
X142160000Y-137410000D01*
X141050499Y-137410000D01*
X141050499Y-136910000D01*
X142160000Y-136910000D01*
X143260000Y-136910000D01*
X143260000Y-135810000D01*
X143760000Y-135810000D01*
X143760000Y-136910000D01*
X144860000Y-136910000D01*
X157400000Y-136910000D01*
X158500000Y-136910000D01*
X158500000Y-135810000D01*
X159000000Y-135810000D01*
X159000000Y-136910000D01*
X160100000Y-136910000D01*
X160100000Y-136262176D01*
X160093597Y-136202624D01*
X160043352Y-136067910D01*
X159957188Y-135952811D01*
X159842089Y-135866647D01*
X159707375Y-135816402D01*
X159647824Y-135810000D01*
X159000000Y-135810000D01*
X158500000Y-135810000D01*
X157852176Y-135810000D01*
X157792624Y-135816402D01*
X157657910Y-135866647D01*
X157542811Y-135952811D01*
X157456647Y-136067910D01*
X157406402Y-136202624D01*
X157400000Y-136262176D01*
X157400000Y-136910000D01*
X144860000Y-136910000D01*
X144860000Y-136262176D01*
X144853597Y-136202624D01*
X144803352Y-136067910D01*
X144717188Y-135952811D01*
X144602089Y-135866647D01*
X144467375Y-135816402D01*
X144407824Y-135810000D01*
X143760000Y-135810000D01*
X143260000Y-135810000D01*
X142612176Y-135810000D01*
X142552624Y-135816402D01*
X142417910Y-135866647D01*
X142302811Y-135952811D01*
X142216647Y-136067910D01*
X142166402Y-136202624D01*
X142160000Y-136262176D01*
X142160000Y-136910000D01*
X141050499Y-136910000D01*
X141050499Y-136745450D01*
X141059938Y-136697998D01*
X141086815Y-136657773D01*
X143124588Y-134620000D01*
X149704728Y-134620000D01*
X149724167Y-134854587D01*
X149724167Y-134854590D01*
X149724168Y-134854592D01*
X149781954Y-135082785D01*
X149876512Y-135298354D01*
X150005261Y-135495420D01*
X150078095Y-135574539D01*
X150164689Y-135668606D01*
X150266053Y-135747500D01*
X150350451Y-135813189D01*
X150557475Y-135925225D01*
X150668795Y-135963441D01*
X150780113Y-136001657D01*
X150780115Y-136001657D01*
X150780117Y-136001658D01*
X151012302Y-136040403D01*
X151247697Y-136040403D01*
X151247698Y-136040403D01*
X151479883Y-136001658D01*
X151702525Y-135925225D01*
X151909549Y-135813189D01*
X152095310Y-135668606D01*
X152254739Y-135495420D01*
X152383488Y-135298354D01*
X152478046Y-135082785D01*
X152535832Y-134854592D01*
X152555271Y-134620000D01*
X152535832Y-134385408D01*
X152478046Y-134157215D01*
X152383488Y-133941646D01*
X152254739Y-133744580D01*
X152140383Y-133620356D01*
X152095310Y-133571393D01*
X151909550Y-133426812D01*
X151909549Y-133426811D01*
X151702525Y-133314775D01*
X151702521Y-133314773D01*
X151702520Y-133314773D01*
X151479886Y-133238342D01*
X151282743Y-133205445D01*
X151247698Y-133199597D01*
X151012302Y-133199597D01*
X150977257Y-133205445D01*
X150780113Y-133238342D01*
X150557479Y-133314773D01*
X150350449Y-133426812D01*
X150164689Y-133571393D01*
X150005260Y-133744581D01*
X149876513Y-133941643D01*
X149781954Y-134157215D01*
X149724167Y-134385412D01*
X149704728Y-134620000D01*
X143124588Y-134620000D01*
X149224588Y-128520000D01*
X154910000Y-128520000D01*
X154910000Y-129117824D01*
X154916402Y-129177375D01*
X154966647Y-129312089D01*
X155052811Y-129427188D01*
X155167910Y-129513352D01*
X155302624Y-129563597D01*
X155362176Y-129570000D01*
X155960000Y-129570000D01*
X155960000Y-128520000D01*
X156460000Y-128520000D01*
X156460000Y-129570000D01*
X157057824Y-129570000D01*
X157117375Y-129563597D01*
X157252089Y-129513352D01*
X157367188Y-129427188D01*
X157453352Y-129312089D01*
X157503597Y-129177375D01*
X157510000Y-129117824D01*
X157510000Y-128520000D01*
X156460000Y-128520000D01*
X155960000Y-128520000D01*
X154910000Y-128520000D01*
X149224588Y-128520000D01*
X149724588Y-128020000D01*
X154910000Y-128020000D01*
X155960000Y-128020000D01*
X155960000Y-126970000D01*
X156460000Y-126970000D01*
X156460000Y-128020000D01*
X157510000Y-128020000D01*
X157510000Y-127422176D01*
X157503597Y-127362624D01*
X157453352Y-127227910D01*
X157367188Y-127112811D01*
X157252089Y-127026647D01*
X157117375Y-126976402D01*
X157057824Y-126970000D01*
X156460000Y-126970000D01*
X155960000Y-126970000D01*
X155362176Y-126970000D01*
X155302624Y-126976402D01*
X155167910Y-127026647D01*
X155052811Y-127112811D01*
X154966647Y-127227910D01*
X154916402Y-127362624D01*
X154910000Y-127422176D01*
X154910000Y-128020000D01*
X149724588Y-128020000D01*
X150243786Y-127500802D01*
X150259887Y-127487904D01*
X150261874Y-127485787D01*
X150261877Y-127485786D01*
X150307932Y-127436741D01*
X150310613Y-127433976D01*
X150313730Y-127430859D01*
X150330120Y-127414470D01*
X150332581Y-127411295D01*
X150340152Y-127402431D01*
X150370062Y-127370582D01*
X150379712Y-127353027D01*
X150390400Y-127336757D01*
X150402673Y-127320936D01*
X150420022Y-127280841D01*
X150425157Y-127270362D01*
X150446196Y-127232093D01*
X150446197Y-127232092D01*
X150451179Y-127212688D01*
X150457478Y-127194287D01*
X150465438Y-127175895D01*
X150472270Y-127132748D01*
X150474639Y-127121315D01*
X150485500Y-127079020D01*
X150485500Y-127058984D01*
X150487027Y-127039585D01*
X150489076Y-127026647D01*
X150490160Y-127019804D01*
X150486050Y-126976325D01*
X150485500Y-126964656D01*
X150485500Y-123440000D01*
X154931128Y-123440000D01*
X154983733Y-123636326D01*
X155079865Y-123842480D01*
X155210341Y-124028819D01*
X155371180Y-124189658D01*
X155557519Y-124320134D01*
X155763673Y-124416266D01*
X155959999Y-124468871D01*
X155960000Y-124468872D01*
X155960000Y-123440000D01*
X156460000Y-123440000D01*
X156460000Y-124468871D01*
X156656326Y-124416266D01*
X156862480Y-124320134D01*
X157048819Y-124189658D01*
X157209658Y-124028819D01*
X157340134Y-123842480D01*
X157436266Y-123636326D01*
X157488872Y-123440000D01*
X156460000Y-123440000D01*
X155960000Y-123440000D01*
X154931128Y-123440000D01*
X150485500Y-123440000D01*
X150485500Y-122940000D01*
X154931128Y-122940000D01*
X155960000Y-122940000D01*
X155960000Y-121911128D01*
X156460000Y-121911128D01*
X156460000Y-122940000D01*
X157488872Y-122940000D01*
X157488871Y-122939999D01*
X157436266Y-122743673D01*
X157340134Y-122537519D01*
X157209658Y-122351180D01*
X157048819Y-122190341D01*
X156862480Y-122059865D01*
X156656326Y-121963733D01*
X156460000Y-121911128D01*
X155960000Y-121911128D01*
X155959999Y-121911128D01*
X155763673Y-121963733D01*
X155557519Y-122059865D01*
X155371180Y-122190341D01*
X155210341Y-122351180D01*
X155079865Y-122537519D01*
X154983733Y-122743673D01*
X154931128Y-122939999D01*
X154931128Y-122940000D01*
X150485500Y-122940000D01*
X150485500Y-120732740D01*
X150487763Y-120712236D01*
X150485561Y-120642144D01*
X150485500Y-120638250D01*
X150485500Y-120610657D01*
X150485500Y-120610650D01*
X150484995Y-120606653D01*
X150484080Y-120595023D01*
X150482709Y-120551372D01*
X150477119Y-120532134D01*
X150473174Y-120513082D01*
X150470664Y-120493208D01*
X150464703Y-120478152D01*
X150454578Y-120452581D01*
X150450805Y-120441560D01*
X150438617Y-120399610D01*
X150428421Y-120382369D01*
X150419863Y-120364902D01*
X150412486Y-120346268D01*
X150386798Y-120310912D01*
X150380409Y-120301184D01*
X150358170Y-120263579D01*
X150344006Y-120249414D01*
X150331369Y-120234620D01*
X150319595Y-120218414D01*
X150301776Y-120203673D01*
X150285935Y-120190568D01*
X150277305Y-120182714D01*
X147981819Y-117887228D01*
X147954939Y-117847000D01*
X147945500Y-117799547D01*
X147945500Y-113975452D01*
X147954939Y-113927999D01*
X147981819Y-113887771D01*
X148857588Y-113012002D01*
X151513786Y-110355802D01*
X151529887Y-110342904D01*
X151531874Y-110340787D01*
X151531877Y-110340786D01*
X151577932Y-110291741D01*
X151580613Y-110288976D01*
X151600120Y-110269470D01*
X151602581Y-110266295D01*
X151610152Y-110257431D01*
X151640062Y-110225582D01*
X151649713Y-110208026D01*
X151660393Y-110191767D01*
X151672674Y-110175936D01*
X151690018Y-110135851D01*
X151695160Y-110125356D01*
X151716197Y-110087092D01*
X151721178Y-110067688D01*
X151727480Y-110049283D01*
X151735438Y-110030895D01*
X151742270Y-109987748D01*
X151744639Y-109976316D01*
X151755500Y-109934020D01*
X151755500Y-109913984D01*
X151757027Y-109894585D01*
X151760160Y-109874804D01*
X151756050Y-109831325D01*
X151755500Y-109819656D01*
X151755500Y-107894188D01*
X151769511Y-107836931D01*
X151808377Y-107792613D01*
X151969140Y-107680046D01*
X152130046Y-107519140D01*
X152142560Y-107501268D01*
X152260568Y-107332734D01*
X152287618Y-107274724D01*
X152333375Y-107222549D01*
X152400000Y-107203129D01*
X152466625Y-107222549D01*
X152512382Y-107274725D01*
X152539431Y-107332733D01*
X152669953Y-107519140D01*
X152830859Y-107680046D01*
X153017264Y-107810567D01*
X153017265Y-107810567D01*
X153017266Y-107810568D01*
X153223504Y-107906739D01*
X153443308Y-107965635D01*
X153670000Y-107985468D01*
X153896692Y-107965635D01*
X154116496Y-107906739D01*
X154138095Y-107896666D01*
X154198610Y-107885314D01*
X154257125Y-107904468D01*
X154299214Y-107949406D01*
X154314500Y-108009049D01*
X154314500Y-110179547D01*
X154305061Y-110227000D01*
X154278183Y-110267225D01*
X154111474Y-110433933D01*
X154084821Y-110460587D01*
X154029234Y-110492680D01*
X153965047Y-110492680D01*
X153896690Y-110474364D01*
X153669999Y-110454531D01*
X153443310Y-110474364D01*
X153223502Y-110533261D01*
X153017264Y-110629432D01*
X152830859Y-110759953D01*
X152669953Y-110920859D01*
X152539432Y-111107264D01*
X152443261Y-111313502D01*
X152384364Y-111533310D01*
X152364531Y-111760000D01*
X152384364Y-111986689D01*
X152443261Y-112206497D01*
X152539432Y-112412735D01*
X152669953Y-112599140D01*
X152830860Y-112760047D01*
X152865377Y-112784216D01*
X152901641Y-112823791D01*
X152917782Y-112874984D01*
X152910776Y-112928201D01*
X152881935Y-112973472D01*
X150314821Y-115540586D01*
X150259234Y-115572680D01*
X150195047Y-115572680D01*
X150126690Y-115554364D01*
X149899999Y-115534531D01*
X149673310Y-115554364D01*
X149453502Y-115613261D01*
X149247264Y-115709432D01*
X149060859Y-115839953D01*
X148899953Y-116000859D01*
X148769432Y-116187264D01*
X148673261Y-116393502D01*
X148614364Y-116613310D01*
X148594531Y-116839999D01*
X148614364Y-117066689D01*
X148673261Y-117286497D01*
X148769432Y-117492735D01*
X148899953Y-117679140D01*
X149060859Y-117840046D01*
X149247264Y-117970567D01*
X149247265Y-117970567D01*
X149247266Y-117970568D01*
X149453504Y-118066739D01*
X149673308Y-118125635D01*
X149900000Y-118145468D01*
X150126692Y-118125635D01*
X150346496Y-118066739D01*
X150552734Y-117970568D01*
X150739139Y-117840047D01*
X150900047Y-117679139D01*
X151030568Y-117492734D01*
X151126739Y-117286496D01*
X151185635Y-117066692D01*
X151205468Y-116840000D01*
X151205468Y-116839999D01*
X153594531Y-116839999D01*
X153614364Y-117066689D01*
X153673261Y-117286497D01*
X153769432Y-117492735D01*
X153899953Y-117679140D01*
X154060859Y-117840046D01*
X154247264Y-117970567D01*
X154247265Y-117970567D01*
X154247266Y-117970568D01*
X154453504Y-118066739D01*
X154673308Y-118125635D01*
X154900000Y-118145468D01*
X155126692Y-118125635D01*
X155195048Y-118107319D01*
X155259234Y-118107319D01*
X155314822Y-118139413D01*
X160749196Y-123573787D01*
X160762096Y-123589888D01*
X160764213Y-123591876D01*
X160764214Y-123591877D01*
X160811547Y-123636326D01*
X160813223Y-123637900D01*
X160816020Y-123640611D01*
X160835529Y-123660120D01*
X160838711Y-123662588D01*
X160847571Y-123670155D01*
X160879418Y-123700062D01*
X160896970Y-123709711D01*
X160913238Y-123720397D01*
X160929064Y-123732673D01*
X160969146Y-123750017D01*
X160979633Y-123755155D01*
X161017907Y-123776197D01*
X161026410Y-123778379D01*
X161037308Y-123781178D01*
X161055713Y-123787478D01*
X161074104Y-123795437D01*
X161117250Y-123802270D01*
X161128668Y-123804635D01*
X161170981Y-123815500D01*
X161191016Y-123815500D01*
X161210415Y-123817027D01*
X161230196Y-123820160D01*
X161273674Y-123816050D01*
X161285344Y-123815500D01*
X162405501Y-123815500D01*
X162467501Y-123832113D01*
X162512888Y-123877500D01*
X162529501Y-123939500D01*
X162529501Y-124037872D01*
X162531144Y-124053153D01*
X162535909Y-124097484D01*
X162557924Y-124156509D01*
X162586204Y-124232331D01*
X162672454Y-124347546D01*
X162787669Y-124433796D01*
X162922517Y-124484091D01*
X162982127Y-124490500D01*
X163080500Y-124490500D01*
X163142500Y-124507113D01*
X163187887Y-124552500D01*
X163204500Y-124614500D01*
X163204500Y-127055812D01*
X163190489Y-127113069D01*
X163151623Y-127157387D01*
X162990859Y-127269953D01*
X162829953Y-127430859D01*
X162699432Y-127617264D01*
X162603261Y-127823502D01*
X162544364Y-128043310D01*
X162524531Y-128270000D01*
X162544364Y-128496689D01*
X162603261Y-128716497D01*
X162699432Y-128922735D01*
X162829953Y-129109140D01*
X162990859Y-129270046D01*
X163151623Y-129382613D01*
X163190489Y-129426931D01*
X163204500Y-129484188D01*
X163204500Y-135579547D01*
X163195061Y-135627000D01*
X163168183Y-135667225D01*
X163062224Y-135773183D01*
X163021999Y-135800061D01*
X162974546Y-135809500D01*
X161662130Y-135809500D01*
X161602515Y-135815909D01*
X161467669Y-135866204D01*
X161352454Y-135952454D01*
X161266204Y-136067668D01*
X161215909Y-136202515D01*
X161215909Y-136202517D01*
X161211554Y-136243029D01*
X161209500Y-136262130D01*
X161209500Y-138057869D01*
X161215897Y-138117375D01*
X161215909Y-138117483D01*
X161266204Y-138252331D01*
X161352454Y-138367546D01*
X161467669Y-138453796D01*
X161602517Y-138504091D01*
X161662127Y-138510500D01*
X163457872Y-138510499D01*
X163517483Y-138504091D01*
X163652331Y-138453796D01*
X163767546Y-138367546D01*
X163853796Y-138252331D01*
X163904091Y-138117483D01*
X163910500Y-138057873D01*
X163910499Y-136745451D01*
X163919938Y-136697999D01*
X163946815Y-136657774D01*
X164213789Y-136390800D01*
X164229885Y-136377906D01*
X164231873Y-136375787D01*
X164231877Y-136375786D01*
X164277948Y-136326723D01*
X164280566Y-136324023D01*
X164300120Y-136304471D01*
X164302581Y-136301298D01*
X164310156Y-136292427D01*
X164340062Y-136260582D01*
X164349717Y-136243018D01*
X164360394Y-136226764D01*
X164372673Y-136210936D01*
X164390018Y-136170852D01*
X164395160Y-136160356D01*
X164416197Y-136122092D01*
X164421179Y-136102684D01*
X164427481Y-136084280D01*
X164435437Y-136065896D01*
X164442269Y-136022752D01*
X164444633Y-136011338D01*
X164455500Y-135969019D01*
X164455500Y-135948984D01*
X164457027Y-135929585D01*
X164457717Y-135925226D01*
X164460160Y-135909804D01*
X164456050Y-135866325D01*
X164455500Y-135854656D01*
X164455500Y-129484188D01*
X164469511Y-129426931D01*
X164508377Y-129382613D01*
X164669140Y-129270046D01*
X164830046Y-129109140D01*
X164840994Y-129093504D01*
X164960568Y-128922734D01*
X165056739Y-128716496D01*
X165115635Y-128496692D01*
X165135468Y-128270000D01*
X165115635Y-128043308D01*
X165056739Y-127823504D01*
X164960568Y-127617266D01*
X164879023Y-127500807D01*
X164830046Y-127430859D01*
X164669140Y-127269953D01*
X164508377Y-127157387D01*
X164469511Y-127113069D01*
X164455500Y-127055812D01*
X164455500Y-124614499D01*
X164472113Y-124552499D01*
X164517500Y-124507112D01*
X164579500Y-124490499D01*
X164677870Y-124490499D01*
X164677872Y-124490499D01*
X164737483Y-124484091D01*
X164872331Y-124433796D01*
X164987546Y-124347546D01*
X165073796Y-124232331D01*
X165124091Y-124097483D01*
X165130500Y-124037873D01*
X165130499Y-122342128D01*
X165124091Y-122282517D01*
X165073796Y-122147669D01*
X164987546Y-122032454D01*
X164872331Y-121946204D01*
X164737483Y-121895909D01*
X164677873Y-121889500D01*
X164677869Y-121889500D01*
X162982130Y-121889500D01*
X162922515Y-121895909D01*
X162787669Y-121946204D01*
X162672454Y-122032454D01*
X162586204Y-122147668D01*
X162535909Y-122282515D01*
X162535909Y-122282517D01*
X162531620Y-122322414D01*
X162529500Y-122342131D01*
X162529500Y-122440500D01*
X162512887Y-122502500D01*
X162467500Y-122547887D01*
X162405500Y-122564500D01*
X161560453Y-122564500D01*
X161513000Y-122555061D01*
X161472772Y-122528181D01*
X156863617Y-117919026D01*
X158064526Y-117919026D01*
X158137515Y-117970133D01*
X158343673Y-118066266D01*
X158563397Y-118125141D01*
X158790000Y-118144966D01*
X159016602Y-118125141D01*
X159236326Y-118066266D01*
X159442480Y-117970134D01*
X159515472Y-117919025D01*
X158790001Y-117193553D01*
X158790000Y-117193553D01*
X158064526Y-117919025D01*
X158064526Y-117919026D01*
X156863617Y-117919026D01*
X156199413Y-117254822D01*
X156167319Y-117199234D01*
X156167319Y-117135047D01*
X156170000Y-117125042D01*
X156185635Y-117066692D01*
X156205468Y-116840000D01*
X157485033Y-116840000D01*
X157504858Y-117066602D01*
X157563733Y-117286326D01*
X157659866Y-117492484D01*
X157710972Y-117565471D01*
X157710973Y-117565472D01*
X158436445Y-116840001D01*
X159143553Y-116840001D01*
X159869025Y-117565472D01*
X159920131Y-117492484D01*
X159927340Y-117477026D01*
X159973097Y-117424849D01*
X160039722Y-117405428D01*
X160106348Y-117424847D01*
X160152106Y-117477023D01*
X160159432Y-117492735D01*
X160289953Y-117679140D01*
X160450859Y-117840046D01*
X160637264Y-117970567D01*
X160637265Y-117970567D01*
X160637266Y-117970568D01*
X160843504Y-118066739D01*
X161063308Y-118125635D01*
X161290000Y-118145468D01*
X161516692Y-118125635D01*
X161736496Y-118066739D01*
X161942734Y-117970568D01*
X162129139Y-117840047D01*
X162290047Y-117679139D01*
X162420568Y-117492734D01*
X162516739Y-117286496D01*
X162575635Y-117066692D01*
X162595468Y-116840000D01*
X162575635Y-116613308D01*
X162557319Y-116544950D01*
X162557319Y-116480763D01*
X162589411Y-116425178D01*
X162798789Y-116215800D01*
X162814885Y-116202906D01*
X162816873Y-116200787D01*
X162816877Y-116200786D01*
X162862948Y-116151723D01*
X162865566Y-116149023D01*
X162885120Y-116129471D01*
X162887581Y-116126298D01*
X162895156Y-116117427D01*
X162925062Y-116085582D01*
X162934717Y-116068018D01*
X162945394Y-116051764D01*
X162957673Y-116035936D01*
X162975018Y-115995852D01*
X162980160Y-115985356D01*
X163001197Y-115947092D01*
X163006179Y-115927684D01*
X163012481Y-115909280D01*
X163020437Y-115890896D01*
X163027269Y-115847752D01*
X163029633Y-115836338D01*
X163040500Y-115794019D01*
X163040500Y-115773984D01*
X163042027Y-115754585D01*
X163042068Y-115754321D01*
X163045160Y-115734804D01*
X163041050Y-115691325D01*
X163040500Y-115679656D01*
X163040500Y-107887740D01*
X163042763Y-107867236D01*
X163042379Y-107855028D01*
X163040561Y-107797144D01*
X163040500Y-107793250D01*
X163040500Y-107765657D01*
X163040500Y-107765650D01*
X163039995Y-107761653D01*
X163039080Y-107750023D01*
X163037709Y-107706373D01*
X163032120Y-107687140D01*
X163028174Y-107668082D01*
X163025664Y-107648208D01*
X163025663Y-107648207D01*
X163009585Y-107607597D01*
X163005804Y-107596552D01*
X162993619Y-107554613D01*
X162993618Y-107554612D01*
X162993618Y-107554610D01*
X162983417Y-107537361D01*
X162974860Y-107519895D01*
X162967486Y-107501268D01*
X162941813Y-107465932D01*
X162935402Y-107456172D01*
X162913169Y-107418578D01*
X162899006Y-107404415D01*
X162886369Y-107389620D01*
X162874595Y-107373414D01*
X162874594Y-107373413D01*
X162840935Y-107345568D01*
X162832305Y-107337714D01*
X162589413Y-107094822D01*
X162557319Y-107039234D01*
X162557319Y-106975047D01*
X162573993Y-106912819D01*
X162575635Y-106906692D01*
X162595468Y-106680000D01*
X162575635Y-106453308D01*
X162557319Y-106384951D01*
X162557319Y-106320763D01*
X162589411Y-106265178D01*
X162943789Y-105910800D01*
X162959885Y-105897906D01*
X162961873Y-105895787D01*
X162961877Y-105895786D01*
X163007948Y-105846723D01*
X163010566Y-105844023D01*
X163030120Y-105824471D01*
X163032581Y-105821298D01*
X163040156Y-105812427D01*
X163070062Y-105780582D01*
X163079717Y-105763018D01*
X163090394Y-105746764D01*
X163102673Y-105730936D01*
X163120018Y-105690852D01*
X163125160Y-105680356D01*
X163125382Y-105679953D01*
X163146197Y-105642092D01*
X163151179Y-105622684D01*
X163157481Y-105604280D01*
X163165437Y-105585896D01*
X163172269Y-105542752D01*
X163174633Y-105531338D01*
X163185500Y-105489019D01*
X163185500Y-105468984D01*
X163187027Y-105449585D01*
X163189937Y-105431209D01*
X163190160Y-105429804D01*
X163186050Y-105386325D01*
X163185500Y-105374656D01*
X163185500Y-101544188D01*
X163199511Y-101486931D01*
X163238377Y-101442613D01*
X163399140Y-101330046D01*
X163560046Y-101169140D01*
X163639636Y-101055472D01*
X163690568Y-100982734D01*
X163786739Y-100776496D01*
X163845635Y-100556692D01*
X163865468Y-100330000D01*
X163845635Y-100103308D01*
X163786739Y-99883504D01*
X163690568Y-99677266D01*
X163639635Y-99604526D01*
X163560046Y-99490859D01*
X163399140Y-99329953D01*
X163212735Y-99199432D01*
X163006497Y-99103261D01*
X162786689Y-99044364D01*
X162560000Y-99024531D01*
X162333310Y-99044364D01*
X162113502Y-99103261D01*
X161907264Y-99199432D01*
X161720859Y-99329953D01*
X161559953Y-99490859D01*
X161429432Y-99677264D01*
X161333261Y-99883502D01*
X161274364Y-100103310D01*
X161254531Y-100330000D01*
X161274364Y-100556689D01*
X161333261Y-100776497D01*
X161429432Y-100982735D01*
X161559953Y-101169140D01*
X161720859Y-101330046D01*
X161881623Y-101442613D01*
X161920489Y-101486931D01*
X161934500Y-101544188D01*
X161934500Y-105099547D01*
X161925061Y-105147000D01*
X161898183Y-105187225D01*
X161734457Y-105350951D01*
X161704821Y-105380587D01*
X161649234Y-105412680D01*
X161585047Y-105412680D01*
X161516690Y-105394364D01*
X161289999Y-105374531D01*
X161063310Y-105394364D01*
X160843502Y-105453261D01*
X160637264Y-105549432D01*
X160450859Y-105679953D01*
X160289953Y-105840859D01*
X160159432Y-106027264D01*
X160063261Y-106233502D01*
X160004364Y-106453310D01*
X159984531Y-106680000D01*
X160004364Y-106906689D01*
X160063261Y-107126497D01*
X160159432Y-107332735D01*
X160289953Y-107519140D01*
X160450859Y-107680046D01*
X160637264Y-107810567D01*
X160637265Y-107810567D01*
X160637266Y-107810568D01*
X160843504Y-107906739D01*
X161063308Y-107965635D01*
X161290000Y-107985468D01*
X161516692Y-107965635D01*
X161585048Y-107947319D01*
X161649234Y-107947319D01*
X161704822Y-107979413D01*
X161753181Y-108027772D01*
X161780061Y-108068000D01*
X161789500Y-108115453D01*
X161789500Y-110386381D01*
X161776712Y-110441225D01*
X161740986Y-110484757D01*
X161689691Y-110507998D01*
X161633406Y-110506156D01*
X161540000Y-110481128D01*
X161540000Y-113038871D01*
X161633406Y-113013844D01*
X161689691Y-113012002D01*
X161740986Y-113035243D01*
X161776712Y-113078775D01*
X161789500Y-113133619D01*
X161789500Y-115404546D01*
X161780061Y-115451999D01*
X161753180Y-115492228D01*
X161704820Y-115540587D01*
X161649233Y-115572680D01*
X161585047Y-115572680D01*
X161516690Y-115554364D01*
X161289999Y-115534531D01*
X161063310Y-115554364D01*
X160843502Y-115613261D01*
X160637264Y-115709432D01*
X160450859Y-115839953D01*
X160289953Y-116000859D01*
X160159429Y-116187268D01*
X160152104Y-116202978D01*
X160106347Y-116255152D01*
X160039722Y-116274570D01*
X159973098Y-116255150D01*
X159927342Y-116202975D01*
X159920133Y-116187515D01*
X159869025Y-116114526D01*
X159143553Y-116840000D01*
X159143553Y-116840001D01*
X158436445Y-116840001D01*
X158436446Y-116840000D01*
X158436446Y-116839998D01*
X157710973Y-116114527D01*
X157659865Y-116187516D01*
X157563733Y-116393672D01*
X157504858Y-116613397D01*
X157485033Y-116840000D01*
X156205468Y-116840000D01*
X156185635Y-116613308D01*
X156126739Y-116393504D01*
X156030568Y-116187266D01*
X156004729Y-116150364D01*
X155900046Y-116000859D01*
X155739140Y-115839953D01*
X155626344Y-115760973D01*
X158064526Y-115760973D01*
X158790000Y-116486446D01*
X158790001Y-116486446D01*
X159515472Y-115760974D01*
X159515471Y-115760972D01*
X159442484Y-115709866D01*
X159236326Y-115613733D01*
X159016602Y-115554858D01*
X158790000Y-115535033D01*
X158563397Y-115554858D01*
X158343672Y-115613733D01*
X158137516Y-115709865D01*
X158064527Y-115760973D01*
X158064526Y-115760973D01*
X155626344Y-115760973D01*
X155552735Y-115709432D01*
X155346497Y-115613261D01*
X155126689Y-115554364D01*
X154900000Y-115534531D01*
X154673310Y-115554364D01*
X154453502Y-115613261D01*
X154247264Y-115709432D01*
X154060859Y-115839953D01*
X153899953Y-116000859D01*
X153769432Y-116187264D01*
X153673261Y-116393502D01*
X153614364Y-116613310D01*
X153594531Y-116839999D01*
X151205468Y-116839999D01*
X151185635Y-116613308D01*
X151167319Y-116544950D01*
X151167319Y-116480763D01*
X151199411Y-116425178D01*
X154053789Y-113570800D01*
X154069885Y-113557906D01*
X154071873Y-113555787D01*
X154071877Y-113555786D01*
X154117948Y-113506723D01*
X154120566Y-113504023D01*
X154140120Y-113484471D01*
X154142581Y-113481298D01*
X154150156Y-113472427D01*
X154180062Y-113440582D01*
X154189717Y-113423018D01*
X154200394Y-113406764D01*
X154212673Y-113390936D01*
X154230018Y-113350852D01*
X154235160Y-113340356D01*
X154256197Y-113302092D01*
X154261179Y-113282684D01*
X154267481Y-113264280D01*
X154275437Y-113245896D01*
X154282269Y-113202752D01*
X154284633Y-113191338D01*
X154295500Y-113149019D01*
X154295500Y-113128984D01*
X154297027Y-113109585D01*
X154297068Y-113109321D01*
X154300160Y-113089804D01*
X154296050Y-113046325D01*
X154295500Y-113034656D01*
X154295500Y-112974188D01*
X154309511Y-112916931D01*
X154348377Y-112872613D01*
X154474622Y-112784216D01*
X154509139Y-112760047D01*
X154670047Y-112599139D01*
X154800568Y-112412734D01*
X154896739Y-112206496D01*
X154949390Y-112010000D01*
X160011128Y-112010000D01*
X160063733Y-112206326D01*
X160159865Y-112412480D01*
X160290341Y-112598819D01*
X160451180Y-112759658D01*
X160637519Y-112890134D01*
X160843673Y-112986266D01*
X161039999Y-113038871D01*
X161040000Y-113038872D01*
X161040000Y-112010000D01*
X160011128Y-112010000D01*
X154949390Y-112010000D01*
X154955635Y-111986692D01*
X154975468Y-111760000D01*
X154955635Y-111533308D01*
X154949390Y-111510000D01*
X160011128Y-111510000D01*
X161040000Y-111510000D01*
X161040000Y-110481128D01*
X161039999Y-110481128D01*
X160843673Y-110533733D01*
X160637519Y-110629865D01*
X160451180Y-110760341D01*
X160290341Y-110921180D01*
X160159865Y-111107519D01*
X160063733Y-111313673D01*
X160011128Y-111509999D01*
X160011128Y-111510000D01*
X154949390Y-111510000D01*
X154937319Y-111464951D01*
X154937319Y-111400763D01*
X154969411Y-111345178D01*
X155323789Y-110990800D01*
X155339885Y-110977906D01*
X155341873Y-110975787D01*
X155341877Y-110975786D01*
X155387948Y-110926723D01*
X155390566Y-110924023D01*
X155410120Y-110904471D01*
X155412581Y-110901298D01*
X155420156Y-110892427D01*
X155450062Y-110860582D01*
X155459717Y-110843018D01*
X155470394Y-110826764D01*
X155482673Y-110810936D01*
X155500018Y-110770852D01*
X155505160Y-110760356D01*
X155526197Y-110722092D01*
X155531179Y-110702684D01*
X155537481Y-110684280D01*
X155545437Y-110665896D01*
X155552269Y-110622752D01*
X155554633Y-110611338D01*
X155565500Y-110569019D01*
X155565500Y-110548984D01*
X155567027Y-110529585D01*
X155569937Y-110511209D01*
X155570160Y-110509804D01*
X155566050Y-110466325D01*
X155565500Y-110454656D01*
X155565500Y-101544188D01*
X155579511Y-101486931D01*
X155618377Y-101442613D01*
X155779140Y-101330046D01*
X155940046Y-101169140D01*
X156019636Y-101055472D01*
X156070568Y-100982734D01*
X156166739Y-100776496D01*
X156225635Y-100556692D01*
X156245468Y-100330000D01*
X156225635Y-100103308D01*
X156166739Y-99883504D01*
X156070568Y-99677266D01*
X156019635Y-99604526D01*
X155940046Y-99490859D01*
X155779140Y-99329953D01*
X155592735Y-99199432D01*
X155386497Y-99103261D01*
X155166689Y-99044364D01*
X154940000Y-99024531D01*
X154713310Y-99044364D01*
X154493502Y-99103261D01*
X154287264Y-99199432D01*
X154100859Y-99329953D01*
X153939953Y-99490859D01*
X153827387Y-99651623D01*
X153783069Y-99690489D01*
X153725812Y-99704500D01*
X152604499Y-99704500D01*
X152542499Y-99687887D01*
X152497112Y-99642500D01*
X152480499Y-99580500D01*
X152480499Y-99432130D01*
X152480499Y-99432127D01*
X152474091Y-99372517D01*
X152423796Y-99237669D01*
X152337546Y-99122454D01*
X152222331Y-99036204D01*
X152087483Y-98985909D01*
X152027873Y-98979500D01*
X152027869Y-98979500D01*
X150715453Y-98979500D01*
X150668000Y-98970061D01*
X150627772Y-98943181D01*
X150455802Y-98771211D01*
X150442906Y-98755113D01*
X150391775Y-98707098D01*
X150388978Y-98704387D01*
X150369470Y-98684879D01*
X150366290Y-98682412D01*
X150357424Y-98674839D01*
X150325582Y-98644938D01*
X150308024Y-98635285D01*
X150291764Y-98624604D01*
X150275936Y-98612327D01*
X150235851Y-98594980D01*
X150225361Y-98589841D01*
X150187091Y-98568802D01*
X150167691Y-98563821D01*
X150149284Y-98557519D01*
X150130897Y-98549562D01*
X150087758Y-98542729D01*
X150076324Y-98540361D01*
X150034019Y-98529500D01*
X150013984Y-98529500D01*
X149994586Y-98527973D01*
X149987162Y-98526797D01*
X149974805Y-98524840D01*
X149974804Y-98524840D01*
X149949468Y-98527235D01*
X149931325Y-98528950D01*
X149919656Y-98529500D01*
X138417744Y-98529500D01*
X138397236Y-98527235D01*
X138327113Y-98529439D01*
X138323219Y-98529500D01*
X138295650Y-98529500D01*
X138291671Y-98530002D01*
X138280041Y-98530917D01*
X138236372Y-98532289D01*
X138217128Y-98537880D01*
X138198084Y-98541824D01*
X138178208Y-98544335D01*
X138137600Y-98560413D01*
X138126554Y-98564194D01*
X138084610Y-98576382D01*
X138084607Y-98576383D01*
X138067365Y-98586579D01*
X138049904Y-98595133D01*
X138031267Y-98602512D01*
X137995931Y-98628185D01*
X137986174Y-98634595D01*
X137948580Y-98656829D01*
X137934413Y-98670996D01*
X137919624Y-98683626D01*
X137903413Y-98695404D01*
X137875572Y-98729058D01*
X137867711Y-98737697D01*
X132504821Y-104100586D01*
X132449234Y-104132680D01*
X132385047Y-104132680D01*
X132316690Y-104114364D01*
X132089999Y-104094531D01*
X131863310Y-104114364D01*
X131643502Y-104173261D01*
X131437264Y-104269432D01*
X131250859Y-104399953D01*
X131089953Y-104560859D01*
X130959433Y-104747263D01*
X130932382Y-104805275D01*
X130886625Y-104857450D01*
X130820000Y-104876869D01*
X130753375Y-104857450D01*
X130707618Y-104805275D01*
X130685230Y-104757264D01*
X130680568Y-104747266D01*
X130582556Y-104607289D01*
X130550046Y-104560859D01*
X130389140Y-104399953D01*
X130202735Y-104269432D01*
X129996497Y-104173261D01*
X129776689Y-104114364D01*
X129550000Y-104094531D01*
X129323307Y-104114364D01*
X129254950Y-104132680D01*
X129190764Y-104132680D01*
X129135177Y-104100586D01*
X127661819Y-102627228D01*
X127634939Y-102587000D01*
X127625500Y-102539547D01*
X127625500Y-101804499D01*
X127642113Y-101742499D01*
X127687500Y-101697112D01*
X127749500Y-101680499D01*
X127897870Y-101680499D01*
X127897872Y-101680499D01*
X127957483Y-101674091D01*
X128092331Y-101623796D01*
X128207546Y-101537546D01*
X128293796Y-101422331D01*
X128344091Y-101287483D01*
X128350500Y-101227873D01*
X128350499Y-100580000D01*
X129460000Y-100580000D01*
X129460000Y-101227824D01*
X129466402Y-101287375D01*
X129516647Y-101422089D01*
X129602811Y-101537188D01*
X129717910Y-101623352D01*
X129852624Y-101673597D01*
X129912176Y-101680000D01*
X130560000Y-101680000D01*
X130560000Y-100580000D01*
X131060000Y-100580000D01*
X131060000Y-101680000D01*
X131707824Y-101680000D01*
X131767375Y-101673597D01*
X131902089Y-101623352D01*
X132017188Y-101537188D01*
X132103352Y-101422089D01*
X132153597Y-101287375D01*
X132160000Y-101227824D01*
X132160000Y-100580000D01*
X131060000Y-100580000D01*
X130560000Y-100580000D01*
X129460000Y-100580000D01*
X128350499Y-100580000D01*
X128350499Y-100080000D01*
X129460000Y-100080000D01*
X130560000Y-100080000D01*
X130560000Y-98980000D01*
X131060000Y-98980000D01*
X131060000Y-100080000D01*
X132160000Y-100080000D01*
X132160000Y-99432176D01*
X132153597Y-99372624D01*
X132103352Y-99237910D01*
X132017188Y-99122811D01*
X131902089Y-99036647D01*
X131767375Y-98986402D01*
X131707824Y-98980000D01*
X131060000Y-98980000D01*
X130560000Y-98980000D01*
X129912176Y-98980000D01*
X129852624Y-98986402D01*
X129717910Y-99036647D01*
X129602811Y-99122811D01*
X129516647Y-99237910D01*
X129466402Y-99372624D01*
X129460000Y-99432176D01*
X129460000Y-100080000D01*
X128350499Y-100080000D01*
X128350499Y-99432128D01*
X128344091Y-99372517D01*
X128293796Y-99237669D01*
X128207546Y-99122454D01*
X128092331Y-99036204D01*
X127957483Y-98985909D01*
X127897873Y-98979500D01*
X127897869Y-98979500D01*
X126102130Y-98979500D01*
X126042515Y-98985909D01*
X125907669Y-99036204D01*
X125792454Y-99122454D01*
X125706204Y-99237668D01*
X125655909Y-99372516D01*
X125649500Y-99432130D01*
X125649500Y-101227869D01*
X125655897Y-101287375D01*
X125655909Y-101287483D01*
X125706204Y-101422331D01*
X125792454Y-101537546D01*
X125907669Y-101623796D01*
X126042517Y-101674091D01*
X126102127Y-101680500D01*
X126250500Y-101680500D01*
X126312500Y-101697113D01*
X126357887Y-101742500D01*
X126374500Y-101804500D01*
X126374500Y-102767256D01*
X126372235Y-102787762D01*
X126374439Y-102857873D01*
X126374500Y-102861768D01*
X126374500Y-102889349D01*
X126375003Y-102893334D01*
X126375918Y-102904967D01*
X126377290Y-102948626D01*
X126382879Y-102967860D01*
X126386825Y-102986916D01*
X126389335Y-103006792D01*
X126405414Y-103047404D01*
X126409197Y-103058451D01*
X126421382Y-103100391D01*
X126431580Y-103117635D01*
X126440136Y-103135100D01*
X126447514Y-103153732D01*
X126447515Y-103153733D01*
X126473180Y-103189059D01*
X126479593Y-103198822D01*
X126501826Y-103236416D01*
X126501829Y-103236419D01*
X126501830Y-103236420D01*
X126515995Y-103250585D01*
X126528627Y-103265375D01*
X126540406Y-103281587D01*
X126574058Y-103309426D01*
X126582699Y-103317289D01*
X127152591Y-103887181D01*
X127183492Y-103938608D01*
X127186632Y-103998522D01*
X127161276Y-104052898D01*
X127113361Y-104089005D01*
X127054103Y-104098390D01*
X127009999Y-104094531D01*
X126783310Y-104114364D01*
X126563502Y-104173261D01*
X126357264Y-104269432D01*
X126170859Y-104399953D01*
X126009953Y-104560859D01*
X125879432Y-104747264D01*
X125783261Y-104953502D01*
X125724364Y-105173310D01*
X125704531Y-105399999D01*
X125724364Y-105626689D01*
X125783261Y-105846497D01*
X125879432Y-106052735D01*
X126009953Y-106239140D01*
X126170859Y-106400046D01*
X126357264Y-106530567D01*
X126357265Y-106530567D01*
X126357266Y-106530568D01*
X126563504Y-106626739D01*
X126783308Y-106685635D01*
X126934435Y-106698856D01*
X127009999Y-106705468D01*
X127009999Y-106705467D01*
X127010000Y-106705468D01*
X127021299Y-106704479D01*
X127054100Y-106701610D01*
X127113358Y-106710995D01*
X127161274Y-106747102D01*
X127186630Y-106801478D01*
X127183490Y-106861392D01*
X127152589Y-106912819D01*
X125507228Y-108558181D01*
X125467000Y-108585061D01*
X125419547Y-108594500D01*
X124539019Y-108594500D01*
X124530849Y-108594500D01*
X124507615Y-108592304D01*
X124499587Y-108590772D01*
X124444241Y-108594255D01*
X124436455Y-108594500D01*
X123134188Y-108594500D01*
X123076931Y-108580489D01*
X123032613Y-108541623D01*
X122920046Y-108380859D01*
X122759140Y-108219953D01*
X122572735Y-108089432D01*
X122366497Y-107993261D01*
X122146689Y-107934364D01*
X121920000Y-107914531D01*
X121693310Y-107934364D01*
X121473502Y-107993261D01*
X121267264Y-108089432D01*
X121080859Y-108219953D01*
X120919953Y-108380859D01*
X120789432Y-108567264D01*
X120693261Y-108773502D01*
X120634364Y-108993310D01*
X120614531Y-109219999D01*
X120634364Y-109446689D01*
X120693261Y-109666497D01*
X120789432Y-109872735D01*
X120919953Y-110059140D01*
X121080859Y-110220046D01*
X121267264Y-110350567D01*
X121267265Y-110350567D01*
X121267266Y-110350568D01*
X121473504Y-110446739D01*
X121693308Y-110505635D01*
X121920000Y-110525468D01*
X122146692Y-110505635D01*
X122366496Y-110446739D01*
X122572734Y-110350568D01*
X122759139Y-110220047D01*
X122920047Y-110059139D01*
X122982812Y-109969500D01*
X123032613Y-109898377D01*
X123076931Y-109859511D01*
X123134188Y-109845500D01*
X123710500Y-109845500D01*
X123772500Y-109862113D01*
X123817887Y-109907500D01*
X123834500Y-109969500D01*
X123834500Y-119297256D01*
X123832235Y-119317762D01*
X123834439Y-119387873D01*
X123834500Y-119391768D01*
X123834500Y-119419349D01*
X123835003Y-119423334D01*
X123835918Y-119434967D01*
X123837290Y-119478626D01*
X123842879Y-119497860D01*
X123846825Y-119516916D01*
X123849335Y-119536792D01*
X123865414Y-119577404D01*
X123869197Y-119588451D01*
X123881382Y-119630391D01*
X123891580Y-119647635D01*
X123900136Y-119665100D01*
X123907514Y-119683732D01*
X123907515Y-119683733D01*
X123933180Y-119719059D01*
X123939593Y-119728822D01*
X123961826Y-119766416D01*
X123961829Y-119766419D01*
X123961830Y-119766420D01*
X123975995Y-119780585D01*
X123988627Y-119795375D01*
X124000406Y-119811587D01*
X124034058Y-119839426D01*
X124042699Y-119847289D01*
X125229196Y-121033787D01*
X125242096Y-121049888D01*
X125244213Y-121051876D01*
X125244214Y-121051877D01*
X125291547Y-121096326D01*
X125293223Y-121097900D01*
X125296019Y-121100610D01*
X125315529Y-121120120D01*
X125318711Y-121122588D01*
X125327571Y-121130155D01*
X125359418Y-121160062D01*
X125376970Y-121169711D01*
X125393238Y-121180397D01*
X125409064Y-121192673D01*
X125449146Y-121210017D01*
X125459633Y-121215155D01*
X125497907Y-121236197D01*
X125506410Y-121238379D01*
X125517308Y-121241178D01*
X125535713Y-121247478D01*
X125554104Y-121255437D01*
X125597250Y-121262270D01*
X125608668Y-121264635D01*
X125650981Y-121275500D01*
X125670951Y-121275500D01*
X125730594Y-121290786D01*
X125775532Y-121332875D01*
X125794686Y-121391390D01*
X125783333Y-121451905D01*
X125773261Y-121473502D01*
X125714364Y-121693310D01*
X125694531Y-121919999D01*
X125714364Y-122146690D01*
X125732680Y-122215047D01*
X125732680Y-122279234D01*
X125700586Y-122334821D01*
X122967228Y-125068181D01*
X122927000Y-125095061D01*
X122879547Y-125104500D01*
X111521749Y-125104500D01*
X111501245Y-125102236D01*
X111431153Y-125104439D01*
X111427259Y-125104500D01*
X111399657Y-125104500D01*
X111395662Y-125105004D01*
X111384038Y-125105918D01*
X111340377Y-125107290D01*
X111321138Y-125112880D01*
X111302089Y-125116825D01*
X111282217Y-125119335D01*
X111241602Y-125135415D01*
X111230558Y-125139196D01*
X111188620Y-125151382D01*
X111171373Y-125161581D01*
X111153909Y-125170136D01*
X111135276Y-125177514D01*
X111099935Y-125203189D01*
X111090177Y-125209599D01*
X111052588Y-125231829D01*
X111038419Y-125245998D01*
X111023631Y-125258628D01*
X111007422Y-125270405D01*
X110979581Y-125304058D01*
X110971720Y-125312696D01*
X110106208Y-126178208D01*
X110090110Y-126191105D01*
X110042096Y-126242234D01*
X110039391Y-126245026D01*
X110019874Y-126264543D01*
X110017415Y-126267714D01*
X110009842Y-126276581D01*
X109979935Y-126308429D01*
X109970285Y-126325983D01*
X109959609Y-126342237D01*
X109947326Y-126358072D01*
X109929975Y-126398167D01*
X109924838Y-126408653D01*
X109903802Y-126446916D01*
X109898821Y-126466318D01*
X109892520Y-126484720D01*
X109884561Y-126503111D01*
X109877728Y-126546251D01*
X109875360Y-126557683D01*
X109864500Y-126599987D01*
X109864500Y-126620025D01*
X109862973Y-126639424D01*
X109859840Y-126659203D01*
X109863950Y-126702684D01*
X109864500Y-126714353D01*
X109864500Y-129000547D01*
X109850985Y-129056842D01*
X109813385Y-129100865D01*
X109759898Y-129123020D01*
X109702182Y-129118478D01*
X109652819Y-129088228D01*
X109634470Y-129069879D01*
X109631290Y-129067412D01*
X109622424Y-129059839D01*
X109590582Y-129029938D01*
X109573024Y-129020285D01*
X109556764Y-129009604D01*
X109540936Y-128997327D01*
X109500851Y-128979980D01*
X109490361Y-128974841D01*
X109452091Y-128953802D01*
X109432691Y-128948821D01*
X109414284Y-128942519D01*
X109395897Y-128934562D01*
X109352758Y-128927729D01*
X109341324Y-128925361D01*
X109299019Y-128914500D01*
X109278984Y-128914500D01*
X109259586Y-128912973D01*
X109252162Y-128911797D01*
X109239805Y-128909840D01*
X109239804Y-128909840D01*
X109206751Y-128912964D01*
X109196325Y-128913950D01*
X109184656Y-128914500D01*
X107894188Y-128914500D01*
X107836931Y-128900489D01*
X107792613Y-128861623D01*
X107680046Y-128700859D01*
X107519140Y-128539953D01*
X107332735Y-128409432D01*
X107126497Y-128313261D01*
X106906689Y-128254364D01*
X106680000Y-128234531D01*
X106453310Y-128254364D01*
X106233502Y-128313261D01*
X106027264Y-128409432D01*
X105840859Y-128539953D01*
X105679953Y-128700859D01*
X105549432Y-128887264D01*
X105453261Y-129093502D01*
X105394364Y-129313310D01*
X105374531Y-129540000D01*
X102870500Y-129540000D01*
X102870500Y-124269026D01*
X116424526Y-124269026D01*
X116497515Y-124320133D01*
X116703673Y-124416266D01*
X116923397Y-124475141D01*
X117150000Y-124494966D01*
X117376602Y-124475141D01*
X117596326Y-124416266D01*
X117802480Y-124320134D01*
X117875472Y-124269025D01*
X117150001Y-123543553D01*
X117150000Y-123543553D01*
X116424526Y-124269025D01*
X116424526Y-124269026D01*
X102870500Y-124269026D01*
X102870500Y-121919999D01*
X105374531Y-121919999D01*
X105394364Y-122146689D01*
X105453261Y-122366497D01*
X105549432Y-122572735D01*
X105679953Y-122759140D01*
X105840859Y-122920046D01*
X106027264Y-123050567D01*
X106027265Y-123050567D01*
X106027266Y-123050568D01*
X106233504Y-123146739D01*
X106453308Y-123205635D01*
X106680000Y-123225468D01*
X106906692Y-123205635D01*
X107126496Y-123146739D01*
X107332734Y-123050568D01*
X107519139Y-122920047D01*
X107680047Y-122759139D01*
X107810568Y-122572734D01*
X107906739Y-122366496D01*
X107965635Y-122146692D01*
X107985468Y-121920000D01*
X107965635Y-121693308D01*
X107947319Y-121624951D01*
X107947319Y-121560763D01*
X107979411Y-121505178D01*
X111345178Y-118139411D01*
X111400763Y-118107319D01*
X111464951Y-118107319D01*
X111472531Y-118109350D01*
X111533308Y-118125635D01*
X111760000Y-118145468D01*
X111986692Y-118125635D01*
X112206496Y-118066739D01*
X112412734Y-117970568D01*
X112599139Y-117840047D01*
X112760047Y-117679139D01*
X112890568Y-117492734D01*
X112917618Y-117434724D01*
X112963375Y-117382549D01*
X113030000Y-117363129D01*
X113096625Y-117382549D01*
X113142382Y-117434725D01*
X113169431Y-117492733D01*
X113299953Y-117679140D01*
X113460859Y-117840046D01*
X113621623Y-117952613D01*
X113660489Y-117996931D01*
X113674500Y-118054188D01*
X113674500Y-119149547D01*
X113665061Y-119197000D01*
X113638181Y-119237228D01*
X112174821Y-120700586D01*
X112119234Y-120732680D01*
X112055047Y-120732680D01*
X111986690Y-120714364D01*
X111759999Y-120694531D01*
X111533310Y-120714364D01*
X111313502Y-120773261D01*
X111107264Y-120869432D01*
X110920859Y-120999953D01*
X110759953Y-121160859D01*
X110629432Y-121347264D01*
X110533261Y-121553502D01*
X110474364Y-121773310D01*
X110454531Y-122000000D01*
X110474364Y-122226689D01*
X110533261Y-122446497D01*
X110629432Y-122652735D01*
X110759953Y-122839140D01*
X110920859Y-123000046D01*
X111107264Y-123130567D01*
X111107265Y-123130567D01*
X111107266Y-123130568D01*
X111313504Y-123226739D01*
X111533308Y-123285635D01*
X111760000Y-123305468D01*
X111986692Y-123285635D01*
X112206496Y-123226739D01*
X112285283Y-123190000D01*
X115845033Y-123190000D01*
X115864858Y-123416602D01*
X115923733Y-123636326D01*
X116019866Y-123842484D01*
X116070972Y-123915471D01*
X116070973Y-123915472D01*
X116796446Y-123190000D01*
X116796446Y-123189999D01*
X117503553Y-123189999D01*
X118229025Y-123915472D01*
X118280134Y-123842480D01*
X118376266Y-123636326D01*
X118435141Y-123416602D01*
X118454966Y-123190000D01*
X118435141Y-122963397D01*
X118376266Y-122743673D01*
X118280133Y-122537515D01*
X118229025Y-122464526D01*
X117503553Y-123189998D01*
X117503553Y-123189999D01*
X116796446Y-123189999D01*
X116796446Y-123189998D01*
X116070973Y-122464527D01*
X116019865Y-122537516D01*
X115923733Y-122743672D01*
X115864858Y-122963397D01*
X115845033Y-123190000D01*
X112285283Y-123190000D01*
X112412734Y-123130568D01*
X112599139Y-123000047D01*
X112760047Y-122839139D01*
X112890568Y-122652734D01*
X112986739Y-122446496D01*
X113045635Y-122226692D01*
X113055759Y-122110973D01*
X116424526Y-122110973D01*
X117150000Y-122836446D01*
X117150001Y-122836446D01*
X117875472Y-122110974D01*
X117875471Y-122110972D01*
X117802484Y-122059866D01*
X117596326Y-121963733D01*
X117376602Y-121904858D01*
X117150000Y-121885033D01*
X116923397Y-121904858D01*
X116703672Y-121963733D01*
X116497516Y-122059865D01*
X116424527Y-122110973D01*
X116424526Y-122110973D01*
X113055759Y-122110973D01*
X113065468Y-122000000D01*
X113045635Y-121773308D01*
X113027319Y-121704951D01*
X113027319Y-121640763D01*
X113059411Y-121585178D01*
X114683789Y-119960800D01*
X114699885Y-119947906D01*
X114701873Y-119945787D01*
X114701877Y-119945786D01*
X114747948Y-119896723D01*
X114750566Y-119894023D01*
X114770120Y-119874471D01*
X114772581Y-119871298D01*
X114780156Y-119862427D01*
X114810062Y-119830582D01*
X114819717Y-119813018D01*
X114830394Y-119796764D01*
X114842673Y-119780936D01*
X114860018Y-119740852D01*
X114865160Y-119730356D01*
X114886197Y-119692092D01*
X114891179Y-119672684D01*
X114897481Y-119654280D01*
X114905437Y-119635896D01*
X114912269Y-119592752D01*
X114914633Y-119581338D01*
X114925500Y-119539019D01*
X114925500Y-119518984D01*
X114927027Y-119499585D01*
X114928059Y-119493069D01*
X114930160Y-119479804D01*
X114926050Y-119436325D01*
X114925500Y-119424656D01*
X114925500Y-118054188D01*
X114939511Y-117996931D01*
X114978377Y-117952613D01*
X115129209Y-117847000D01*
X115139139Y-117840047D01*
X115300047Y-117679139D01*
X115430568Y-117492734D01*
X115457618Y-117434724D01*
X115503375Y-117382549D01*
X115570000Y-117363129D01*
X115636625Y-117382549D01*
X115682382Y-117434725D01*
X115709431Y-117492733D01*
X115839953Y-117679140D01*
X116000859Y-117840046D01*
X116187264Y-117970567D01*
X116187265Y-117970567D01*
X116187266Y-117970568D01*
X116393504Y-118066739D01*
X116613308Y-118125635D01*
X116840000Y-118145468D01*
X117066692Y-118125635D01*
X117286496Y-118066739D01*
X117492734Y-117970568D01*
X117679139Y-117840047D01*
X117840047Y-117679139D01*
X117919637Y-117565472D01*
X117952613Y-117518377D01*
X117996931Y-117479511D01*
X118054188Y-117465500D01*
X120705812Y-117465500D01*
X120763069Y-117479511D01*
X120807387Y-117518377D01*
X120919953Y-117679140D01*
X121080859Y-117840046D01*
X121241623Y-117952613D01*
X121280489Y-117996931D01*
X121294500Y-118054188D01*
X121294500Y-121609547D01*
X121285061Y-121657000D01*
X121258183Y-121697225D01*
X121102224Y-121853183D01*
X121061999Y-121880061D01*
X121014546Y-121889500D01*
X119802130Y-121889500D01*
X119742515Y-121895909D01*
X119607669Y-121946204D01*
X119492454Y-122032454D01*
X119406204Y-122147668D01*
X119355909Y-122282515D01*
X119355909Y-122282517D01*
X119351620Y-122322414D01*
X119349500Y-122342130D01*
X119349500Y-124037869D01*
X119355909Y-124097484D01*
X119377924Y-124156509D01*
X119406204Y-124232331D01*
X119492454Y-124347546D01*
X119607669Y-124433796D01*
X119742517Y-124484091D01*
X119802127Y-124490500D01*
X121497872Y-124490499D01*
X121557483Y-124484091D01*
X121692331Y-124433796D01*
X121807546Y-124347546D01*
X121893796Y-124232331D01*
X121944091Y-124097483D01*
X121950500Y-124037873D01*
X121950499Y-122825451D01*
X121959938Y-122777999D01*
X121986815Y-122737774D01*
X122303789Y-122420800D01*
X122319885Y-122407906D01*
X122321873Y-122405787D01*
X122321877Y-122405786D01*
X122367948Y-122356723D01*
X122370566Y-122354023D01*
X122390120Y-122334471D01*
X122392581Y-122331298D01*
X122400156Y-122322427D01*
X122430062Y-122290582D01*
X122439717Y-122273018D01*
X122450394Y-122256764D01*
X122462673Y-122240936D01*
X122480018Y-122200852D01*
X122485160Y-122190356D01*
X122506197Y-122152092D01*
X122511179Y-122132684D01*
X122517481Y-122114280D01*
X122525437Y-122095896D01*
X122532269Y-122052752D01*
X122534633Y-122041338D01*
X122545500Y-121999019D01*
X122545500Y-121978984D01*
X122547027Y-121959585D01*
X122549146Y-121946204D01*
X122550160Y-121939804D01*
X122546050Y-121896325D01*
X122545500Y-121884656D01*
X122545500Y-118054188D01*
X122559511Y-117996931D01*
X122598377Y-117952613D01*
X122749209Y-117847000D01*
X122759139Y-117840047D01*
X122920047Y-117679139D01*
X123050568Y-117492734D01*
X123146739Y-117286496D01*
X123205635Y-117066692D01*
X123225468Y-116840000D01*
X123205635Y-116613308D01*
X123146739Y-116393504D01*
X123050568Y-116187266D01*
X123024729Y-116150364D01*
X122920046Y-116000859D01*
X122759140Y-115839953D01*
X122572735Y-115709432D01*
X122366497Y-115613261D01*
X122146689Y-115554364D01*
X121920000Y-115534531D01*
X121693310Y-115554364D01*
X121473502Y-115613261D01*
X121267264Y-115709432D01*
X121080859Y-115839953D01*
X120919953Y-116000859D01*
X120807387Y-116161623D01*
X120763069Y-116200489D01*
X120705812Y-116214500D01*
X118054188Y-116214500D01*
X117996931Y-116200489D01*
X117952613Y-116161623D01*
X117840046Y-116000859D01*
X117679140Y-115839953D01*
X117492735Y-115709432D01*
X117286497Y-115613261D01*
X117066689Y-115554364D01*
X116840000Y-115534531D01*
X116613310Y-115554364D01*
X116393502Y-115613261D01*
X116187264Y-115709432D01*
X116000859Y-115839953D01*
X115839953Y-116000859D01*
X115709433Y-116187263D01*
X115682382Y-116245275D01*
X115636625Y-116297450D01*
X115570000Y-116316869D01*
X115503375Y-116297450D01*
X115457618Y-116245275D01*
X115443876Y-116215805D01*
X115430568Y-116187266D01*
X115404729Y-116150364D01*
X115300046Y-116000859D01*
X115139140Y-115839953D01*
X114952735Y-115709432D01*
X114746497Y-115613261D01*
X114526689Y-115554364D01*
X114300000Y-115534531D01*
X114073310Y-115554364D01*
X113853502Y-115613261D01*
X113647264Y-115709432D01*
X113460859Y-115839953D01*
X113299953Y-116000859D01*
X113169433Y-116187263D01*
X113142382Y-116245275D01*
X113096625Y-116297450D01*
X113030000Y-116316869D01*
X112963375Y-116297450D01*
X112917618Y-116245275D01*
X112903876Y-116215805D01*
X112890568Y-116187266D01*
X112864729Y-116150364D01*
X112760046Y-116000859D01*
X112599140Y-115839953D01*
X112412735Y-115709432D01*
X112206497Y-115613261D01*
X111986689Y-115554364D01*
X111760000Y-115534531D01*
X111533310Y-115554364D01*
X111313502Y-115613261D01*
X111107264Y-115709432D01*
X110920859Y-115839953D01*
X110759951Y-116000861D01*
X110742725Y-116025463D01*
X110697882Y-116064600D01*
X110639969Y-116078333D01*
X110582328Y-116063499D01*
X110538239Y-116023514D01*
X110517861Y-115967592D01*
X110514091Y-115932517D01*
X110463796Y-115797669D01*
X110377546Y-115682454D01*
X110262331Y-115596204D01*
X110127483Y-115545909D01*
X110067873Y-115539500D01*
X110067869Y-115539500D01*
X108372130Y-115539500D01*
X108312515Y-115545909D01*
X108177669Y-115596204D01*
X108062454Y-115682454D01*
X107976204Y-115797668D01*
X107925909Y-115932515D01*
X107925909Y-115932517D01*
X107919677Y-115990488D01*
X107919500Y-115992130D01*
X107919500Y-117687869D01*
X107925909Y-117747484D01*
X107945328Y-117799547D01*
X107976204Y-117882331D01*
X108062454Y-117997546D01*
X108177669Y-118083796D01*
X108312517Y-118134091D01*
X108372127Y-118140500D01*
X109275548Y-118140499D01*
X109331842Y-118154014D01*
X109375865Y-118191614D01*
X109398020Y-118245101D01*
X109393478Y-118302817D01*
X109363228Y-118352180D01*
X107094821Y-120620586D01*
X107039234Y-120652680D01*
X106975047Y-120652680D01*
X106906690Y-120634364D01*
X106679999Y-120614531D01*
X106453310Y-120634364D01*
X106233502Y-120693261D01*
X106027264Y-120789432D01*
X105840859Y-120919953D01*
X105679953Y-121080859D01*
X105549432Y-121267264D01*
X105453261Y-121473502D01*
X105394364Y-121693310D01*
X105374531Y-121919999D01*
X102870500Y-121919999D01*
X102870500Y-109219999D01*
X107914531Y-109219999D01*
X107934364Y-109446689D01*
X107993261Y-109666497D01*
X108089432Y-109872735D01*
X108219953Y-110059140D01*
X108380859Y-110220046D01*
X108567264Y-110350567D01*
X108567265Y-110350567D01*
X108567266Y-110350568D01*
X108773504Y-110446739D01*
X108993308Y-110505635D01*
X109220000Y-110525468D01*
X109446692Y-110505635D01*
X109666496Y-110446739D01*
X109872734Y-110350568D01*
X110059139Y-110220047D01*
X110220047Y-110059139D01*
X110350568Y-109872734D01*
X110377893Y-109814134D01*
X110423649Y-109761959D01*
X110490274Y-109742539D01*
X110556899Y-109761958D01*
X110602657Y-109814133D01*
X110629866Y-109872482D01*
X110760341Y-110058819D01*
X110921180Y-110219658D01*
X111107519Y-110350134D01*
X111313673Y-110446266D01*
X111509999Y-110498871D01*
X111510000Y-110498872D01*
X111510000Y-107941128D01*
X111509999Y-107941128D01*
X111313673Y-107993733D01*
X111107519Y-108089865D01*
X110921180Y-108220341D01*
X110760341Y-108381180D01*
X110629863Y-108567522D01*
X110602656Y-108625866D01*
X110556899Y-108678041D01*
X110490274Y-108697460D01*
X110423650Y-108678040D01*
X110377893Y-108625865D01*
X110363267Y-108594500D01*
X110350568Y-108567266D01*
X110220270Y-108381180D01*
X110220046Y-108380859D01*
X110059140Y-108219953D01*
X109872735Y-108089432D01*
X109666497Y-107993261D01*
X109446689Y-107934364D01*
X109220000Y-107914531D01*
X108993310Y-107934364D01*
X108773502Y-107993261D01*
X108567264Y-108089432D01*
X108380859Y-108219953D01*
X108219953Y-108380859D01*
X108089432Y-108567264D01*
X107993261Y-108773502D01*
X107934364Y-108993310D01*
X107914531Y-109219999D01*
X102870500Y-109219999D01*
X102870500Y-101227869D01*
X107869500Y-101227869D01*
X107875897Y-101287375D01*
X107875909Y-101287483D01*
X107926204Y-101422331D01*
X108012454Y-101537546D01*
X108127669Y-101623796D01*
X108262517Y-101674091D01*
X108322127Y-101680500D01*
X108470500Y-101680500D01*
X108532500Y-101697113D01*
X108577887Y-101742500D01*
X108594500Y-101804500D01*
X108594500Y-104195812D01*
X108580489Y-104253069D01*
X108541623Y-104297387D01*
X108380859Y-104409953D01*
X108219953Y-104570859D01*
X108089432Y-104757264D01*
X107993261Y-104963502D01*
X107934364Y-105183310D01*
X107914531Y-105409999D01*
X107934364Y-105636689D01*
X107993261Y-105856497D01*
X108089432Y-106062735D01*
X108219953Y-106249140D01*
X108380859Y-106410046D01*
X108567264Y-106540567D01*
X108567265Y-106540567D01*
X108567266Y-106540568D01*
X108773504Y-106636739D01*
X108993308Y-106695635D01*
X109220000Y-106715468D01*
X109446692Y-106695635D01*
X109666496Y-106636739D01*
X109872734Y-106540568D01*
X110059139Y-106410047D01*
X110220047Y-106249139D01*
X110350568Y-106062734D01*
X110446739Y-105856496D01*
X110505635Y-105636692D01*
X110525468Y-105410000D01*
X110505635Y-105183308D01*
X110446739Y-104963504D01*
X110350568Y-104757266D01*
X110242657Y-104603152D01*
X110220046Y-104570859D01*
X110059140Y-104409953D01*
X109898377Y-104297387D01*
X109859511Y-104253069D01*
X109845500Y-104195812D01*
X109845500Y-101804499D01*
X109862113Y-101742499D01*
X109907500Y-101697112D01*
X109969500Y-101680499D01*
X110117870Y-101680499D01*
X110117872Y-101680499D01*
X110177483Y-101674091D01*
X110312331Y-101623796D01*
X110427546Y-101537546D01*
X110513796Y-101422331D01*
X110564091Y-101287483D01*
X110570500Y-101227873D01*
X110570500Y-101227869D01*
X111679500Y-101227869D01*
X111685897Y-101287375D01*
X111685909Y-101287483D01*
X111736204Y-101422331D01*
X111822454Y-101537546D01*
X111937669Y-101623796D01*
X112072517Y-101674091D01*
X112132127Y-101680500D01*
X112280500Y-101680500D01*
X112342500Y-101697113D01*
X112387887Y-101742500D01*
X112404500Y-101804500D01*
X112404500Y-104057256D01*
X112402235Y-104077762D01*
X112404439Y-104147873D01*
X112404500Y-104151768D01*
X112404500Y-104179349D01*
X112405003Y-104183334D01*
X112405918Y-104194967D01*
X112407290Y-104238626D01*
X112412879Y-104257860D01*
X112416825Y-104276916D01*
X112419335Y-104296792D01*
X112435414Y-104337404D01*
X112439197Y-104348451D01*
X112451382Y-104390391D01*
X112461580Y-104407635D01*
X112470136Y-104425100D01*
X112477514Y-104443732D01*
X112477515Y-104443733D01*
X112503180Y-104479059D01*
X112509593Y-104488822D01*
X112531826Y-104526416D01*
X112531829Y-104526419D01*
X112531830Y-104526420D01*
X112545995Y-104540585D01*
X112558627Y-104555375D01*
X112570406Y-104571587D01*
X112604058Y-104599426D01*
X112612699Y-104607289D01*
X113638181Y-105632772D01*
X113665061Y-105673000D01*
X113674500Y-105720453D01*
X113674500Y-108005812D01*
X113660489Y-108063069D01*
X113621623Y-108107387D01*
X113460859Y-108219953D01*
X113299953Y-108380859D01*
X113169430Y-108567267D01*
X113142105Y-108625866D01*
X113096348Y-108678041D01*
X113029723Y-108697460D01*
X112963099Y-108678040D01*
X112917342Y-108625865D01*
X112890134Y-108567519D01*
X112759658Y-108381180D01*
X112598819Y-108220341D01*
X112412480Y-108089865D01*
X112206326Y-107993733D01*
X112010000Y-107941128D01*
X112010000Y-110498871D01*
X112206326Y-110446266D01*
X112412480Y-110350134D01*
X112598819Y-110219658D01*
X112759658Y-110058819D01*
X112890135Y-109872479D01*
X112917342Y-109814135D01*
X112963098Y-109761959D01*
X113029723Y-109742539D01*
X113096348Y-109761958D01*
X113142105Y-109814132D01*
X113169432Y-109872733D01*
X113169433Y-109872736D01*
X113299953Y-110059140D01*
X113460859Y-110220046D01*
X113647264Y-110350567D01*
X113647265Y-110350567D01*
X113647266Y-110350568D01*
X113853504Y-110446739D01*
X114073308Y-110505635D01*
X114300000Y-110525468D01*
X114526692Y-110505635D01*
X114746496Y-110446739D01*
X114952734Y-110350568D01*
X115139139Y-110220047D01*
X115300047Y-110059139D01*
X115430568Y-109872734D01*
X115457618Y-109814724D01*
X115503375Y-109762549D01*
X115570000Y-109743129D01*
X115636625Y-109762549D01*
X115682382Y-109814725D01*
X115709431Y-109872733D01*
X115839953Y-110059140D01*
X116000859Y-110220046D01*
X116187264Y-110350567D01*
X116187265Y-110350567D01*
X116187266Y-110350568D01*
X116393504Y-110446739D01*
X116613308Y-110505635D01*
X116840000Y-110525468D01*
X117066692Y-110505635D01*
X117286496Y-110446739D01*
X117492734Y-110350568D01*
X117679139Y-110220047D01*
X117840047Y-110059139D01*
X117970568Y-109872734D01*
X118066739Y-109666496D01*
X118125635Y-109446692D01*
X118145468Y-109220000D01*
X118125635Y-108993308D01*
X118066739Y-108773504D01*
X117970568Y-108567266D01*
X117840270Y-108381180D01*
X117840046Y-108380859D01*
X117679140Y-108219953D01*
X117518377Y-108107387D01*
X117479511Y-108063069D01*
X117465500Y-108005812D01*
X117465500Y-106624188D01*
X117479511Y-106566931D01*
X117518377Y-106522613D01*
X117679140Y-106410046D01*
X117840046Y-106249140D01*
X117850994Y-106233504D01*
X117970568Y-106062734D01*
X118066739Y-105856496D01*
X118125635Y-105636692D01*
X118145468Y-105410000D01*
X118125635Y-105183308D01*
X118066739Y-104963504D01*
X117970568Y-104757266D01*
X117862657Y-104603152D01*
X117840046Y-104570859D01*
X117679140Y-104409953D01*
X117492735Y-104279432D01*
X117286497Y-104183261D01*
X117066689Y-104124364D01*
X116840000Y-104104531D01*
X116613310Y-104124364D01*
X116393502Y-104183261D01*
X116187264Y-104279432D01*
X116000859Y-104409953D01*
X115839953Y-104570859D01*
X115709432Y-104757264D01*
X115613261Y-104963502D01*
X115554364Y-105183310D01*
X115534531Y-105409999D01*
X115554364Y-105636689D01*
X115613261Y-105856497D01*
X115709432Y-106062735D01*
X115839953Y-106249140D01*
X116000859Y-106410046D01*
X116161623Y-106522613D01*
X116200489Y-106566931D01*
X116214500Y-106624188D01*
X116214500Y-108005812D01*
X116200489Y-108063069D01*
X116161623Y-108107387D01*
X116000859Y-108219953D01*
X115839953Y-108380859D01*
X115709433Y-108567263D01*
X115682382Y-108625275D01*
X115636625Y-108677450D01*
X115570000Y-108696869D01*
X115503375Y-108677450D01*
X115457618Y-108625275D01*
X115430568Y-108567266D01*
X115412613Y-108541623D01*
X115300046Y-108380859D01*
X115139140Y-108219953D01*
X114978377Y-108107387D01*
X114939511Y-108063069D01*
X114925500Y-108005812D01*
X114925500Y-105492740D01*
X114927763Y-105472236D01*
X114927483Y-105463333D01*
X114925561Y-105402144D01*
X114925500Y-105398250D01*
X114925500Y-105370657D01*
X114925500Y-105370650D01*
X114924995Y-105366653D01*
X114924080Y-105355023D01*
X114923952Y-105350951D01*
X114922709Y-105311373D01*
X114917120Y-105292140D01*
X114913174Y-105273082D01*
X114910664Y-105253208D01*
X114894588Y-105212606D01*
X114890804Y-105201552D01*
X114878619Y-105159613D01*
X114878618Y-105159612D01*
X114878618Y-105159610D01*
X114868417Y-105142361D01*
X114859860Y-105124895D01*
X114852486Y-105106268D01*
X114826813Y-105070932D01*
X114820402Y-105061172D01*
X114818609Y-105058141D01*
X114798170Y-105023579D01*
X114784005Y-105009414D01*
X114771369Y-104994620D01*
X114759595Y-104978414D01*
X114758917Y-104977853D01*
X114725935Y-104950568D01*
X114717305Y-104942714D01*
X113691819Y-103917228D01*
X113664939Y-103877000D01*
X113655500Y-103829547D01*
X113655500Y-101804499D01*
X113672113Y-101742499D01*
X113717500Y-101697112D01*
X113779500Y-101680499D01*
X113927870Y-101680499D01*
X113927872Y-101680499D01*
X113987483Y-101674091D01*
X114122331Y-101623796D01*
X114237546Y-101537546D01*
X114323796Y-101422331D01*
X114374091Y-101287483D01*
X114380500Y-101227873D01*
X114380500Y-101079500D01*
X114397113Y-101017500D01*
X114442500Y-100972113D01*
X114504500Y-100955500D01*
X118165812Y-100955500D01*
X118223069Y-100969511D01*
X118267387Y-101008377D01*
X118379953Y-101169140D01*
X118540859Y-101330046D01*
X118727264Y-101460567D01*
X118727265Y-101460567D01*
X118727266Y-101460568D01*
X118933504Y-101556739D01*
X119153308Y-101615635D01*
X119380000Y-101635468D01*
X119606692Y-101615635D01*
X119826496Y-101556739D01*
X120032734Y-101460568D01*
X120106344Y-101409026D01*
X121154526Y-101409026D01*
X121227515Y-101460133D01*
X121433673Y-101556266D01*
X121653397Y-101615141D01*
X121880000Y-101634966D01*
X122106602Y-101615141D01*
X122326326Y-101556266D01*
X122532480Y-101460134D01*
X122605472Y-101409025D01*
X121880001Y-100683553D01*
X121880000Y-100683553D01*
X121154526Y-101409025D01*
X121154526Y-101409026D01*
X120106344Y-101409026D01*
X120219139Y-101330047D01*
X120380047Y-101169139D01*
X120510568Y-100982734D01*
X120517893Y-100967023D01*
X120563647Y-100914849D01*
X120630273Y-100895428D01*
X120696899Y-100914847D01*
X120742657Y-100967023D01*
X120749866Y-100982483D01*
X120800972Y-101055471D01*
X120800974Y-101055472D01*
X121526446Y-100330001D01*
X122233553Y-100330001D01*
X122959025Y-101055472D01*
X123010134Y-100982480D01*
X123106266Y-100776326D01*
X123165141Y-100556602D01*
X123184966Y-100329999D01*
X123165141Y-100103397D01*
X123106266Y-99883673D01*
X123010133Y-99677515D01*
X122959025Y-99604526D01*
X122233553Y-100330000D01*
X122233553Y-100330001D01*
X121526446Y-100330001D01*
X121526446Y-100330000D01*
X120800973Y-99604526D01*
X120800973Y-99604527D01*
X120749865Y-99677517D01*
X120742656Y-99692977D01*
X120696899Y-99745151D01*
X120630274Y-99764570D01*
X120563649Y-99745150D01*
X120517893Y-99692975D01*
X120515520Y-99687887D01*
X120510568Y-99677266D01*
X120459635Y-99604526D01*
X120380046Y-99490859D01*
X120219140Y-99329953D01*
X120106344Y-99250973D01*
X121154526Y-99250973D01*
X121880000Y-99976446D01*
X121880001Y-99976446D01*
X122605472Y-99250974D01*
X122605471Y-99250972D01*
X122532484Y-99199866D01*
X122326326Y-99103733D01*
X122106602Y-99044858D01*
X121880000Y-99025033D01*
X121653397Y-99044858D01*
X121433672Y-99103733D01*
X121227516Y-99199865D01*
X121154527Y-99250973D01*
X121154526Y-99250973D01*
X120106344Y-99250973D01*
X120032735Y-99199432D01*
X119826497Y-99103261D01*
X119606689Y-99044364D01*
X119380000Y-99024531D01*
X119153310Y-99044364D01*
X118933502Y-99103261D01*
X118727264Y-99199432D01*
X118540859Y-99329953D01*
X118379953Y-99490859D01*
X118267387Y-99651623D01*
X118223069Y-99690489D01*
X118165812Y-99704500D01*
X114504499Y-99704500D01*
X114442499Y-99687887D01*
X114397112Y-99642500D01*
X114380499Y-99580500D01*
X114380499Y-99432130D01*
X114380499Y-99432127D01*
X114374091Y-99372517D01*
X114323796Y-99237669D01*
X114237546Y-99122454D01*
X114122331Y-99036204D01*
X113987483Y-98985909D01*
X113927873Y-98979500D01*
X113927869Y-98979500D01*
X112132130Y-98979500D01*
X112072515Y-98985909D01*
X111937669Y-99036204D01*
X111822454Y-99122454D01*
X111736204Y-99237668D01*
X111685909Y-99372516D01*
X111679500Y-99432130D01*
X111679500Y-101227869D01*
X110570500Y-101227869D01*
X110570499Y-99432128D01*
X110564091Y-99372517D01*
X110513796Y-99237669D01*
X110427546Y-99122454D01*
X110312331Y-99036204D01*
X110177483Y-98985909D01*
X110117873Y-98979500D01*
X110117869Y-98979500D01*
X108322130Y-98979500D01*
X108262515Y-98985909D01*
X108127669Y-99036204D01*
X108012454Y-99122454D01*
X107926204Y-99237668D01*
X107875909Y-99372516D01*
X107869500Y-99432130D01*
X107869500Y-101227869D01*
X102870500Y-101227869D01*
X102870500Y-95374500D01*
X102887113Y-95312500D01*
X102932500Y-95267113D01*
X102994500Y-95250500D01*
X166245500Y-95250500D01*
X166307500Y-95267113D01*
G37*
%TD.AperFunction*%
%TD*%
M02*
