M48
; DRILL file {KiCad 7.0.1} date Sun Nov 26 17:03:25 2023
; FORMAT={-:-/ absolute / inch / decimal}
; #@! TF.CreationDate,2023-11-26T17:03:25+00:00
; #@! TF.GenerationSoftware,Kicad,Pcbnew,7.0.1
; #@! TF.FileFunction,Plated,1,2,PTH
FMAT,2
INCH
; #@! TA.AperFunction,Plated,PTH,ComponentDrill
T1C0.0315
; #@! TA.AperFunction,Plated,PTH,ComponentDrill
T2C0.0354
; #@! TA.AperFunction,Plated,PTH,ComponentDrill
T3C0.0394
%
G90
G05
T1
X4.2Y-4.8
X4.2Y-5.1
X4.3Y-4.15
X4.3Y-4.3
X4.3Y-4.6
X4.35Y-5.15
X4.4Y-4.3
X4.4Y-4.6
X4.4Y-4.8031
X4.4Y-5.0
X4.5Y-4.3
X4.5Y-4.6
X4.6Y-4.15
X4.6Y-4.3
X4.6Y-4.6
X4.6122Y-4.85
X4.65Y-5.15
X4.7Y-3.95
X4.75Y-4.85
X4.7984Y-3.95
X4.8Y-4.3
X4.8Y-4.6
X4.9016Y-5.1
X5.0Y-4.7016
X5.0Y-4.8
X5.0Y-5.1
X5.0004Y-4.1496
X5.0004Y-4.4496
X5.1004Y-4.1496
X5.1004Y-4.4496
X5.2Y-4.6
X5.2Y-4.75
X5.2Y-4.9
X5.2004Y-4.1496
X5.2004Y-4.4496
X5.3004Y-4.1496
X5.3004Y-4.4496
X5.5Y-4.6
X5.5Y-4.75
X5.5Y-4.9
X5.5516Y-3.95
X5.6Y-4.4
X5.65Y-3.95
X5.65Y-4.2
X5.6984Y-4.4
X5.9016Y-4.6
X5.95Y-4.2
X6.05Y-4.2
X6.05Y-4.4
X6.0984Y-4.6
X6.1Y-3.95
X6.15Y-4.85
X6.15Y-5.05
X6.2516Y-4.6
X6.35Y-4.2
X6.35Y-4.4
X6.35Y-4.6
X6.4Y-3.95
X6.45Y-4.85
X6.45Y-5.05
T2
X5.775Y-4.85
X5.775Y-4.95
T3
X4.25Y-5.4
X4.3Y-3.95
X4.4Y-5.4
X4.45Y-3.95
X5.0Y-3.95
X5.15Y-3.95
X5.35Y-5.4
X5.5Y-5.4
X5.65Y-5.4
X5.8Y-3.95
X5.95Y-3.95
X6.25Y-5.4
X6.4Y-5.4
T0
M30
