%TF.GenerationSoftware,KiCad,Pcbnew,7.0.1*%
%TF.CreationDate,2023-11-26T17:03:10+00:00*%
%TF.ProjectId,ring-modulator,72696e67-2d6d-46f6-9475-6c61746f722e,rev?*%
%TF.SameCoordinates,Original*%
%TF.FileFunction,Legend,Top*%
%TF.FilePolarity,Positive*%
%FSLAX46Y46*%
G04 Gerber Fmt 4.6, Leading zero omitted, Abs format (unit mm)*
G04 Created by KiCad (PCBNEW 7.0.1) date 2023-11-26 17:03:10*
%MOMM*%
%LPD*%
G01*
G04 APERTURE LIST*
%ADD10C,0.150000*%
%ADD11C,0.120000*%
G04 APERTURE END LIST*
D10*
X146224523Y-138307619D02*
X145891190Y-137831428D01*
X145653095Y-138307619D02*
X145653095Y-137307619D01*
X145653095Y-137307619D02*
X146034047Y-137307619D01*
X146034047Y-137307619D02*
X146129285Y-137355238D01*
X146129285Y-137355238D02*
X146176904Y-137402857D01*
X146176904Y-137402857D02*
X146224523Y-137498095D01*
X146224523Y-137498095D02*
X146224523Y-137640952D01*
X146224523Y-137640952D02*
X146176904Y-137736190D01*
X146176904Y-137736190D02*
X146129285Y-137783809D01*
X146129285Y-137783809D02*
X146034047Y-137831428D01*
X146034047Y-137831428D02*
X145653095Y-137831428D01*
X147176904Y-138307619D02*
X146605476Y-138307619D01*
X146891190Y-138307619D02*
X146891190Y-137307619D01*
X146891190Y-137307619D02*
X146795952Y-137450476D01*
X146795952Y-137450476D02*
X146700714Y-137545714D01*
X146700714Y-137545714D02*
X146605476Y-137593333D01*
X148034047Y-137640952D02*
X148034047Y-138307619D01*
X147795952Y-137260000D02*
X147557857Y-137974285D01*
X147557857Y-137974285D02*
X148176904Y-137974285D01*
X148510238Y-138021904D02*
X148986428Y-138021904D01*
X148415000Y-138307619D02*
X148748333Y-137307619D01*
X148748333Y-137307619D02*
X149081666Y-138307619D01*
X138604523Y-140212619D02*
X138271190Y-139736428D01*
X138033095Y-140212619D02*
X138033095Y-139212619D01*
X138033095Y-139212619D02*
X138414047Y-139212619D01*
X138414047Y-139212619D02*
X138509285Y-139260238D01*
X138509285Y-139260238D02*
X138556904Y-139307857D01*
X138556904Y-139307857D02*
X138604523Y-139403095D01*
X138604523Y-139403095D02*
X138604523Y-139545952D01*
X138604523Y-139545952D02*
X138556904Y-139641190D01*
X138556904Y-139641190D02*
X138509285Y-139688809D01*
X138509285Y-139688809D02*
X138414047Y-139736428D01*
X138414047Y-139736428D02*
X138033095Y-139736428D01*
X139556904Y-140212619D02*
X138985476Y-140212619D01*
X139271190Y-140212619D02*
X139271190Y-139212619D01*
X139271190Y-139212619D02*
X139175952Y-139355476D01*
X139175952Y-139355476D02*
X139080714Y-139450714D01*
X139080714Y-139450714D02*
X138985476Y-139498333D01*
X140414047Y-139545952D02*
X140414047Y-140212619D01*
X140175952Y-139165000D02*
X139937857Y-139879285D01*
X139937857Y-139879285D02*
X140556904Y-139879285D01*
X141271190Y-139688809D02*
X141414047Y-139736428D01*
X141414047Y-139736428D02*
X141461666Y-139784047D01*
X141461666Y-139784047D02*
X141509285Y-139879285D01*
X141509285Y-139879285D02*
X141509285Y-140022142D01*
X141509285Y-140022142D02*
X141461666Y-140117380D01*
X141461666Y-140117380D02*
X141414047Y-140165000D01*
X141414047Y-140165000D02*
X141318809Y-140212619D01*
X141318809Y-140212619D02*
X140937857Y-140212619D01*
X140937857Y-140212619D02*
X140937857Y-139212619D01*
X140937857Y-139212619D02*
X141271190Y-139212619D01*
X141271190Y-139212619D02*
X141366428Y-139260238D01*
X141366428Y-139260238D02*
X141414047Y-139307857D01*
X141414047Y-139307857D02*
X141461666Y-139403095D01*
X141461666Y-139403095D02*
X141461666Y-139498333D01*
X141461666Y-139498333D02*
X141414047Y-139593571D01*
X141414047Y-139593571D02*
X141366428Y-139641190D01*
X141366428Y-139641190D02*
X141271190Y-139688809D01*
X141271190Y-139688809D02*
X140937857Y-139688809D01*
X130984523Y-138307619D02*
X130651190Y-137831428D01*
X130413095Y-138307619D02*
X130413095Y-137307619D01*
X130413095Y-137307619D02*
X130794047Y-137307619D01*
X130794047Y-137307619D02*
X130889285Y-137355238D01*
X130889285Y-137355238D02*
X130936904Y-137402857D01*
X130936904Y-137402857D02*
X130984523Y-137498095D01*
X130984523Y-137498095D02*
X130984523Y-137640952D01*
X130984523Y-137640952D02*
X130936904Y-137736190D01*
X130936904Y-137736190D02*
X130889285Y-137783809D01*
X130889285Y-137783809D02*
X130794047Y-137831428D01*
X130794047Y-137831428D02*
X130413095Y-137831428D01*
X131936904Y-138307619D02*
X131365476Y-138307619D01*
X131651190Y-138307619D02*
X131651190Y-137307619D01*
X131651190Y-137307619D02*
X131555952Y-137450476D01*
X131555952Y-137450476D02*
X131460714Y-137545714D01*
X131460714Y-137545714D02*
X131365476Y-137593333D01*
X132794047Y-137640952D02*
X132794047Y-138307619D01*
X132555952Y-137260000D02*
X132317857Y-137974285D01*
X132317857Y-137974285D02*
X132936904Y-137974285D01*
X133889285Y-138212380D02*
X133841666Y-138260000D01*
X133841666Y-138260000D02*
X133698809Y-138307619D01*
X133698809Y-138307619D02*
X133603571Y-138307619D01*
X133603571Y-138307619D02*
X133460714Y-138260000D01*
X133460714Y-138260000D02*
X133365476Y-138164761D01*
X133365476Y-138164761D02*
X133317857Y-138069523D01*
X133317857Y-138069523D02*
X133270238Y-137879047D01*
X133270238Y-137879047D02*
X133270238Y-137736190D01*
X133270238Y-137736190D02*
X133317857Y-137545714D01*
X133317857Y-137545714D02*
X133365476Y-137450476D01*
X133365476Y-137450476D02*
X133460714Y-137355238D01*
X133460714Y-137355238D02*
X133603571Y-137307619D01*
X133603571Y-137307619D02*
X133698809Y-137307619D01*
X133698809Y-137307619D02*
X133841666Y-137355238D01*
X133841666Y-137355238D02*
X133889285Y-137402857D01*
X111998095Y-140212619D02*
X111998095Y-139212619D01*
X112474285Y-140212619D02*
X112474285Y-139212619D01*
X112474285Y-139212619D02*
X113045713Y-140212619D01*
X113045713Y-140212619D02*
X113045713Y-139212619D01*
X113521904Y-139831666D02*
X114283809Y-139831666D01*
X106283095Y-140212619D02*
X106283095Y-139212619D01*
X106759285Y-140212619D02*
X106759285Y-139212619D01*
X106759285Y-139212619D02*
X107330713Y-140212619D01*
X107330713Y-140212619D02*
X107330713Y-139212619D01*
X107806904Y-139831666D02*
X108568809Y-139831666D01*
X108187856Y-140212619D02*
X108187856Y-139450714D01*
X129417619Y-121793095D02*
X129417619Y-122364523D01*
X129417619Y-122078809D02*
X128417619Y-122078809D01*
X128417619Y-122078809D02*
X128560476Y-122174047D01*
X128560476Y-122174047D02*
X128655714Y-122269285D01*
X128655714Y-122269285D02*
X128703333Y-122364523D01*
X128417619Y-121174047D02*
X128417619Y-121078809D01*
X128417619Y-121078809D02*
X128465238Y-120983571D01*
X128465238Y-120983571D02*
X128512857Y-120935952D01*
X128512857Y-120935952D02*
X128608095Y-120888333D01*
X128608095Y-120888333D02*
X128798571Y-120840714D01*
X128798571Y-120840714D02*
X129036666Y-120840714D01*
X129036666Y-120840714D02*
X129227142Y-120888333D01*
X129227142Y-120888333D02*
X129322380Y-120935952D01*
X129322380Y-120935952D02*
X129370000Y-120983571D01*
X129370000Y-120983571D02*
X129417619Y-121078809D01*
X129417619Y-121078809D02*
X129417619Y-121174047D01*
X129417619Y-121174047D02*
X129370000Y-121269285D01*
X129370000Y-121269285D02*
X129322380Y-121316904D01*
X129322380Y-121316904D02*
X129227142Y-121364523D01*
X129227142Y-121364523D02*
X129036666Y-121412142D01*
X129036666Y-121412142D02*
X128798571Y-121412142D01*
X128798571Y-121412142D02*
X128608095Y-121364523D01*
X128608095Y-121364523D02*
X128512857Y-121316904D01*
X128512857Y-121316904D02*
X128465238Y-121269285D01*
X128465238Y-121269285D02*
X128417619Y-121174047D01*
X128750952Y-120412142D02*
X129417619Y-120412142D01*
X128846190Y-120412142D02*
X128798571Y-120364523D01*
X128798571Y-120364523D02*
X128750952Y-120269285D01*
X128750952Y-120269285D02*
X128750952Y-120126428D01*
X128750952Y-120126428D02*
X128798571Y-120031190D01*
X128798571Y-120031190D02*
X128893809Y-119983571D01*
X128893809Y-119983571D02*
X129417619Y-119983571D01*
X128893809Y-119174047D02*
X128893809Y-119507380D01*
X129417619Y-119507380D02*
X128417619Y-119507380D01*
X128417619Y-119507380D02*
X128417619Y-119031190D01*
X114177619Y-125603095D02*
X114177619Y-126174523D01*
X114177619Y-125888809D02*
X113177619Y-125888809D01*
X113177619Y-125888809D02*
X113320476Y-125984047D01*
X113320476Y-125984047D02*
X113415714Y-126079285D01*
X113415714Y-126079285D02*
X113463333Y-126174523D01*
X113177619Y-124984047D02*
X113177619Y-124888809D01*
X113177619Y-124888809D02*
X113225238Y-124793571D01*
X113225238Y-124793571D02*
X113272857Y-124745952D01*
X113272857Y-124745952D02*
X113368095Y-124698333D01*
X113368095Y-124698333D02*
X113558571Y-124650714D01*
X113558571Y-124650714D02*
X113796666Y-124650714D01*
X113796666Y-124650714D02*
X113987142Y-124698333D01*
X113987142Y-124698333D02*
X114082380Y-124745952D01*
X114082380Y-124745952D02*
X114130000Y-124793571D01*
X114130000Y-124793571D02*
X114177619Y-124888809D01*
X114177619Y-124888809D02*
X114177619Y-124984047D01*
X114177619Y-124984047D02*
X114130000Y-125079285D01*
X114130000Y-125079285D02*
X114082380Y-125126904D01*
X114082380Y-125126904D02*
X113987142Y-125174523D01*
X113987142Y-125174523D02*
X113796666Y-125222142D01*
X113796666Y-125222142D02*
X113558571Y-125222142D01*
X113558571Y-125222142D02*
X113368095Y-125174523D01*
X113368095Y-125174523D02*
X113272857Y-125126904D01*
X113272857Y-125126904D02*
X113225238Y-125079285D01*
X113225238Y-125079285D02*
X113177619Y-124984047D01*
X113177619Y-124031666D02*
X113177619Y-123936428D01*
X113177619Y-123936428D02*
X113225238Y-123841190D01*
X113225238Y-123841190D02*
X113272857Y-123793571D01*
X113272857Y-123793571D02*
X113368095Y-123745952D01*
X113368095Y-123745952D02*
X113558571Y-123698333D01*
X113558571Y-123698333D02*
X113796666Y-123698333D01*
X113796666Y-123698333D02*
X113987142Y-123745952D01*
X113987142Y-123745952D02*
X114082380Y-123793571D01*
X114082380Y-123793571D02*
X114130000Y-123841190D01*
X114130000Y-123841190D02*
X114177619Y-123936428D01*
X114177619Y-123936428D02*
X114177619Y-124031666D01*
X114177619Y-124031666D02*
X114130000Y-124126904D01*
X114130000Y-124126904D02*
X114082380Y-124174523D01*
X114082380Y-124174523D02*
X113987142Y-124222142D01*
X113987142Y-124222142D02*
X113796666Y-124269761D01*
X113796666Y-124269761D02*
X113558571Y-124269761D01*
X113558571Y-124269761D02*
X113368095Y-124222142D01*
X113368095Y-124222142D02*
X113272857Y-124174523D01*
X113272857Y-124174523D02*
X113225238Y-124126904D01*
X113225238Y-124126904D02*
X113177619Y-124031666D01*
X113510952Y-123269761D02*
X114177619Y-123269761D01*
X113606190Y-123269761D02*
X113558571Y-123222142D01*
X113558571Y-123222142D02*
X113510952Y-123126904D01*
X113510952Y-123126904D02*
X113510952Y-122984047D01*
X113510952Y-122984047D02*
X113558571Y-122888809D01*
X113558571Y-122888809D02*
X113653809Y-122841190D01*
X113653809Y-122841190D02*
X114177619Y-122841190D01*
X113653809Y-122031666D02*
X113653809Y-122364999D01*
X114177619Y-122364999D02*
X113177619Y-122364999D01*
X113177619Y-122364999D02*
X113177619Y-121888809D01*
X107192619Y-126873095D02*
X107192619Y-127444523D01*
X107192619Y-127158809D02*
X106192619Y-127158809D01*
X106192619Y-127158809D02*
X106335476Y-127254047D01*
X106335476Y-127254047D02*
X106430714Y-127349285D01*
X106430714Y-127349285D02*
X106478333Y-127444523D01*
X106192619Y-126254047D02*
X106192619Y-126158809D01*
X106192619Y-126158809D02*
X106240238Y-126063571D01*
X106240238Y-126063571D02*
X106287857Y-126015952D01*
X106287857Y-126015952D02*
X106383095Y-125968333D01*
X106383095Y-125968333D02*
X106573571Y-125920714D01*
X106573571Y-125920714D02*
X106811666Y-125920714D01*
X106811666Y-125920714D02*
X107002142Y-125968333D01*
X107002142Y-125968333D02*
X107097380Y-126015952D01*
X107097380Y-126015952D02*
X107145000Y-126063571D01*
X107145000Y-126063571D02*
X107192619Y-126158809D01*
X107192619Y-126158809D02*
X107192619Y-126254047D01*
X107192619Y-126254047D02*
X107145000Y-126349285D01*
X107145000Y-126349285D02*
X107097380Y-126396904D01*
X107097380Y-126396904D02*
X107002142Y-126444523D01*
X107002142Y-126444523D02*
X106811666Y-126492142D01*
X106811666Y-126492142D02*
X106573571Y-126492142D01*
X106573571Y-126492142D02*
X106383095Y-126444523D01*
X106383095Y-126444523D02*
X106287857Y-126396904D01*
X106287857Y-126396904D02*
X106240238Y-126349285D01*
X106240238Y-126349285D02*
X106192619Y-126254047D01*
X106192619Y-125301666D02*
X106192619Y-125206428D01*
X106192619Y-125206428D02*
X106240238Y-125111190D01*
X106240238Y-125111190D02*
X106287857Y-125063571D01*
X106287857Y-125063571D02*
X106383095Y-125015952D01*
X106383095Y-125015952D02*
X106573571Y-124968333D01*
X106573571Y-124968333D02*
X106811666Y-124968333D01*
X106811666Y-124968333D02*
X107002142Y-125015952D01*
X107002142Y-125015952D02*
X107097380Y-125063571D01*
X107097380Y-125063571D02*
X107145000Y-125111190D01*
X107145000Y-125111190D02*
X107192619Y-125206428D01*
X107192619Y-125206428D02*
X107192619Y-125301666D01*
X107192619Y-125301666D02*
X107145000Y-125396904D01*
X107145000Y-125396904D02*
X107097380Y-125444523D01*
X107097380Y-125444523D02*
X107002142Y-125492142D01*
X107002142Y-125492142D02*
X106811666Y-125539761D01*
X106811666Y-125539761D02*
X106573571Y-125539761D01*
X106573571Y-125539761D02*
X106383095Y-125492142D01*
X106383095Y-125492142D02*
X106287857Y-125444523D01*
X106287857Y-125444523D02*
X106240238Y-125396904D01*
X106240238Y-125396904D02*
X106192619Y-125301666D01*
X107192619Y-124539761D02*
X106192619Y-124539761D01*
X107192619Y-123968333D02*
X106621190Y-124396904D01*
X106192619Y-123968333D02*
X106764047Y-124539761D01*
X113061666Y-130655952D02*
X113061666Y-131322619D01*
X112823571Y-130275000D02*
X112585476Y-130989285D01*
X112585476Y-130989285D02*
X113204523Y-130989285D01*
X113585476Y-131227380D02*
X113633095Y-131275000D01*
X113633095Y-131275000D02*
X113585476Y-131322619D01*
X113585476Y-131322619D02*
X113537857Y-131275000D01*
X113537857Y-131275000D02*
X113585476Y-131227380D01*
X113585476Y-131227380D02*
X113585476Y-131322619D01*
X113966428Y-130322619D02*
X114633094Y-130322619D01*
X114633094Y-130322619D02*
X114204523Y-131322619D01*
X115014047Y-131322619D02*
X115014047Y-130322619D01*
X115585475Y-131322619D02*
X115156904Y-130751190D01*
X115585475Y-130322619D02*
X115014047Y-130894047D01*
X129666904Y-131322619D02*
X129095476Y-131322619D01*
X129381190Y-131322619D02*
X129381190Y-130322619D01*
X129381190Y-130322619D02*
X129285952Y-130465476D01*
X129285952Y-130465476D02*
X129190714Y-130560714D01*
X129190714Y-130560714D02*
X129095476Y-130608333D01*
X130285952Y-130322619D02*
X130381190Y-130322619D01*
X130381190Y-130322619D02*
X130476428Y-130370238D01*
X130476428Y-130370238D02*
X130524047Y-130417857D01*
X130524047Y-130417857D02*
X130571666Y-130513095D01*
X130571666Y-130513095D02*
X130619285Y-130703571D01*
X130619285Y-130703571D02*
X130619285Y-130941666D01*
X130619285Y-130941666D02*
X130571666Y-131132142D01*
X130571666Y-131132142D02*
X130524047Y-131227380D01*
X130524047Y-131227380D02*
X130476428Y-131275000D01*
X130476428Y-131275000D02*
X130381190Y-131322619D01*
X130381190Y-131322619D02*
X130285952Y-131322619D01*
X130285952Y-131322619D02*
X130190714Y-131275000D01*
X130190714Y-131275000D02*
X130143095Y-131227380D01*
X130143095Y-131227380D02*
X130095476Y-131132142D01*
X130095476Y-131132142D02*
X130047857Y-130941666D01*
X130047857Y-130941666D02*
X130047857Y-130703571D01*
X130047857Y-130703571D02*
X130095476Y-130513095D01*
X130095476Y-130513095D02*
X130143095Y-130417857D01*
X130143095Y-130417857D02*
X130190714Y-130370238D01*
X130190714Y-130370238D02*
X130285952Y-130322619D01*
X131476428Y-130655952D02*
X131476428Y-131322619D01*
X131047857Y-130655952D02*
X131047857Y-131179761D01*
X131047857Y-131179761D02*
X131095476Y-131275000D01*
X131095476Y-131275000D02*
X131190714Y-131322619D01*
X131190714Y-131322619D02*
X131333571Y-131322619D01*
X131333571Y-131322619D02*
X131428809Y-131275000D01*
X131428809Y-131275000D02*
X131476428Y-131227380D01*
X132285952Y-130798809D02*
X131952619Y-130798809D01*
X131952619Y-131322619D02*
X131952619Y-130322619D01*
X131952619Y-130322619D02*
X132428809Y-130322619D01*
X118236904Y-128782619D02*
X117665476Y-128782619D01*
X117951190Y-128782619D02*
X117951190Y-127782619D01*
X117951190Y-127782619D02*
X117855952Y-127925476D01*
X117855952Y-127925476D02*
X117760714Y-128020714D01*
X117760714Y-128020714D02*
X117665476Y-128068333D01*
X118855952Y-127782619D02*
X118951190Y-127782619D01*
X118951190Y-127782619D02*
X119046428Y-127830238D01*
X119046428Y-127830238D02*
X119094047Y-127877857D01*
X119094047Y-127877857D02*
X119141666Y-127973095D01*
X119141666Y-127973095D02*
X119189285Y-128163571D01*
X119189285Y-128163571D02*
X119189285Y-128401666D01*
X119189285Y-128401666D02*
X119141666Y-128592142D01*
X119141666Y-128592142D02*
X119094047Y-128687380D01*
X119094047Y-128687380D02*
X119046428Y-128735000D01*
X119046428Y-128735000D02*
X118951190Y-128782619D01*
X118951190Y-128782619D02*
X118855952Y-128782619D01*
X118855952Y-128782619D02*
X118760714Y-128735000D01*
X118760714Y-128735000D02*
X118713095Y-128687380D01*
X118713095Y-128687380D02*
X118665476Y-128592142D01*
X118665476Y-128592142D02*
X118617857Y-128401666D01*
X118617857Y-128401666D02*
X118617857Y-128163571D01*
X118617857Y-128163571D02*
X118665476Y-127973095D01*
X118665476Y-127973095D02*
X118713095Y-127877857D01*
X118713095Y-127877857D02*
X118760714Y-127830238D01*
X118760714Y-127830238D02*
X118855952Y-127782619D01*
X119808333Y-127782619D02*
X119903571Y-127782619D01*
X119903571Y-127782619D02*
X119998809Y-127830238D01*
X119998809Y-127830238D02*
X120046428Y-127877857D01*
X120046428Y-127877857D02*
X120094047Y-127973095D01*
X120094047Y-127973095D02*
X120141666Y-128163571D01*
X120141666Y-128163571D02*
X120141666Y-128401666D01*
X120141666Y-128401666D02*
X120094047Y-128592142D01*
X120094047Y-128592142D02*
X120046428Y-128687380D01*
X120046428Y-128687380D02*
X119998809Y-128735000D01*
X119998809Y-128735000D02*
X119903571Y-128782619D01*
X119903571Y-128782619D02*
X119808333Y-128782619D01*
X119808333Y-128782619D02*
X119713095Y-128735000D01*
X119713095Y-128735000D02*
X119665476Y-128687380D01*
X119665476Y-128687380D02*
X119617857Y-128592142D01*
X119617857Y-128592142D02*
X119570238Y-128401666D01*
X119570238Y-128401666D02*
X119570238Y-128163571D01*
X119570238Y-128163571D02*
X119617857Y-127973095D01*
X119617857Y-127973095D02*
X119665476Y-127877857D01*
X119665476Y-127877857D02*
X119713095Y-127830238D01*
X119713095Y-127830238D02*
X119808333Y-127782619D01*
X120998809Y-128115952D02*
X120998809Y-128782619D01*
X120570238Y-128115952D02*
X120570238Y-128639761D01*
X120570238Y-128639761D02*
X120617857Y-128735000D01*
X120617857Y-128735000D02*
X120713095Y-128782619D01*
X120713095Y-128782619D02*
X120855952Y-128782619D01*
X120855952Y-128782619D02*
X120951190Y-128735000D01*
X120951190Y-128735000D02*
X120998809Y-128687380D01*
X121808333Y-128258809D02*
X121475000Y-128258809D01*
X121475000Y-128782619D02*
X121475000Y-127782619D01*
X121475000Y-127782619D02*
X121951190Y-127782619D01*
X135381904Y-117352619D02*
X134810476Y-117352619D01*
X135096190Y-117352619D02*
X135096190Y-116352619D01*
X135096190Y-116352619D02*
X135000952Y-116495476D01*
X135000952Y-116495476D02*
X134905714Y-116590714D01*
X134905714Y-116590714D02*
X134810476Y-116638333D01*
X135810476Y-117352619D02*
X135810476Y-116352619D01*
X135810476Y-116352619D02*
X136143809Y-117066904D01*
X136143809Y-117066904D02*
X136477142Y-116352619D01*
X136477142Y-116352619D02*
X136477142Y-117352619D01*
X134746904Y-121162619D02*
X134175476Y-121162619D01*
X134461190Y-121162619D02*
X134461190Y-120162619D01*
X134461190Y-120162619D02*
X134365952Y-120305476D01*
X134365952Y-120305476D02*
X134270714Y-120400714D01*
X134270714Y-120400714D02*
X134175476Y-120448333D01*
X135365952Y-120162619D02*
X135461190Y-120162619D01*
X135461190Y-120162619D02*
X135556428Y-120210238D01*
X135556428Y-120210238D02*
X135604047Y-120257857D01*
X135604047Y-120257857D02*
X135651666Y-120353095D01*
X135651666Y-120353095D02*
X135699285Y-120543571D01*
X135699285Y-120543571D02*
X135699285Y-120781666D01*
X135699285Y-120781666D02*
X135651666Y-120972142D01*
X135651666Y-120972142D02*
X135604047Y-121067380D01*
X135604047Y-121067380D02*
X135556428Y-121115000D01*
X135556428Y-121115000D02*
X135461190Y-121162619D01*
X135461190Y-121162619D02*
X135365952Y-121162619D01*
X135365952Y-121162619D02*
X135270714Y-121115000D01*
X135270714Y-121115000D02*
X135223095Y-121067380D01*
X135223095Y-121067380D02*
X135175476Y-120972142D01*
X135175476Y-120972142D02*
X135127857Y-120781666D01*
X135127857Y-120781666D02*
X135127857Y-120543571D01*
X135127857Y-120543571D02*
X135175476Y-120353095D01*
X135175476Y-120353095D02*
X135223095Y-120257857D01*
X135223095Y-120257857D02*
X135270714Y-120210238D01*
X135270714Y-120210238D02*
X135365952Y-120162619D01*
X136318333Y-120162619D02*
X136413571Y-120162619D01*
X136413571Y-120162619D02*
X136508809Y-120210238D01*
X136508809Y-120210238D02*
X136556428Y-120257857D01*
X136556428Y-120257857D02*
X136604047Y-120353095D01*
X136604047Y-120353095D02*
X136651666Y-120543571D01*
X136651666Y-120543571D02*
X136651666Y-120781666D01*
X136651666Y-120781666D02*
X136604047Y-120972142D01*
X136604047Y-120972142D02*
X136556428Y-121067380D01*
X136556428Y-121067380D02*
X136508809Y-121115000D01*
X136508809Y-121115000D02*
X136413571Y-121162619D01*
X136413571Y-121162619D02*
X136318333Y-121162619D01*
X136318333Y-121162619D02*
X136223095Y-121115000D01*
X136223095Y-121115000D02*
X136175476Y-121067380D01*
X136175476Y-121067380D02*
X136127857Y-120972142D01*
X136127857Y-120972142D02*
X136080238Y-120781666D01*
X136080238Y-120781666D02*
X136080238Y-120543571D01*
X136080238Y-120543571D02*
X136127857Y-120353095D01*
X136127857Y-120353095D02*
X136175476Y-120257857D01*
X136175476Y-120257857D02*
X136223095Y-120210238D01*
X136223095Y-120210238D02*
X136318333Y-120162619D01*
X137080238Y-121162619D02*
X137080238Y-120162619D01*
X137651666Y-121162619D02*
X137223095Y-120591190D01*
X137651666Y-120162619D02*
X137080238Y-120734047D01*
X134746904Y-124972619D02*
X134175476Y-124972619D01*
X134461190Y-124972619D02*
X134461190Y-123972619D01*
X134461190Y-123972619D02*
X134365952Y-124115476D01*
X134365952Y-124115476D02*
X134270714Y-124210714D01*
X134270714Y-124210714D02*
X134175476Y-124258333D01*
X135365952Y-123972619D02*
X135461190Y-123972619D01*
X135461190Y-123972619D02*
X135556428Y-124020238D01*
X135556428Y-124020238D02*
X135604047Y-124067857D01*
X135604047Y-124067857D02*
X135651666Y-124163095D01*
X135651666Y-124163095D02*
X135699285Y-124353571D01*
X135699285Y-124353571D02*
X135699285Y-124591666D01*
X135699285Y-124591666D02*
X135651666Y-124782142D01*
X135651666Y-124782142D02*
X135604047Y-124877380D01*
X135604047Y-124877380D02*
X135556428Y-124925000D01*
X135556428Y-124925000D02*
X135461190Y-124972619D01*
X135461190Y-124972619D02*
X135365952Y-124972619D01*
X135365952Y-124972619D02*
X135270714Y-124925000D01*
X135270714Y-124925000D02*
X135223095Y-124877380D01*
X135223095Y-124877380D02*
X135175476Y-124782142D01*
X135175476Y-124782142D02*
X135127857Y-124591666D01*
X135127857Y-124591666D02*
X135127857Y-124353571D01*
X135127857Y-124353571D02*
X135175476Y-124163095D01*
X135175476Y-124163095D02*
X135223095Y-124067857D01*
X135223095Y-124067857D02*
X135270714Y-124020238D01*
X135270714Y-124020238D02*
X135365952Y-123972619D01*
X136318333Y-123972619D02*
X136413571Y-123972619D01*
X136413571Y-123972619D02*
X136508809Y-124020238D01*
X136508809Y-124020238D02*
X136556428Y-124067857D01*
X136556428Y-124067857D02*
X136604047Y-124163095D01*
X136604047Y-124163095D02*
X136651666Y-124353571D01*
X136651666Y-124353571D02*
X136651666Y-124591666D01*
X136651666Y-124591666D02*
X136604047Y-124782142D01*
X136604047Y-124782142D02*
X136556428Y-124877380D01*
X136556428Y-124877380D02*
X136508809Y-124925000D01*
X136508809Y-124925000D02*
X136413571Y-124972619D01*
X136413571Y-124972619D02*
X136318333Y-124972619D01*
X136318333Y-124972619D02*
X136223095Y-124925000D01*
X136223095Y-124925000D02*
X136175476Y-124877380D01*
X136175476Y-124877380D02*
X136127857Y-124782142D01*
X136127857Y-124782142D02*
X136080238Y-124591666D01*
X136080238Y-124591666D02*
X136080238Y-124353571D01*
X136080238Y-124353571D02*
X136127857Y-124163095D01*
X136127857Y-124163095D02*
X136175476Y-124067857D01*
X136175476Y-124067857D02*
X136223095Y-124020238D01*
X136223095Y-124020238D02*
X136318333Y-123972619D01*
X137080238Y-124972619D02*
X137080238Y-123972619D01*
X137651666Y-124972619D02*
X137223095Y-124401190D01*
X137651666Y-123972619D02*
X137080238Y-124544047D01*
X122432619Y-114173095D02*
X122432619Y-114744523D01*
X122432619Y-114458809D02*
X121432619Y-114458809D01*
X121432619Y-114458809D02*
X121575476Y-114554047D01*
X121575476Y-114554047D02*
X121670714Y-114649285D01*
X121670714Y-114649285D02*
X121718333Y-114744523D01*
X121432619Y-113554047D02*
X121432619Y-113458809D01*
X121432619Y-113458809D02*
X121480238Y-113363571D01*
X121480238Y-113363571D02*
X121527857Y-113315952D01*
X121527857Y-113315952D02*
X121623095Y-113268333D01*
X121623095Y-113268333D02*
X121813571Y-113220714D01*
X121813571Y-113220714D02*
X122051666Y-113220714D01*
X122051666Y-113220714D02*
X122242142Y-113268333D01*
X122242142Y-113268333D02*
X122337380Y-113315952D01*
X122337380Y-113315952D02*
X122385000Y-113363571D01*
X122385000Y-113363571D02*
X122432619Y-113458809D01*
X122432619Y-113458809D02*
X122432619Y-113554047D01*
X122432619Y-113554047D02*
X122385000Y-113649285D01*
X122385000Y-113649285D02*
X122337380Y-113696904D01*
X122337380Y-113696904D02*
X122242142Y-113744523D01*
X122242142Y-113744523D02*
X122051666Y-113792142D01*
X122051666Y-113792142D02*
X121813571Y-113792142D01*
X121813571Y-113792142D02*
X121623095Y-113744523D01*
X121623095Y-113744523D02*
X121527857Y-113696904D01*
X121527857Y-113696904D02*
X121480238Y-113649285D01*
X121480238Y-113649285D02*
X121432619Y-113554047D01*
X121432619Y-112601666D02*
X121432619Y-112506428D01*
X121432619Y-112506428D02*
X121480238Y-112411190D01*
X121480238Y-112411190D02*
X121527857Y-112363571D01*
X121527857Y-112363571D02*
X121623095Y-112315952D01*
X121623095Y-112315952D02*
X121813571Y-112268333D01*
X121813571Y-112268333D02*
X122051666Y-112268333D01*
X122051666Y-112268333D02*
X122242142Y-112315952D01*
X122242142Y-112315952D02*
X122337380Y-112363571D01*
X122337380Y-112363571D02*
X122385000Y-112411190D01*
X122385000Y-112411190D02*
X122432619Y-112506428D01*
X122432619Y-112506428D02*
X122432619Y-112601666D01*
X122432619Y-112601666D02*
X122385000Y-112696904D01*
X122385000Y-112696904D02*
X122337380Y-112744523D01*
X122337380Y-112744523D02*
X122242142Y-112792142D01*
X122242142Y-112792142D02*
X122051666Y-112839761D01*
X122051666Y-112839761D02*
X121813571Y-112839761D01*
X121813571Y-112839761D02*
X121623095Y-112792142D01*
X121623095Y-112792142D02*
X121527857Y-112744523D01*
X121527857Y-112744523D02*
X121480238Y-112696904D01*
X121480238Y-112696904D02*
X121432619Y-112601666D01*
X122432619Y-111839761D02*
X121432619Y-111839761D01*
X122432619Y-111268333D02*
X121861190Y-111696904D01*
X121432619Y-111268333D02*
X122004047Y-111839761D01*
X119506904Y-102747619D02*
X118935476Y-102747619D01*
X119221190Y-102747619D02*
X119221190Y-101747619D01*
X119221190Y-101747619D02*
X119125952Y-101890476D01*
X119125952Y-101890476D02*
X119030714Y-101985714D01*
X119030714Y-101985714D02*
X118935476Y-102033333D01*
X120125952Y-101747619D02*
X120221190Y-101747619D01*
X120221190Y-101747619D02*
X120316428Y-101795238D01*
X120316428Y-101795238D02*
X120364047Y-101842857D01*
X120364047Y-101842857D02*
X120411666Y-101938095D01*
X120411666Y-101938095D02*
X120459285Y-102128571D01*
X120459285Y-102128571D02*
X120459285Y-102366666D01*
X120459285Y-102366666D02*
X120411666Y-102557142D01*
X120411666Y-102557142D02*
X120364047Y-102652380D01*
X120364047Y-102652380D02*
X120316428Y-102700000D01*
X120316428Y-102700000D02*
X120221190Y-102747619D01*
X120221190Y-102747619D02*
X120125952Y-102747619D01*
X120125952Y-102747619D02*
X120030714Y-102700000D01*
X120030714Y-102700000D02*
X119983095Y-102652380D01*
X119983095Y-102652380D02*
X119935476Y-102557142D01*
X119935476Y-102557142D02*
X119887857Y-102366666D01*
X119887857Y-102366666D02*
X119887857Y-102128571D01*
X119887857Y-102128571D02*
X119935476Y-101938095D01*
X119935476Y-101938095D02*
X119983095Y-101842857D01*
X119983095Y-101842857D02*
X120030714Y-101795238D01*
X120030714Y-101795238D02*
X120125952Y-101747619D01*
X120887857Y-102080952D02*
X120887857Y-102747619D01*
X120887857Y-102176190D02*
X120935476Y-102128571D01*
X120935476Y-102128571D02*
X121030714Y-102080952D01*
X121030714Y-102080952D02*
X121173571Y-102080952D01*
X121173571Y-102080952D02*
X121268809Y-102128571D01*
X121268809Y-102128571D02*
X121316428Y-102223809D01*
X121316428Y-102223809D02*
X121316428Y-102747619D01*
X122125952Y-102223809D02*
X121792619Y-102223809D01*
X121792619Y-102747619D02*
X121792619Y-101747619D01*
X121792619Y-101747619D02*
X122268809Y-101747619D01*
X130301904Y-97350238D02*
X130206666Y-97302619D01*
X130206666Y-97302619D02*
X130063809Y-97302619D01*
X130063809Y-97302619D02*
X129920952Y-97350238D01*
X129920952Y-97350238D02*
X129825714Y-97445476D01*
X129825714Y-97445476D02*
X129778095Y-97540714D01*
X129778095Y-97540714D02*
X129730476Y-97731190D01*
X129730476Y-97731190D02*
X129730476Y-97874047D01*
X129730476Y-97874047D02*
X129778095Y-98064523D01*
X129778095Y-98064523D02*
X129825714Y-98159761D01*
X129825714Y-98159761D02*
X129920952Y-98255000D01*
X129920952Y-98255000D02*
X130063809Y-98302619D01*
X130063809Y-98302619D02*
X130159047Y-98302619D01*
X130159047Y-98302619D02*
X130301904Y-98255000D01*
X130301904Y-98255000D02*
X130349523Y-98207380D01*
X130349523Y-98207380D02*
X130349523Y-97874047D01*
X130349523Y-97874047D02*
X130159047Y-97874047D01*
X130778095Y-98302619D02*
X130778095Y-97302619D01*
X130778095Y-97302619D02*
X131349523Y-98302619D01*
X131349523Y-98302619D02*
X131349523Y-97302619D01*
X131825714Y-98302619D02*
X131825714Y-97302619D01*
X131825714Y-97302619D02*
X132063809Y-97302619D01*
X132063809Y-97302619D02*
X132206666Y-97350238D01*
X132206666Y-97350238D02*
X132301904Y-97445476D01*
X132301904Y-97445476D02*
X132349523Y-97540714D01*
X132349523Y-97540714D02*
X132397142Y-97731190D01*
X132397142Y-97731190D02*
X132397142Y-97874047D01*
X132397142Y-97874047D02*
X132349523Y-98064523D01*
X132349523Y-98064523D02*
X132301904Y-98159761D01*
X132301904Y-98159761D02*
X132206666Y-98255000D01*
X132206666Y-98255000D02*
X132063809Y-98302619D01*
X132063809Y-98302619D02*
X131825714Y-98302619D01*
X125380714Y-98302619D02*
X125571190Y-98302619D01*
X125571190Y-98302619D02*
X125666428Y-98255000D01*
X125666428Y-98255000D02*
X125714047Y-98207380D01*
X125714047Y-98207380D02*
X125809285Y-98064523D01*
X125809285Y-98064523D02*
X125856904Y-97874047D01*
X125856904Y-97874047D02*
X125856904Y-97493095D01*
X125856904Y-97493095D02*
X125809285Y-97397857D01*
X125809285Y-97397857D02*
X125761666Y-97350238D01*
X125761666Y-97350238D02*
X125666428Y-97302619D01*
X125666428Y-97302619D02*
X125475952Y-97302619D01*
X125475952Y-97302619D02*
X125380714Y-97350238D01*
X125380714Y-97350238D02*
X125333095Y-97397857D01*
X125333095Y-97397857D02*
X125285476Y-97493095D01*
X125285476Y-97493095D02*
X125285476Y-97731190D01*
X125285476Y-97731190D02*
X125333095Y-97826428D01*
X125333095Y-97826428D02*
X125380714Y-97874047D01*
X125380714Y-97874047D02*
X125475952Y-97921666D01*
X125475952Y-97921666D02*
X125666428Y-97921666D01*
X125666428Y-97921666D02*
X125761666Y-97874047D01*
X125761666Y-97874047D02*
X125809285Y-97826428D01*
X125809285Y-97826428D02*
X125856904Y-97731190D01*
X126142619Y-97302619D02*
X126475952Y-98302619D01*
X126475952Y-98302619D02*
X126809285Y-97302619D01*
X127142619Y-97921666D02*
X127904524Y-97921666D01*
X127523571Y-98302619D02*
X127523571Y-97540714D01*
X162353571Y-138577619D02*
X162544047Y-138577619D01*
X162544047Y-138577619D02*
X162639285Y-138625238D01*
X162639285Y-138625238D02*
X162734523Y-138720476D01*
X162734523Y-138720476D02*
X162782142Y-138910952D01*
X162782142Y-138910952D02*
X162782142Y-139244285D01*
X162782142Y-139244285D02*
X162734523Y-139434761D01*
X162734523Y-139434761D02*
X162639285Y-139530000D01*
X162639285Y-139530000D02*
X162544047Y-139577619D01*
X162544047Y-139577619D02*
X162353571Y-139577619D01*
X162353571Y-139577619D02*
X162258333Y-139530000D01*
X162258333Y-139530000D02*
X162163095Y-139434761D01*
X162163095Y-139434761D02*
X162115476Y-139244285D01*
X162115476Y-139244285D02*
X162115476Y-138910952D01*
X162115476Y-138910952D02*
X162163095Y-138720476D01*
X162163095Y-138720476D02*
X162258333Y-138625238D01*
X162258333Y-138625238D02*
X162353571Y-138577619D01*
X163210714Y-138577619D02*
X163210714Y-139387142D01*
X163210714Y-139387142D02*
X163258333Y-139482380D01*
X163258333Y-139482380D02*
X163305952Y-139530000D01*
X163305952Y-139530000D02*
X163401190Y-139577619D01*
X163401190Y-139577619D02*
X163591666Y-139577619D01*
X163591666Y-139577619D02*
X163686904Y-139530000D01*
X163686904Y-139530000D02*
X163734523Y-139482380D01*
X163734523Y-139482380D02*
X163782142Y-139387142D01*
X163782142Y-139387142D02*
X163782142Y-138577619D01*
X164115476Y-138577619D02*
X164686904Y-138577619D01*
X164401190Y-139577619D02*
X164401190Y-138577619D01*
X165020238Y-139196666D02*
X165782143Y-139196666D01*
X165401190Y-139577619D02*
X165401190Y-138815714D01*
X154733571Y-138577619D02*
X154924047Y-138577619D01*
X154924047Y-138577619D02*
X155019285Y-138625238D01*
X155019285Y-138625238D02*
X155114523Y-138720476D01*
X155114523Y-138720476D02*
X155162142Y-138910952D01*
X155162142Y-138910952D02*
X155162142Y-139244285D01*
X155162142Y-139244285D02*
X155114523Y-139434761D01*
X155114523Y-139434761D02*
X155019285Y-139530000D01*
X155019285Y-139530000D02*
X154924047Y-139577619D01*
X154924047Y-139577619D02*
X154733571Y-139577619D01*
X154733571Y-139577619D02*
X154638333Y-139530000D01*
X154638333Y-139530000D02*
X154543095Y-139434761D01*
X154543095Y-139434761D02*
X154495476Y-139244285D01*
X154495476Y-139244285D02*
X154495476Y-138910952D01*
X154495476Y-138910952D02*
X154543095Y-138720476D01*
X154543095Y-138720476D02*
X154638333Y-138625238D01*
X154638333Y-138625238D02*
X154733571Y-138577619D01*
X155590714Y-138577619D02*
X155590714Y-139387142D01*
X155590714Y-139387142D02*
X155638333Y-139482380D01*
X155638333Y-139482380D02*
X155685952Y-139530000D01*
X155685952Y-139530000D02*
X155781190Y-139577619D01*
X155781190Y-139577619D02*
X155971666Y-139577619D01*
X155971666Y-139577619D02*
X156066904Y-139530000D01*
X156066904Y-139530000D02*
X156114523Y-139482380D01*
X156114523Y-139482380D02*
X156162142Y-139387142D01*
X156162142Y-139387142D02*
X156162142Y-138577619D01*
X156495476Y-138577619D02*
X157066904Y-138577619D01*
X156781190Y-139577619D02*
X156781190Y-138577619D01*
X157400238Y-139196666D02*
X158162143Y-139196666D01*
X129000238Y-108732619D02*
X129571666Y-108732619D01*
X129285952Y-109732619D02*
X129285952Y-108732619D01*
X130381190Y-109732619D02*
X129905000Y-109732619D01*
X129905000Y-109732619D02*
X129905000Y-108732619D01*
X130905000Y-108732619D02*
X131000238Y-108732619D01*
X131000238Y-108732619D02*
X131095476Y-108780238D01*
X131095476Y-108780238D02*
X131143095Y-108827857D01*
X131143095Y-108827857D02*
X131190714Y-108923095D01*
X131190714Y-108923095D02*
X131238333Y-109113571D01*
X131238333Y-109113571D02*
X131238333Y-109351666D01*
X131238333Y-109351666D02*
X131190714Y-109542142D01*
X131190714Y-109542142D02*
X131143095Y-109637380D01*
X131143095Y-109637380D02*
X131095476Y-109685000D01*
X131095476Y-109685000D02*
X131000238Y-109732619D01*
X131000238Y-109732619D02*
X130905000Y-109732619D01*
X130905000Y-109732619D02*
X130809762Y-109685000D01*
X130809762Y-109685000D02*
X130762143Y-109637380D01*
X130762143Y-109637380D02*
X130714524Y-109542142D01*
X130714524Y-109542142D02*
X130666905Y-109351666D01*
X130666905Y-109351666D02*
X130666905Y-109113571D01*
X130666905Y-109113571D02*
X130714524Y-108923095D01*
X130714524Y-108923095D02*
X130762143Y-108827857D01*
X130762143Y-108827857D02*
X130809762Y-108780238D01*
X130809762Y-108780238D02*
X130905000Y-108732619D01*
X131571667Y-108732619D02*
X132238333Y-108732619D01*
X132238333Y-108732619D02*
X131809762Y-109732619D01*
X133143095Y-109732619D02*
X132571667Y-109732619D01*
X132857381Y-109732619D02*
X132857381Y-108732619D01*
X132857381Y-108732619D02*
X132762143Y-108875476D01*
X132762143Y-108875476D02*
X132666905Y-108970714D01*
X132666905Y-108970714D02*
X132571667Y-109018333D01*
X150669523Y-103382619D02*
X150336190Y-102906428D01*
X150098095Y-103382619D02*
X150098095Y-102382619D01*
X150098095Y-102382619D02*
X150479047Y-102382619D01*
X150479047Y-102382619D02*
X150574285Y-102430238D01*
X150574285Y-102430238D02*
X150621904Y-102477857D01*
X150621904Y-102477857D02*
X150669523Y-102573095D01*
X150669523Y-102573095D02*
X150669523Y-102715952D01*
X150669523Y-102715952D02*
X150621904Y-102811190D01*
X150621904Y-102811190D02*
X150574285Y-102858809D01*
X150574285Y-102858809D02*
X150479047Y-102906428D01*
X150479047Y-102906428D02*
X150098095Y-102906428D01*
X151621904Y-103382619D02*
X151050476Y-103382619D01*
X151336190Y-103382619D02*
X151336190Y-102382619D01*
X151336190Y-102382619D02*
X151240952Y-102525476D01*
X151240952Y-102525476D02*
X151145714Y-102620714D01*
X151145714Y-102620714D02*
X151050476Y-102668333D01*
X151955238Y-102382619D02*
X152574285Y-102382619D01*
X152574285Y-102382619D02*
X152240952Y-102763571D01*
X152240952Y-102763571D02*
X152383809Y-102763571D01*
X152383809Y-102763571D02*
X152479047Y-102811190D01*
X152479047Y-102811190D02*
X152526666Y-102858809D01*
X152526666Y-102858809D02*
X152574285Y-102954047D01*
X152574285Y-102954047D02*
X152574285Y-103192142D01*
X152574285Y-103192142D02*
X152526666Y-103287380D01*
X152526666Y-103287380D02*
X152479047Y-103335000D01*
X152479047Y-103335000D02*
X152383809Y-103382619D01*
X152383809Y-103382619D02*
X152098095Y-103382619D01*
X152098095Y-103382619D02*
X152002857Y-103335000D01*
X152002857Y-103335000D02*
X151955238Y-103287380D01*
X153336190Y-102858809D02*
X153479047Y-102906428D01*
X153479047Y-102906428D02*
X153526666Y-102954047D01*
X153526666Y-102954047D02*
X153574285Y-103049285D01*
X153574285Y-103049285D02*
X153574285Y-103192142D01*
X153574285Y-103192142D02*
X153526666Y-103287380D01*
X153526666Y-103287380D02*
X153479047Y-103335000D01*
X153479047Y-103335000D02*
X153383809Y-103382619D01*
X153383809Y-103382619D02*
X153002857Y-103382619D01*
X153002857Y-103382619D02*
X153002857Y-102382619D01*
X153002857Y-102382619D02*
X153336190Y-102382619D01*
X153336190Y-102382619D02*
X153431428Y-102430238D01*
X153431428Y-102430238D02*
X153479047Y-102477857D01*
X153479047Y-102477857D02*
X153526666Y-102573095D01*
X153526666Y-102573095D02*
X153526666Y-102668333D01*
X153526666Y-102668333D02*
X153479047Y-102763571D01*
X153479047Y-102763571D02*
X153431428Y-102811190D01*
X153431428Y-102811190D02*
X153336190Y-102858809D01*
X153336190Y-102858809D02*
X153002857Y-102858809D01*
X145589523Y-103382619D02*
X145256190Y-102906428D01*
X145018095Y-103382619D02*
X145018095Y-102382619D01*
X145018095Y-102382619D02*
X145399047Y-102382619D01*
X145399047Y-102382619D02*
X145494285Y-102430238D01*
X145494285Y-102430238D02*
X145541904Y-102477857D01*
X145541904Y-102477857D02*
X145589523Y-102573095D01*
X145589523Y-102573095D02*
X145589523Y-102715952D01*
X145589523Y-102715952D02*
X145541904Y-102811190D01*
X145541904Y-102811190D02*
X145494285Y-102858809D01*
X145494285Y-102858809D02*
X145399047Y-102906428D01*
X145399047Y-102906428D02*
X145018095Y-102906428D01*
X146541904Y-103382619D02*
X145970476Y-103382619D01*
X146256190Y-103382619D02*
X146256190Y-102382619D01*
X146256190Y-102382619D02*
X146160952Y-102525476D01*
X146160952Y-102525476D02*
X146065714Y-102620714D01*
X146065714Y-102620714D02*
X145970476Y-102668333D01*
X146875238Y-102382619D02*
X147494285Y-102382619D01*
X147494285Y-102382619D02*
X147160952Y-102763571D01*
X147160952Y-102763571D02*
X147303809Y-102763571D01*
X147303809Y-102763571D02*
X147399047Y-102811190D01*
X147399047Y-102811190D02*
X147446666Y-102858809D01*
X147446666Y-102858809D02*
X147494285Y-102954047D01*
X147494285Y-102954047D02*
X147494285Y-103192142D01*
X147494285Y-103192142D02*
X147446666Y-103287380D01*
X147446666Y-103287380D02*
X147399047Y-103335000D01*
X147399047Y-103335000D02*
X147303809Y-103382619D01*
X147303809Y-103382619D02*
X147018095Y-103382619D01*
X147018095Y-103382619D02*
X146922857Y-103335000D01*
X146922857Y-103335000D02*
X146875238Y-103287380D01*
X147875238Y-103096904D02*
X148351428Y-103096904D01*
X147780000Y-103382619D02*
X148113333Y-102382619D01*
X148113333Y-102382619D02*
X148446666Y-103382619D01*
X141096904Y-102747619D02*
X140525476Y-102747619D01*
X140811190Y-102747619D02*
X140811190Y-101747619D01*
X140811190Y-101747619D02*
X140715952Y-101890476D01*
X140715952Y-101890476D02*
X140620714Y-101985714D01*
X140620714Y-101985714D02*
X140525476Y-102033333D01*
X141715952Y-101747619D02*
X141811190Y-101747619D01*
X141811190Y-101747619D02*
X141906428Y-101795238D01*
X141906428Y-101795238D02*
X141954047Y-101842857D01*
X141954047Y-101842857D02*
X142001666Y-101938095D01*
X142001666Y-101938095D02*
X142049285Y-102128571D01*
X142049285Y-102128571D02*
X142049285Y-102366666D01*
X142049285Y-102366666D02*
X142001666Y-102557142D01*
X142001666Y-102557142D02*
X141954047Y-102652380D01*
X141954047Y-102652380D02*
X141906428Y-102700000D01*
X141906428Y-102700000D02*
X141811190Y-102747619D01*
X141811190Y-102747619D02*
X141715952Y-102747619D01*
X141715952Y-102747619D02*
X141620714Y-102700000D01*
X141620714Y-102700000D02*
X141573095Y-102652380D01*
X141573095Y-102652380D02*
X141525476Y-102557142D01*
X141525476Y-102557142D02*
X141477857Y-102366666D01*
X141477857Y-102366666D02*
X141477857Y-102128571D01*
X141477857Y-102128571D02*
X141525476Y-101938095D01*
X141525476Y-101938095D02*
X141573095Y-101842857D01*
X141573095Y-101842857D02*
X141620714Y-101795238D01*
X141620714Y-101795238D02*
X141715952Y-101747619D01*
X142477857Y-102080952D02*
X142477857Y-102747619D01*
X142477857Y-102176190D02*
X142525476Y-102128571D01*
X142525476Y-102128571D02*
X142620714Y-102080952D01*
X142620714Y-102080952D02*
X142763571Y-102080952D01*
X142763571Y-102080952D02*
X142858809Y-102128571D01*
X142858809Y-102128571D02*
X142906428Y-102223809D01*
X142906428Y-102223809D02*
X142906428Y-102747619D01*
X143715952Y-102223809D02*
X143382619Y-102223809D01*
X143382619Y-102747619D02*
X143382619Y-101747619D01*
X143382619Y-101747619D02*
X143858809Y-101747619D01*
X146176904Y-107192619D02*
X145605476Y-107192619D01*
X145891190Y-107192619D02*
X145891190Y-106192619D01*
X145891190Y-106192619D02*
X145795952Y-106335476D01*
X145795952Y-106335476D02*
X145700714Y-106430714D01*
X145700714Y-106430714D02*
X145605476Y-106478333D01*
X146795952Y-106192619D02*
X146891190Y-106192619D01*
X146891190Y-106192619D02*
X146986428Y-106240238D01*
X146986428Y-106240238D02*
X147034047Y-106287857D01*
X147034047Y-106287857D02*
X147081666Y-106383095D01*
X147081666Y-106383095D02*
X147129285Y-106573571D01*
X147129285Y-106573571D02*
X147129285Y-106811666D01*
X147129285Y-106811666D02*
X147081666Y-107002142D01*
X147081666Y-107002142D02*
X147034047Y-107097380D01*
X147034047Y-107097380D02*
X146986428Y-107145000D01*
X146986428Y-107145000D02*
X146891190Y-107192619D01*
X146891190Y-107192619D02*
X146795952Y-107192619D01*
X146795952Y-107192619D02*
X146700714Y-107145000D01*
X146700714Y-107145000D02*
X146653095Y-107097380D01*
X146653095Y-107097380D02*
X146605476Y-107002142D01*
X146605476Y-107002142D02*
X146557857Y-106811666D01*
X146557857Y-106811666D02*
X146557857Y-106573571D01*
X146557857Y-106573571D02*
X146605476Y-106383095D01*
X146605476Y-106383095D02*
X146653095Y-106287857D01*
X146653095Y-106287857D02*
X146700714Y-106240238D01*
X146700714Y-106240238D02*
X146795952Y-106192619D01*
X147748333Y-106192619D02*
X147843571Y-106192619D01*
X147843571Y-106192619D02*
X147938809Y-106240238D01*
X147938809Y-106240238D02*
X147986428Y-106287857D01*
X147986428Y-106287857D02*
X148034047Y-106383095D01*
X148034047Y-106383095D02*
X148081666Y-106573571D01*
X148081666Y-106573571D02*
X148081666Y-106811666D01*
X148081666Y-106811666D02*
X148034047Y-107002142D01*
X148034047Y-107002142D02*
X147986428Y-107097380D01*
X147986428Y-107097380D02*
X147938809Y-107145000D01*
X147938809Y-107145000D02*
X147843571Y-107192619D01*
X147843571Y-107192619D02*
X147748333Y-107192619D01*
X147748333Y-107192619D02*
X147653095Y-107145000D01*
X147653095Y-107145000D02*
X147605476Y-107097380D01*
X147605476Y-107097380D02*
X147557857Y-107002142D01*
X147557857Y-107002142D02*
X147510238Y-106811666D01*
X147510238Y-106811666D02*
X147510238Y-106573571D01*
X147510238Y-106573571D02*
X147557857Y-106383095D01*
X147557857Y-106383095D02*
X147605476Y-106287857D01*
X147605476Y-106287857D02*
X147653095Y-106240238D01*
X147653095Y-106240238D02*
X147748333Y-106192619D01*
X148510238Y-107192619D02*
X148510238Y-106192619D01*
X149081666Y-107192619D02*
X148653095Y-106621190D01*
X149081666Y-106192619D02*
X148510238Y-106764047D01*
X142366904Y-114177619D02*
X141795476Y-114177619D01*
X142081190Y-114177619D02*
X142081190Y-113177619D01*
X142081190Y-113177619D02*
X141985952Y-113320476D01*
X141985952Y-113320476D02*
X141890714Y-113415714D01*
X141890714Y-113415714D02*
X141795476Y-113463333D01*
X142985952Y-113177619D02*
X143081190Y-113177619D01*
X143081190Y-113177619D02*
X143176428Y-113225238D01*
X143176428Y-113225238D02*
X143224047Y-113272857D01*
X143224047Y-113272857D02*
X143271666Y-113368095D01*
X143271666Y-113368095D02*
X143319285Y-113558571D01*
X143319285Y-113558571D02*
X143319285Y-113796666D01*
X143319285Y-113796666D02*
X143271666Y-113987142D01*
X143271666Y-113987142D02*
X143224047Y-114082380D01*
X143224047Y-114082380D02*
X143176428Y-114130000D01*
X143176428Y-114130000D02*
X143081190Y-114177619D01*
X143081190Y-114177619D02*
X142985952Y-114177619D01*
X142985952Y-114177619D02*
X142890714Y-114130000D01*
X142890714Y-114130000D02*
X142843095Y-114082380D01*
X142843095Y-114082380D02*
X142795476Y-113987142D01*
X142795476Y-113987142D02*
X142747857Y-113796666D01*
X142747857Y-113796666D02*
X142747857Y-113558571D01*
X142747857Y-113558571D02*
X142795476Y-113368095D01*
X142795476Y-113368095D02*
X142843095Y-113272857D01*
X142843095Y-113272857D02*
X142890714Y-113225238D01*
X142890714Y-113225238D02*
X142985952Y-113177619D01*
X143747857Y-113510952D02*
X143747857Y-114177619D01*
X143747857Y-113606190D02*
X143795476Y-113558571D01*
X143795476Y-113558571D02*
X143890714Y-113510952D01*
X143890714Y-113510952D02*
X144033571Y-113510952D01*
X144033571Y-113510952D02*
X144128809Y-113558571D01*
X144128809Y-113558571D02*
X144176428Y-113653809D01*
X144176428Y-113653809D02*
X144176428Y-114177619D01*
X144985952Y-113653809D02*
X144652619Y-113653809D01*
X144652619Y-114177619D02*
X144652619Y-113177619D01*
X144652619Y-113177619D02*
X145128809Y-113177619D01*
X158781666Y-118590952D02*
X158781666Y-119257619D01*
X158543571Y-118210000D02*
X158305476Y-118924285D01*
X158305476Y-118924285D02*
X158924523Y-118924285D01*
X159210238Y-118257619D02*
X159876904Y-118257619D01*
X159876904Y-118257619D02*
X159448333Y-119257619D01*
X160448333Y-118257619D02*
X160543571Y-118257619D01*
X160543571Y-118257619D02*
X160638809Y-118305238D01*
X160638809Y-118305238D02*
X160686428Y-118352857D01*
X160686428Y-118352857D02*
X160734047Y-118448095D01*
X160734047Y-118448095D02*
X160781666Y-118638571D01*
X160781666Y-118638571D02*
X160781666Y-118876666D01*
X160781666Y-118876666D02*
X160734047Y-119067142D01*
X160734047Y-119067142D02*
X160686428Y-119162380D01*
X160686428Y-119162380D02*
X160638809Y-119210000D01*
X160638809Y-119210000D02*
X160543571Y-119257619D01*
X160543571Y-119257619D02*
X160448333Y-119257619D01*
X160448333Y-119257619D02*
X160353095Y-119210000D01*
X160353095Y-119210000D02*
X160305476Y-119162380D01*
X160305476Y-119162380D02*
X160257857Y-119067142D01*
X160257857Y-119067142D02*
X160210238Y-118876666D01*
X160210238Y-118876666D02*
X160210238Y-118638571D01*
X160210238Y-118638571D02*
X160257857Y-118448095D01*
X160257857Y-118448095D02*
X160305476Y-118352857D01*
X160305476Y-118352857D02*
X160353095Y-118305238D01*
X160353095Y-118305238D02*
X160448333Y-118257619D01*
X161210238Y-118590952D02*
X161210238Y-119590952D01*
X161210238Y-118638571D02*
X161305476Y-118590952D01*
X161305476Y-118590952D02*
X161495952Y-118590952D01*
X161495952Y-118590952D02*
X161591190Y-118638571D01*
X161591190Y-118638571D02*
X161638809Y-118686190D01*
X161638809Y-118686190D02*
X161686428Y-118781428D01*
X161686428Y-118781428D02*
X161686428Y-119067142D01*
X161686428Y-119067142D02*
X161638809Y-119162380D01*
X161638809Y-119162380D02*
X161591190Y-119210000D01*
X161591190Y-119210000D02*
X161495952Y-119257619D01*
X161495952Y-119257619D02*
X161305476Y-119257619D01*
X161305476Y-119257619D02*
X161210238Y-119210000D01*
X162448333Y-118733809D02*
X162115000Y-118733809D01*
X162115000Y-119257619D02*
X162115000Y-118257619D01*
X162115000Y-118257619D02*
X162591190Y-118257619D01*
X150621904Y-119257619D02*
X150050476Y-119257619D01*
X150336190Y-119257619D02*
X150336190Y-118257619D01*
X150336190Y-118257619D02*
X150240952Y-118400476D01*
X150240952Y-118400476D02*
X150145714Y-118495714D01*
X150145714Y-118495714D02*
X150050476Y-118543333D01*
X151240952Y-118257619D02*
X151336190Y-118257619D01*
X151336190Y-118257619D02*
X151431428Y-118305238D01*
X151431428Y-118305238D02*
X151479047Y-118352857D01*
X151479047Y-118352857D02*
X151526666Y-118448095D01*
X151526666Y-118448095D02*
X151574285Y-118638571D01*
X151574285Y-118638571D02*
X151574285Y-118876666D01*
X151574285Y-118876666D02*
X151526666Y-119067142D01*
X151526666Y-119067142D02*
X151479047Y-119162380D01*
X151479047Y-119162380D02*
X151431428Y-119210000D01*
X151431428Y-119210000D02*
X151336190Y-119257619D01*
X151336190Y-119257619D02*
X151240952Y-119257619D01*
X151240952Y-119257619D02*
X151145714Y-119210000D01*
X151145714Y-119210000D02*
X151098095Y-119162380D01*
X151098095Y-119162380D02*
X151050476Y-119067142D01*
X151050476Y-119067142D02*
X151002857Y-118876666D01*
X151002857Y-118876666D02*
X151002857Y-118638571D01*
X151002857Y-118638571D02*
X151050476Y-118448095D01*
X151050476Y-118448095D02*
X151098095Y-118352857D01*
X151098095Y-118352857D02*
X151145714Y-118305238D01*
X151145714Y-118305238D02*
X151240952Y-118257619D01*
X152193333Y-118257619D02*
X152288571Y-118257619D01*
X152288571Y-118257619D02*
X152383809Y-118305238D01*
X152383809Y-118305238D02*
X152431428Y-118352857D01*
X152431428Y-118352857D02*
X152479047Y-118448095D01*
X152479047Y-118448095D02*
X152526666Y-118638571D01*
X152526666Y-118638571D02*
X152526666Y-118876666D01*
X152526666Y-118876666D02*
X152479047Y-119067142D01*
X152479047Y-119067142D02*
X152431428Y-119162380D01*
X152431428Y-119162380D02*
X152383809Y-119210000D01*
X152383809Y-119210000D02*
X152288571Y-119257619D01*
X152288571Y-119257619D02*
X152193333Y-119257619D01*
X152193333Y-119257619D02*
X152098095Y-119210000D01*
X152098095Y-119210000D02*
X152050476Y-119162380D01*
X152050476Y-119162380D02*
X152002857Y-119067142D01*
X152002857Y-119067142D02*
X151955238Y-118876666D01*
X151955238Y-118876666D02*
X151955238Y-118638571D01*
X151955238Y-118638571D02*
X152002857Y-118448095D01*
X152002857Y-118448095D02*
X152050476Y-118352857D01*
X152050476Y-118352857D02*
X152098095Y-118305238D01*
X152098095Y-118305238D02*
X152193333Y-118257619D01*
X152955238Y-118590952D02*
X152955238Y-119257619D01*
X152955238Y-118686190D02*
X153002857Y-118638571D01*
X153002857Y-118638571D02*
X153098095Y-118590952D01*
X153098095Y-118590952D02*
X153240952Y-118590952D01*
X153240952Y-118590952D02*
X153336190Y-118638571D01*
X153336190Y-118638571D02*
X153383809Y-118733809D01*
X153383809Y-118733809D02*
X153383809Y-119257619D01*
X154193333Y-118733809D02*
X153860000Y-118733809D01*
X153860000Y-119257619D02*
X153860000Y-118257619D01*
X153860000Y-118257619D02*
X154336190Y-118257619D01*
X156336904Y-112272619D02*
X155765476Y-112272619D01*
X156051190Y-112272619D02*
X156051190Y-111272619D01*
X156051190Y-111272619D02*
X155955952Y-111415476D01*
X155955952Y-111415476D02*
X155860714Y-111510714D01*
X155860714Y-111510714D02*
X155765476Y-111558333D01*
X156955952Y-111272619D02*
X157051190Y-111272619D01*
X157051190Y-111272619D02*
X157146428Y-111320238D01*
X157146428Y-111320238D02*
X157194047Y-111367857D01*
X157194047Y-111367857D02*
X157241666Y-111463095D01*
X157241666Y-111463095D02*
X157289285Y-111653571D01*
X157289285Y-111653571D02*
X157289285Y-111891666D01*
X157289285Y-111891666D02*
X157241666Y-112082142D01*
X157241666Y-112082142D02*
X157194047Y-112177380D01*
X157194047Y-112177380D02*
X157146428Y-112225000D01*
X157146428Y-112225000D02*
X157051190Y-112272619D01*
X157051190Y-112272619D02*
X156955952Y-112272619D01*
X156955952Y-112272619D02*
X156860714Y-112225000D01*
X156860714Y-112225000D02*
X156813095Y-112177380D01*
X156813095Y-112177380D02*
X156765476Y-112082142D01*
X156765476Y-112082142D02*
X156717857Y-111891666D01*
X156717857Y-111891666D02*
X156717857Y-111653571D01*
X156717857Y-111653571D02*
X156765476Y-111463095D01*
X156765476Y-111463095D02*
X156813095Y-111367857D01*
X156813095Y-111367857D02*
X156860714Y-111320238D01*
X156860714Y-111320238D02*
X156955952Y-111272619D01*
X157908333Y-111272619D02*
X158003571Y-111272619D01*
X158003571Y-111272619D02*
X158098809Y-111320238D01*
X158098809Y-111320238D02*
X158146428Y-111367857D01*
X158146428Y-111367857D02*
X158194047Y-111463095D01*
X158194047Y-111463095D02*
X158241666Y-111653571D01*
X158241666Y-111653571D02*
X158241666Y-111891666D01*
X158241666Y-111891666D02*
X158194047Y-112082142D01*
X158194047Y-112082142D02*
X158146428Y-112177380D01*
X158146428Y-112177380D02*
X158098809Y-112225000D01*
X158098809Y-112225000D02*
X158003571Y-112272619D01*
X158003571Y-112272619D02*
X157908333Y-112272619D01*
X157908333Y-112272619D02*
X157813095Y-112225000D01*
X157813095Y-112225000D02*
X157765476Y-112177380D01*
X157765476Y-112177380D02*
X157717857Y-112082142D01*
X157717857Y-112082142D02*
X157670238Y-111891666D01*
X157670238Y-111891666D02*
X157670238Y-111653571D01*
X157670238Y-111653571D02*
X157717857Y-111463095D01*
X157717857Y-111463095D02*
X157765476Y-111367857D01*
X157765476Y-111367857D02*
X157813095Y-111320238D01*
X157813095Y-111320238D02*
X157908333Y-111272619D01*
X158670238Y-112272619D02*
X158670238Y-111272619D01*
X159241666Y-112272619D02*
X158813095Y-111701190D01*
X159241666Y-111272619D02*
X158670238Y-111844047D01*
X156336904Y-107192619D02*
X155765476Y-107192619D01*
X156051190Y-107192619D02*
X156051190Y-106192619D01*
X156051190Y-106192619D02*
X155955952Y-106335476D01*
X155955952Y-106335476D02*
X155860714Y-106430714D01*
X155860714Y-106430714D02*
X155765476Y-106478333D01*
X156955952Y-106192619D02*
X157051190Y-106192619D01*
X157051190Y-106192619D02*
X157146428Y-106240238D01*
X157146428Y-106240238D02*
X157194047Y-106287857D01*
X157194047Y-106287857D02*
X157241666Y-106383095D01*
X157241666Y-106383095D02*
X157289285Y-106573571D01*
X157289285Y-106573571D02*
X157289285Y-106811666D01*
X157289285Y-106811666D02*
X157241666Y-107002142D01*
X157241666Y-107002142D02*
X157194047Y-107097380D01*
X157194047Y-107097380D02*
X157146428Y-107145000D01*
X157146428Y-107145000D02*
X157051190Y-107192619D01*
X157051190Y-107192619D02*
X156955952Y-107192619D01*
X156955952Y-107192619D02*
X156860714Y-107145000D01*
X156860714Y-107145000D02*
X156813095Y-107097380D01*
X156813095Y-107097380D02*
X156765476Y-107002142D01*
X156765476Y-107002142D02*
X156717857Y-106811666D01*
X156717857Y-106811666D02*
X156717857Y-106573571D01*
X156717857Y-106573571D02*
X156765476Y-106383095D01*
X156765476Y-106383095D02*
X156813095Y-106287857D01*
X156813095Y-106287857D02*
X156860714Y-106240238D01*
X156860714Y-106240238D02*
X156955952Y-106192619D01*
X157908333Y-106192619D02*
X158003571Y-106192619D01*
X158003571Y-106192619D02*
X158098809Y-106240238D01*
X158098809Y-106240238D02*
X158146428Y-106287857D01*
X158146428Y-106287857D02*
X158194047Y-106383095D01*
X158194047Y-106383095D02*
X158241666Y-106573571D01*
X158241666Y-106573571D02*
X158241666Y-106811666D01*
X158241666Y-106811666D02*
X158194047Y-107002142D01*
X158194047Y-107002142D02*
X158146428Y-107097380D01*
X158146428Y-107097380D02*
X158098809Y-107145000D01*
X158098809Y-107145000D02*
X158003571Y-107192619D01*
X158003571Y-107192619D02*
X157908333Y-107192619D01*
X157908333Y-107192619D02*
X157813095Y-107145000D01*
X157813095Y-107145000D02*
X157765476Y-107097380D01*
X157765476Y-107097380D02*
X157717857Y-107002142D01*
X157717857Y-107002142D02*
X157670238Y-106811666D01*
X157670238Y-106811666D02*
X157670238Y-106573571D01*
X157670238Y-106573571D02*
X157717857Y-106383095D01*
X157717857Y-106383095D02*
X157765476Y-106287857D01*
X157765476Y-106287857D02*
X157813095Y-106240238D01*
X157813095Y-106240238D02*
X157908333Y-106192619D01*
X158670238Y-107192619D02*
X158670238Y-106192619D01*
X159241666Y-107192619D02*
X158813095Y-106621190D01*
X159241666Y-106192619D02*
X158670238Y-106764047D01*
X157606904Y-100842619D02*
X157035476Y-100842619D01*
X157321190Y-100842619D02*
X157321190Y-99842619D01*
X157321190Y-99842619D02*
X157225952Y-99985476D01*
X157225952Y-99985476D02*
X157130714Y-100080714D01*
X157130714Y-100080714D02*
X157035476Y-100128333D01*
X158225952Y-99842619D02*
X158321190Y-99842619D01*
X158321190Y-99842619D02*
X158416428Y-99890238D01*
X158416428Y-99890238D02*
X158464047Y-99937857D01*
X158464047Y-99937857D02*
X158511666Y-100033095D01*
X158511666Y-100033095D02*
X158559285Y-100223571D01*
X158559285Y-100223571D02*
X158559285Y-100461666D01*
X158559285Y-100461666D02*
X158511666Y-100652142D01*
X158511666Y-100652142D02*
X158464047Y-100747380D01*
X158464047Y-100747380D02*
X158416428Y-100795000D01*
X158416428Y-100795000D02*
X158321190Y-100842619D01*
X158321190Y-100842619D02*
X158225952Y-100842619D01*
X158225952Y-100842619D02*
X158130714Y-100795000D01*
X158130714Y-100795000D02*
X158083095Y-100747380D01*
X158083095Y-100747380D02*
X158035476Y-100652142D01*
X158035476Y-100652142D02*
X157987857Y-100461666D01*
X157987857Y-100461666D02*
X157987857Y-100223571D01*
X157987857Y-100223571D02*
X158035476Y-100033095D01*
X158035476Y-100033095D02*
X158083095Y-99937857D01*
X158083095Y-99937857D02*
X158130714Y-99890238D01*
X158130714Y-99890238D02*
X158225952Y-99842619D01*
X159178333Y-99842619D02*
X159273571Y-99842619D01*
X159273571Y-99842619D02*
X159368809Y-99890238D01*
X159368809Y-99890238D02*
X159416428Y-99937857D01*
X159416428Y-99937857D02*
X159464047Y-100033095D01*
X159464047Y-100033095D02*
X159511666Y-100223571D01*
X159511666Y-100223571D02*
X159511666Y-100461666D01*
X159511666Y-100461666D02*
X159464047Y-100652142D01*
X159464047Y-100652142D02*
X159416428Y-100747380D01*
X159416428Y-100747380D02*
X159368809Y-100795000D01*
X159368809Y-100795000D02*
X159273571Y-100842619D01*
X159273571Y-100842619D02*
X159178333Y-100842619D01*
X159178333Y-100842619D02*
X159083095Y-100795000D01*
X159083095Y-100795000D02*
X159035476Y-100747380D01*
X159035476Y-100747380D02*
X158987857Y-100652142D01*
X158987857Y-100652142D02*
X158940238Y-100461666D01*
X158940238Y-100461666D02*
X158940238Y-100223571D01*
X158940238Y-100223571D02*
X158987857Y-100033095D01*
X158987857Y-100033095D02*
X159035476Y-99937857D01*
X159035476Y-99937857D02*
X159083095Y-99890238D01*
X159083095Y-99890238D02*
X159178333Y-99842619D01*
X159940238Y-100842619D02*
X159940238Y-99842619D01*
X160511666Y-100842619D02*
X160083095Y-100271190D01*
X160511666Y-99842619D02*
X159940238Y-100414047D01*
X112569523Y-97667619D02*
X112236190Y-97191428D01*
X111998095Y-97667619D02*
X111998095Y-96667619D01*
X111998095Y-96667619D02*
X112379047Y-96667619D01*
X112379047Y-96667619D02*
X112474285Y-96715238D01*
X112474285Y-96715238D02*
X112521904Y-96762857D01*
X112521904Y-96762857D02*
X112569523Y-96858095D01*
X112569523Y-96858095D02*
X112569523Y-97000952D01*
X112569523Y-97000952D02*
X112521904Y-97096190D01*
X112521904Y-97096190D02*
X112474285Y-97143809D01*
X112474285Y-97143809D02*
X112379047Y-97191428D01*
X112379047Y-97191428D02*
X111998095Y-97191428D01*
X113521904Y-97667619D02*
X112950476Y-97667619D01*
X113236190Y-97667619D02*
X113236190Y-96667619D01*
X113236190Y-96667619D02*
X113140952Y-96810476D01*
X113140952Y-96810476D02*
X113045714Y-96905714D01*
X113045714Y-96905714D02*
X112950476Y-96953333D01*
X113902857Y-96762857D02*
X113950476Y-96715238D01*
X113950476Y-96715238D02*
X114045714Y-96667619D01*
X114045714Y-96667619D02*
X114283809Y-96667619D01*
X114283809Y-96667619D02*
X114379047Y-96715238D01*
X114379047Y-96715238D02*
X114426666Y-96762857D01*
X114426666Y-96762857D02*
X114474285Y-96858095D01*
X114474285Y-96858095D02*
X114474285Y-96953333D01*
X114474285Y-96953333D02*
X114426666Y-97096190D01*
X114426666Y-97096190D02*
X113855238Y-97667619D01*
X113855238Y-97667619D02*
X114474285Y-97667619D01*
X114855238Y-97381904D02*
X115331428Y-97381904D01*
X114760000Y-97667619D02*
X115093333Y-96667619D01*
X115093333Y-96667619D02*
X115426666Y-97667619D01*
X111886904Y-105922619D02*
X111315476Y-105922619D01*
X111601190Y-105922619D02*
X111601190Y-104922619D01*
X111601190Y-104922619D02*
X111505952Y-105065476D01*
X111505952Y-105065476D02*
X111410714Y-105160714D01*
X111410714Y-105160714D02*
X111315476Y-105208333D01*
X112505952Y-104922619D02*
X112601190Y-104922619D01*
X112601190Y-104922619D02*
X112696428Y-104970238D01*
X112696428Y-104970238D02*
X112744047Y-105017857D01*
X112744047Y-105017857D02*
X112791666Y-105113095D01*
X112791666Y-105113095D02*
X112839285Y-105303571D01*
X112839285Y-105303571D02*
X112839285Y-105541666D01*
X112839285Y-105541666D02*
X112791666Y-105732142D01*
X112791666Y-105732142D02*
X112744047Y-105827380D01*
X112744047Y-105827380D02*
X112696428Y-105875000D01*
X112696428Y-105875000D02*
X112601190Y-105922619D01*
X112601190Y-105922619D02*
X112505952Y-105922619D01*
X112505952Y-105922619D02*
X112410714Y-105875000D01*
X112410714Y-105875000D02*
X112363095Y-105827380D01*
X112363095Y-105827380D02*
X112315476Y-105732142D01*
X112315476Y-105732142D02*
X112267857Y-105541666D01*
X112267857Y-105541666D02*
X112267857Y-105303571D01*
X112267857Y-105303571D02*
X112315476Y-105113095D01*
X112315476Y-105113095D02*
X112363095Y-105017857D01*
X112363095Y-105017857D02*
X112410714Y-104970238D01*
X112410714Y-104970238D02*
X112505952Y-104922619D01*
X113458333Y-104922619D02*
X113553571Y-104922619D01*
X113553571Y-104922619D02*
X113648809Y-104970238D01*
X113648809Y-104970238D02*
X113696428Y-105017857D01*
X113696428Y-105017857D02*
X113744047Y-105113095D01*
X113744047Y-105113095D02*
X113791666Y-105303571D01*
X113791666Y-105303571D02*
X113791666Y-105541666D01*
X113791666Y-105541666D02*
X113744047Y-105732142D01*
X113744047Y-105732142D02*
X113696428Y-105827380D01*
X113696428Y-105827380D02*
X113648809Y-105875000D01*
X113648809Y-105875000D02*
X113553571Y-105922619D01*
X113553571Y-105922619D02*
X113458333Y-105922619D01*
X113458333Y-105922619D02*
X113363095Y-105875000D01*
X113363095Y-105875000D02*
X113315476Y-105827380D01*
X113315476Y-105827380D02*
X113267857Y-105732142D01*
X113267857Y-105732142D02*
X113220238Y-105541666D01*
X113220238Y-105541666D02*
X113220238Y-105303571D01*
X113220238Y-105303571D02*
X113267857Y-105113095D01*
X113267857Y-105113095D02*
X113315476Y-105017857D01*
X113315476Y-105017857D02*
X113363095Y-104970238D01*
X113363095Y-104970238D02*
X113458333Y-104922619D01*
X114220238Y-105922619D02*
X114220238Y-104922619D01*
X114791666Y-105922619D02*
X114363095Y-105351190D01*
X114791666Y-104922619D02*
X114220238Y-105494047D01*
X107489523Y-97667619D02*
X107156190Y-97191428D01*
X106918095Y-97667619D02*
X106918095Y-96667619D01*
X106918095Y-96667619D02*
X107299047Y-96667619D01*
X107299047Y-96667619D02*
X107394285Y-96715238D01*
X107394285Y-96715238D02*
X107441904Y-96762857D01*
X107441904Y-96762857D02*
X107489523Y-96858095D01*
X107489523Y-96858095D02*
X107489523Y-97000952D01*
X107489523Y-97000952D02*
X107441904Y-97096190D01*
X107441904Y-97096190D02*
X107394285Y-97143809D01*
X107394285Y-97143809D02*
X107299047Y-97191428D01*
X107299047Y-97191428D02*
X106918095Y-97191428D01*
X108441904Y-97667619D02*
X107870476Y-97667619D01*
X108156190Y-97667619D02*
X108156190Y-96667619D01*
X108156190Y-96667619D02*
X108060952Y-96810476D01*
X108060952Y-96810476D02*
X107965714Y-96905714D01*
X107965714Y-96905714D02*
X107870476Y-96953333D01*
X108822857Y-96762857D02*
X108870476Y-96715238D01*
X108870476Y-96715238D02*
X108965714Y-96667619D01*
X108965714Y-96667619D02*
X109203809Y-96667619D01*
X109203809Y-96667619D02*
X109299047Y-96715238D01*
X109299047Y-96715238D02*
X109346666Y-96762857D01*
X109346666Y-96762857D02*
X109394285Y-96858095D01*
X109394285Y-96858095D02*
X109394285Y-96953333D01*
X109394285Y-96953333D02*
X109346666Y-97096190D01*
X109346666Y-97096190D02*
X108775238Y-97667619D01*
X108775238Y-97667619D02*
X109394285Y-97667619D01*
X110156190Y-97143809D02*
X110299047Y-97191428D01*
X110299047Y-97191428D02*
X110346666Y-97239047D01*
X110346666Y-97239047D02*
X110394285Y-97334285D01*
X110394285Y-97334285D02*
X110394285Y-97477142D01*
X110394285Y-97477142D02*
X110346666Y-97572380D01*
X110346666Y-97572380D02*
X110299047Y-97620000D01*
X110299047Y-97620000D02*
X110203809Y-97667619D01*
X110203809Y-97667619D02*
X109822857Y-97667619D01*
X109822857Y-97667619D02*
X109822857Y-96667619D01*
X109822857Y-96667619D02*
X110156190Y-96667619D01*
X110156190Y-96667619D02*
X110251428Y-96715238D01*
X110251428Y-96715238D02*
X110299047Y-96762857D01*
X110299047Y-96762857D02*
X110346666Y-96858095D01*
X110346666Y-96858095D02*
X110346666Y-96953333D01*
X110346666Y-96953333D02*
X110299047Y-97048571D01*
X110299047Y-97048571D02*
X110251428Y-97096190D01*
X110251428Y-97096190D02*
X110156190Y-97143809D01*
X110156190Y-97143809D02*
X109822857Y-97143809D01*
X111204285Y-113542619D02*
X110728095Y-113542619D01*
X110728095Y-113542619D02*
X110728095Y-112542619D01*
X111537619Y-113542619D02*
X111537619Y-112542619D01*
X111537619Y-112542619D02*
X111870952Y-113256904D01*
X111870952Y-113256904D02*
X112204285Y-112542619D01*
X112204285Y-112542619D02*
X112204285Y-113542619D01*
X113251904Y-113447380D02*
X113204285Y-113495000D01*
X113204285Y-113495000D02*
X113061428Y-113542619D01*
X113061428Y-113542619D02*
X112966190Y-113542619D01*
X112966190Y-113542619D02*
X112823333Y-113495000D01*
X112823333Y-113495000D02*
X112728095Y-113399761D01*
X112728095Y-113399761D02*
X112680476Y-113304523D01*
X112680476Y-113304523D02*
X112632857Y-113114047D01*
X112632857Y-113114047D02*
X112632857Y-112971190D01*
X112632857Y-112971190D02*
X112680476Y-112780714D01*
X112680476Y-112780714D02*
X112728095Y-112685476D01*
X112728095Y-112685476D02*
X112823333Y-112590238D01*
X112823333Y-112590238D02*
X112966190Y-112542619D01*
X112966190Y-112542619D02*
X113061428Y-112542619D01*
X113061428Y-112542619D02*
X113204285Y-112590238D01*
X113204285Y-112590238D02*
X113251904Y-112637857D01*
X114156666Y-112542619D02*
X113680476Y-112542619D01*
X113680476Y-112542619D02*
X113632857Y-113018809D01*
X113632857Y-113018809D02*
X113680476Y-112971190D01*
X113680476Y-112971190D02*
X113775714Y-112923571D01*
X113775714Y-112923571D02*
X114013809Y-112923571D01*
X114013809Y-112923571D02*
X114109047Y-112971190D01*
X114109047Y-112971190D02*
X114156666Y-113018809D01*
X114156666Y-113018809D02*
X114204285Y-113114047D01*
X114204285Y-113114047D02*
X114204285Y-113352142D01*
X114204285Y-113352142D02*
X114156666Y-113447380D01*
X114156666Y-113447380D02*
X114109047Y-113495000D01*
X114109047Y-113495000D02*
X114013809Y-113542619D01*
X114013809Y-113542619D02*
X113775714Y-113542619D01*
X113775714Y-113542619D02*
X113680476Y-113495000D01*
X113680476Y-113495000D02*
X113632857Y-113447380D01*
X115061428Y-112542619D02*
X114870952Y-112542619D01*
X114870952Y-112542619D02*
X114775714Y-112590238D01*
X114775714Y-112590238D02*
X114728095Y-112637857D01*
X114728095Y-112637857D02*
X114632857Y-112780714D01*
X114632857Y-112780714D02*
X114585238Y-112971190D01*
X114585238Y-112971190D02*
X114585238Y-113352142D01*
X114585238Y-113352142D02*
X114632857Y-113447380D01*
X114632857Y-113447380D02*
X114680476Y-113495000D01*
X114680476Y-113495000D02*
X114775714Y-113542619D01*
X114775714Y-113542619D02*
X114966190Y-113542619D01*
X114966190Y-113542619D02*
X115061428Y-113495000D01*
X115061428Y-113495000D02*
X115109047Y-113447380D01*
X115109047Y-113447380D02*
X115156666Y-113352142D01*
X115156666Y-113352142D02*
X115156666Y-113114047D01*
X115156666Y-113114047D02*
X115109047Y-113018809D01*
X115109047Y-113018809D02*
X115061428Y-112971190D01*
X115061428Y-112971190D02*
X114966190Y-112923571D01*
X114966190Y-112923571D02*
X114775714Y-112923571D01*
X114775714Y-112923571D02*
X114680476Y-112971190D01*
X114680476Y-112971190D02*
X114632857Y-113018809D01*
X114632857Y-113018809D02*
X114585238Y-113114047D01*
X115490000Y-112542619D02*
X116156666Y-112542619D01*
X116156666Y-112542619D02*
X115728095Y-113542619D01*
%TO.C,J12*%
X135080476Y-133852619D02*
X135080476Y-134566904D01*
X135080476Y-134566904D02*
X135032857Y-134709761D01*
X135032857Y-134709761D02*
X134937619Y-134805000D01*
X134937619Y-134805000D02*
X134794762Y-134852619D01*
X134794762Y-134852619D02*
X134699524Y-134852619D01*
X136080476Y-134852619D02*
X135509048Y-134852619D01*
X135794762Y-134852619D02*
X135794762Y-133852619D01*
X135794762Y-133852619D02*
X135699524Y-133995476D01*
X135699524Y-133995476D02*
X135604286Y-134090714D01*
X135604286Y-134090714D02*
X135509048Y-134138333D01*
X136461429Y-133947857D02*
X136509048Y-133900238D01*
X136509048Y-133900238D02*
X136604286Y-133852619D01*
X136604286Y-133852619D02*
X136842381Y-133852619D01*
X136842381Y-133852619D02*
X136937619Y-133900238D01*
X136937619Y-133900238D02*
X136985238Y-133947857D01*
X136985238Y-133947857D02*
X137032857Y-134043095D01*
X137032857Y-134043095D02*
X137032857Y-134138333D01*
X137032857Y-134138333D02*
X136985238Y-134281190D01*
X136985238Y-134281190D02*
X136413810Y-134852619D01*
X136413810Y-134852619D02*
X137032857Y-134852619D01*
%TO.C,R5*%
X150963333Y-112222619D02*
X150630000Y-111746428D01*
X150391905Y-112222619D02*
X150391905Y-111222619D01*
X150391905Y-111222619D02*
X150772857Y-111222619D01*
X150772857Y-111222619D02*
X150868095Y-111270238D01*
X150868095Y-111270238D02*
X150915714Y-111317857D01*
X150915714Y-111317857D02*
X150963333Y-111413095D01*
X150963333Y-111413095D02*
X150963333Y-111555952D01*
X150963333Y-111555952D02*
X150915714Y-111651190D01*
X150915714Y-111651190D02*
X150868095Y-111698809D01*
X150868095Y-111698809D02*
X150772857Y-111746428D01*
X150772857Y-111746428D02*
X150391905Y-111746428D01*
X151868095Y-111222619D02*
X151391905Y-111222619D01*
X151391905Y-111222619D02*
X151344286Y-111698809D01*
X151344286Y-111698809D02*
X151391905Y-111651190D01*
X151391905Y-111651190D02*
X151487143Y-111603571D01*
X151487143Y-111603571D02*
X151725238Y-111603571D01*
X151725238Y-111603571D02*
X151820476Y-111651190D01*
X151820476Y-111651190D02*
X151868095Y-111698809D01*
X151868095Y-111698809D02*
X151915714Y-111794047D01*
X151915714Y-111794047D02*
X151915714Y-112032142D01*
X151915714Y-112032142D02*
X151868095Y-112127380D01*
X151868095Y-112127380D02*
X151820476Y-112175000D01*
X151820476Y-112175000D02*
X151725238Y-112222619D01*
X151725238Y-112222619D02*
X151487143Y-112222619D01*
X151487143Y-112222619D02*
X151391905Y-112175000D01*
X151391905Y-112175000D02*
X151344286Y-112127380D01*
%TO.C,J11*%
X138890476Y-133852619D02*
X138890476Y-134566904D01*
X138890476Y-134566904D02*
X138842857Y-134709761D01*
X138842857Y-134709761D02*
X138747619Y-134805000D01*
X138747619Y-134805000D02*
X138604762Y-134852619D01*
X138604762Y-134852619D02*
X138509524Y-134852619D01*
X139890476Y-134852619D02*
X139319048Y-134852619D01*
X139604762Y-134852619D02*
X139604762Y-133852619D01*
X139604762Y-133852619D02*
X139509524Y-133995476D01*
X139509524Y-133995476D02*
X139414286Y-134090714D01*
X139414286Y-134090714D02*
X139319048Y-134138333D01*
X140842857Y-134852619D02*
X140271429Y-134852619D01*
X140557143Y-134852619D02*
X140557143Y-133852619D01*
X140557143Y-133852619D02*
X140461905Y-133995476D01*
X140461905Y-133995476D02*
X140366667Y-134090714D01*
X140366667Y-134090714D02*
X140271429Y-134138333D01*
%TO.C,R6*%
X142073333Y-124922619D02*
X141740000Y-124446428D01*
X141501905Y-124922619D02*
X141501905Y-123922619D01*
X141501905Y-123922619D02*
X141882857Y-123922619D01*
X141882857Y-123922619D02*
X141978095Y-123970238D01*
X141978095Y-123970238D02*
X142025714Y-124017857D01*
X142025714Y-124017857D02*
X142073333Y-124113095D01*
X142073333Y-124113095D02*
X142073333Y-124255952D01*
X142073333Y-124255952D02*
X142025714Y-124351190D01*
X142025714Y-124351190D02*
X141978095Y-124398809D01*
X141978095Y-124398809D02*
X141882857Y-124446428D01*
X141882857Y-124446428D02*
X141501905Y-124446428D01*
X142930476Y-123922619D02*
X142740000Y-123922619D01*
X142740000Y-123922619D02*
X142644762Y-123970238D01*
X142644762Y-123970238D02*
X142597143Y-124017857D01*
X142597143Y-124017857D02*
X142501905Y-124160714D01*
X142501905Y-124160714D02*
X142454286Y-124351190D01*
X142454286Y-124351190D02*
X142454286Y-124732142D01*
X142454286Y-124732142D02*
X142501905Y-124827380D01*
X142501905Y-124827380D02*
X142549524Y-124875000D01*
X142549524Y-124875000D02*
X142644762Y-124922619D01*
X142644762Y-124922619D02*
X142835238Y-124922619D01*
X142835238Y-124922619D02*
X142930476Y-124875000D01*
X142930476Y-124875000D02*
X142978095Y-124827380D01*
X142978095Y-124827380D02*
X143025714Y-124732142D01*
X143025714Y-124732142D02*
X143025714Y-124494047D01*
X143025714Y-124494047D02*
X142978095Y-124398809D01*
X142978095Y-124398809D02*
X142930476Y-124351190D01*
X142930476Y-124351190D02*
X142835238Y-124303571D01*
X142835238Y-124303571D02*
X142644762Y-124303571D01*
X142644762Y-124303571D02*
X142549524Y-124351190D01*
X142549524Y-124351190D02*
X142501905Y-124398809D01*
X142501905Y-124398809D02*
X142454286Y-124494047D01*
%TO.C,J5*%
X111426666Y-133852619D02*
X111426666Y-134566904D01*
X111426666Y-134566904D02*
X111379047Y-134709761D01*
X111379047Y-134709761D02*
X111283809Y-134805000D01*
X111283809Y-134805000D02*
X111140952Y-134852619D01*
X111140952Y-134852619D02*
X111045714Y-134852619D01*
X112379047Y-133852619D02*
X111902857Y-133852619D01*
X111902857Y-133852619D02*
X111855238Y-134328809D01*
X111855238Y-134328809D02*
X111902857Y-134281190D01*
X111902857Y-134281190D02*
X111998095Y-134233571D01*
X111998095Y-134233571D02*
X112236190Y-134233571D01*
X112236190Y-134233571D02*
X112331428Y-134281190D01*
X112331428Y-134281190D02*
X112379047Y-134328809D01*
X112379047Y-134328809D02*
X112426666Y-134424047D01*
X112426666Y-134424047D02*
X112426666Y-134662142D01*
X112426666Y-134662142D02*
X112379047Y-134757380D01*
X112379047Y-134757380D02*
X112331428Y-134805000D01*
X112331428Y-134805000D02*
X112236190Y-134852619D01*
X112236190Y-134852619D02*
X111998095Y-134852619D01*
X111998095Y-134852619D02*
X111902857Y-134805000D01*
X111902857Y-134805000D02*
X111855238Y-134757380D01*
%TO.C,J8*%
X146986666Y-97022619D02*
X146986666Y-97736904D01*
X146986666Y-97736904D02*
X146939047Y-97879761D01*
X146939047Y-97879761D02*
X146843809Y-97975000D01*
X146843809Y-97975000D02*
X146700952Y-98022619D01*
X146700952Y-98022619D02*
X146605714Y-98022619D01*
X147605714Y-97451190D02*
X147510476Y-97403571D01*
X147510476Y-97403571D02*
X147462857Y-97355952D01*
X147462857Y-97355952D02*
X147415238Y-97260714D01*
X147415238Y-97260714D02*
X147415238Y-97213095D01*
X147415238Y-97213095D02*
X147462857Y-97117857D01*
X147462857Y-97117857D02*
X147510476Y-97070238D01*
X147510476Y-97070238D02*
X147605714Y-97022619D01*
X147605714Y-97022619D02*
X147796190Y-97022619D01*
X147796190Y-97022619D02*
X147891428Y-97070238D01*
X147891428Y-97070238D02*
X147939047Y-97117857D01*
X147939047Y-97117857D02*
X147986666Y-97213095D01*
X147986666Y-97213095D02*
X147986666Y-97260714D01*
X147986666Y-97260714D02*
X147939047Y-97355952D01*
X147939047Y-97355952D02*
X147891428Y-97403571D01*
X147891428Y-97403571D02*
X147796190Y-97451190D01*
X147796190Y-97451190D02*
X147605714Y-97451190D01*
X147605714Y-97451190D02*
X147510476Y-97498809D01*
X147510476Y-97498809D02*
X147462857Y-97546428D01*
X147462857Y-97546428D02*
X147415238Y-97641666D01*
X147415238Y-97641666D02*
X147415238Y-97832142D01*
X147415238Y-97832142D02*
X147462857Y-97927380D01*
X147462857Y-97927380D02*
X147510476Y-97975000D01*
X147510476Y-97975000D02*
X147605714Y-98022619D01*
X147605714Y-98022619D02*
X147796190Y-98022619D01*
X147796190Y-98022619D02*
X147891428Y-97975000D01*
X147891428Y-97975000D02*
X147939047Y-97927380D01*
X147939047Y-97927380D02*
X147986666Y-97832142D01*
X147986666Y-97832142D02*
X147986666Y-97641666D01*
X147986666Y-97641666D02*
X147939047Y-97546428D01*
X147939047Y-97546428D02*
X147891428Y-97498809D01*
X147891428Y-97498809D02*
X147796190Y-97451190D01*
%TO.C,D3*%
X145946905Y-128732619D02*
X145946905Y-127732619D01*
X145946905Y-127732619D02*
X146185000Y-127732619D01*
X146185000Y-127732619D02*
X146327857Y-127780238D01*
X146327857Y-127780238D02*
X146423095Y-127875476D01*
X146423095Y-127875476D02*
X146470714Y-127970714D01*
X146470714Y-127970714D02*
X146518333Y-128161190D01*
X146518333Y-128161190D02*
X146518333Y-128304047D01*
X146518333Y-128304047D02*
X146470714Y-128494523D01*
X146470714Y-128494523D02*
X146423095Y-128589761D01*
X146423095Y-128589761D02*
X146327857Y-128685000D01*
X146327857Y-128685000D02*
X146185000Y-128732619D01*
X146185000Y-128732619D02*
X145946905Y-128732619D01*
X146851667Y-127732619D02*
X147470714Y-127732619D01*
X147470714Y-127732619D02*
X147137381Y-128113571D01*
X147137381Y-128113571D02*
X147280238Y-128113571D01*
X147280238Y-128113571D02*
X147375476Y-128161190D01*
X147375476Y-128161190D02*
X147423095Y-128208809D01*
X147423095Y-128208809D02*
X147470714Y-128304047D01*
X147470714Y-128304047D02*
X147470714Y-128542142D01*
X147470714Y-128542142D02*
X147423095Y-128637380D01*
X147423095Y-128637380D02*
X147375476Y-128685000D01*
X147375476Y-128685000D02*
X147280238Y-128732619D01*
X147280238Y-128732619D02*
X146994524Y-128732619D01*
X146994524Y-128732619D02*
X146899286Y-128685000D01*
X146899286Y-128685000D02*
X146851667Y-128637380D01*
%TO.C,C8*%
X140803333Y-110222380D02*
X140755714Y-110270000D01*
X140755714Y-110270000D02*
X140612857Y-110317619D01*
X140612857Y-110317619D02*
X140517619Y-110317619D01*
X140517619Y-110317619D02*
X140374762Y-110270000D01*
X140374762Y-110270000D02*
X140279524Y-110174761D01*
X140279524Y-110174761D02*
X140231905Y-110079523D01*
X140231905Y-110079523D02*
X140184286Y-109889047D01*
X140184286Y-109889047D02*
X140184286Y-109746190D01*
X140184286Y-109746190D02*
X140231905Y-109555714D01*
X140231905Y-109555714D02*
X140279524Y-109460476D01*
X140279524Y-109460476D02*
X140374762Y-109365238D01*
X140374762Y-109365238D02*
X140517619Y-109317619D01*
X140517619Y-109317619D02*
X140612857Y-109317619D01*
X140612857Y-109317619D02*
X140755714Y-109365238D01*
X140755714Y-109365238D02*
X140803333Y-109412857D01*
X141374762Y-109746190D02*
X141279524Y-109698571D01*
X141279524Y-109698571D02*
X141231905Y-109650952D01*
X141231905Y-109650952D02*
X141184286Y-109555714D01*
X141184286Y-109555714D02*
X141184286Y-109508095D01*
X141184286Y-109508095D02*
X141231905Y-109412857D01*
X141231905Y-109412857D02*
X141279524Y-109365238D01*
X141279524Y-109365238D02*
X141374762Y-109317619D01*
X141374762Y-109317619D02*
X141565238Y-109317619D01*
X141565238Y-109317619D02*
X141660476Y-109365238D01*
X141660476Y-109365238D02*
X141708095Y-109412857D01*
X141708095Y-109412857D02*
X141755714Y-109508095D01*
X141755714Y-109508095D02*
X141755714Y-109555714D01*
X141755714Y-109555714D02*
X141708095Y-109650952D01*
X141708095Y-109650952D02*
X141660476Y-109698571D01*
X141660476Y-109698571D02*
X141565238Y-109746190D01*
X141565238Y-109746190D02*
X141374762Y-109746190D01*
X141374762Y-109746190D02*
X141279524Y-109793809D01*
X141279524Y-109793809D02*
X141231905Y-109841428D01*
X141231905Y-109841428D02*
X141184286Y-109936666D01*
X141184286Y-109936666D02*
X141184286Y-110127142D01*
X141184286Y-110127142D02*
X141231905Y-110222380D01*
X141231905Y-110222380D02*
X141279524Y-110270000D01*
X141279524Y-110270000D02*
X141374762Y-110317619D01*
X141374762Y-110317619D02*
X141565238Y-110317619D01*
X141565238Y-110317619D02*
X141660476Y-110270000D01*
X141660476Y-110270000D02*
X141708095Y-110222380D01*
X141708095Y-110222380D02*
X141755714Y-110127142D01*
X141755714Y-110127142D02*
X141755714Y-109936666D01*
X141755714Y-109936666D02*
X141708095Y-109841428D01*
X141708095Y-109841428D02*
X141660476Y-109793809D01*
X141660476Y-109793809D02*
X141565238Y-109746190D01*
%TO.C,R7*%
X142073333Y-117302619D02*
X141740000Y-116826428D01*
X141501905Y-117302619D02*
X141501905Y-116302619D01*
X141501905Y-116302619D02*
X141882857Y-116302619D01*
X141882857Y-116302619D02*
X141978095Y-116350238D01*
X141978095Y-116350238D02*
X142025714Y-116397857D01*
X142025714Y-116397857D02*
X142073333Y-116493095D01*
X142073333Y-116493095D02*
X142073333Y-116635952D01*
X142073333Y-116635952D02*
X142025714Y-116731190D01*
X142025714Y-116731190D02*
X141978095Y-116778809D01*
X141978095Y-116778809D02*
X141882857Y-116826428D01*
X141882857Y-116826428D02*
X141501905Y-116826428D01*
X142406667Y-116302619D02*
X143073333Y-116302619D01*
X143073333Y-116302619D02*
X142644762Y-117302619D01*
%TO.C,R3*%
X104602619Y-129706666D02*
X104126428Y-130039999D01*
X104602619Y-130278094D02*
X103602619Y-130278094D01*
X103602619Y-130278094D02*
X103602619Y-129897142D01*
X103602619Y-129897142D02*
X103650238Y-129801904D01*
X103650238Y-129801904D02*
X103697857Y-129754285D01*
X103697857Y-129754285D02*
X103793095Y-129706666D01*
X103793095Y-129706666D02*
X103935952Y-129706666D01*
X103935952Y-129706666D02*
X104031190Y-129754285D01*
X104031190Y-129754285D02*
X104078809Y-129801904D01*
X104078809Y-129801904D02*
X104126428Y-129897142D01*
X104126428Y-129897142D02*
X104126428Y-130278094D01*
X103602619Y-129373332D02*
X103602619Y-128754285D01*
X103602619Y-128754285D02*
X103983571Y-129087618D01*
X103983571Y-129087618D02*
X103983571Y-128944761D01*
X103983571Y-128944761D02*
X104031190Y-128849523D01*
X104031190Y-128849523D02*
X104078809Y-128801904D01*
X104078809Y-128801904D02*
X104174047Y-128754285D01*
X104174047Y-128754285D02*
X104412142Y-128754285D01*
X104412142Y-128754285D02*
X104507380Y-128801904D01*
X104507380Y-128801904D02*
X104555000Y-128849523D01*
X104555000Y-128849523D02*
X104602619Y-128944761D01*
X104602619Y-128944761D02*
X104602619Y-129230475D01*
X104602619Y-129230475D02*
X104555000Y-129325713D01*
X104555000Y-129325713D02*
X104507380Y-129373332D01*
%TO.C,R9*%
X154138333Y-104602619D02*
X153805000Y-104126428D01*
X153566905Y-104602619D02*
X153566905Y-103602619D01*
X153566905Y-103602619D02*
X153947857Y-103602619D01*
X153947857Y-103602619D02*
X154043095Y-103650238D01*
X154043095Y-103650238D02*
X154090714Y-103697857D01*
X154090714Y-103697857D02*
X154138333Y-103793095D01*
X154138333Y-103793095D02*
X154138333Y-103935952D01*
X154138333Y-103935952D02*
X154090714Y-104031190D01*
X154090714Y-104031190D02*
X154043095Y-104078809D01*
X154043095Y-104078809D02*
X153947857Y-104126428D01*
X153947857Y-104126428D02*
X153566905Y-104126428D01*
X154614524Y-104602619D02*
X154805000Y-104602619D01*
X154805000Y-104602619D02*
X154900238Y-104555000D01*
X154900238Y-104555000D02*
X154947857Y-104507380D01*
X154947857Y-104507380D02*
X155043095Y-104364523D01*
X155043095Y-104364523D02*
X155090714Y-104174047D01*
X155090714Y-104174047D02*
X155090714Y-103793095D01*
X155090714Y-103793095D02*
X155043095Y-103697857D01*
X155043095Y-103697857D02*
X154995476Y-103650238D01*
X154995476Y-103650238D02*
X154900238Y-103602619D01*
X154900238Y-103602619D02*
X154709762Y-103602619D01*
X154709762Y-103602619D02*
X154614524Y-103650238D01*
X154614524Y-103650238D02*
X154566905Y-103697857D01*
X154566905Y-103697857D02*
X154519286Y-103793095D01*
X154519286Y-103793095D02*
X154519286Y-104031190D01*
X154519286Y-104031190D02*
X154566905Y-104126428D01*
X154566905Y-104126428D02*
X154614524Y-104174047D01*
X154614524Y-104174047D02*
X154709762Y-104221666D01*
X154709762Y-104221666D02*
X154900238Y-104221666D01*
X154900238Y-104221666D02*
X154995476Y-104174047D01*
X154995476Y-104174047D02*
X155043095Y-104126428D01*
X155043095Y-104126428D02*
X155090714Y-104031190D01*
%TO.C,C4*%
X125117380Y-120836666D02*
X125165000Y-120884285D01*
X125165000Y-120884285D02*
X125212619Y-121027142D01*
X125212619Y-121027142D02*
X125212619Y-121122380D01*
X125212619Y-121122380D02*
X125165000Y-121265237D01*
X125165000Y-121265237D02*
X125069761Y-121360475D01*
X125069761Y-121360475D02*
X124974523Y-121408094D01*
X124974523Y-121408094D02*
X124784047Y-121455713D01*
X124784047Y-121455713D02*
X124641190Y-121455713D01*
X124641190Y-121455713D02*
X124450714Y-121408094D01*
X124450714Y-121408094D02*
X124355476Y-121360475D01*
X124355476Y-121360475D02*
X124260238Y-121265237D01*
X124260238Y-121265237D02*
X124212619Y-121122380D01*
X124212619Y-121122380D02*
X124212619Y-121027142D01*
X124212619Y-121027142D02*
X124260238Y-120884285D01*
X124260238Y-120884285D02*
X124307857Y-120836666D01*
X124545952Y-119979523D02*
X125212619Y-119979523D01*
X124165000Y-120217618D02*
X124879285Y-120455713D01*
X124879285Y-120455713D02*
X124879285Y-119836666D01*
%TO.C,J6*%
X162226666Y-133852619D02*
X162226666Y-134566904D01*
X162226666Y-134566904D02*
X162179047Y-134709761D01*
X162179047Y-134709761D02*
X162083809Y-134805000D01*
X162083809Y-134805000D02*
X161940952Y-134852619D01*
X161940952Y-134852619D02*
X161845714Y-134852619D01*
X163131428Y-133852619D02*
X162940952Y-133852619D01*
X162940952Y-133852619D02*
X162845714Y-133900238D01*
X162845714Y-133900238D02*
X162798095Y-133947857D01*
X162798095Y-133947857D02*
X162702857Y-134090714D01*
X162702857Y-134090714D02*
X162655238Y-134281190D01*
X162655238Y-134281190D02*
X162655238Y-134662142D01*
X162655238Y-134662142D02*
X162702857Y-134757380D01*
X162702857Y-134757380D02*
X162750476Y-134805000D01*
X162750476Y-134805000D02*
X162845714Y-134852619D01*
X162845714Y-134852619D02*
X163036190Y-134852619D01*
X163036190Y-134852619D02*
X163131428Y-134805000D01*
X163131428Y-134805000D02*
X163179047Y-134757380D01*
X163179047Y-134757380D02*
X163226666Y-134662142D01*
X163226666Y-134662142D02*
X163226666Y-134424047D01*
X163226666Y-134424047D02*
X163179047Y-134328809D01*
X163179047Y-134328809D02*
X163131428Y-134281190D01*
X163131428Y-134281190D02*
X163036190Y-134233571D01*
X163036190Y-134233571D02*
X162845714Y-134233571D01*
X162845714Y-134233571D02*
X162750476Y-134281190D01*
X162750476Y-134281190D02*
X162702857Y-134328809D01*
X162702857Y-134328809D02*
X162655238Y-134424047D01*
%TO.C,R8*%
X142073333Y-121112619D02*
X141740000Y-120636428D01*
X141501905Y-121112619D02*
X141501905Y-120112619D01*
X141501905Y-120112619D02*
X141882857Y-120112619D01*
X141882857Y-120112619D02*
X141978095Y-120160238D01*
X141978095Y-120160238D02*
X142025714Y-120207857D01*
X142025714Y-120207857D02*
X142073333Y-120303095D01*
X142073333Y-120303095D02*
X142073333Y-120445952D01*
X142073333Y-120445952D02*
X142025714Y-120541190D01*
X142025714Y-120541190D02*
X141978095Y-120588809D01*
X141978095Y-120588809D02*
X141882857Y-120636428D01*
X141882857Y-120636428D02*
X141501905Y-120636428D01*
X142644762Y-120541190D02*
X142549524Y-120493571D01*
X142549524Y-120493571D02*
X142501905Y-120445952D01*
X142501905Y-120445952D02*
X142454286Y-120350714D01*
X142454286Y-120350714D02*
X142454286Y-120303095D01*
X142454286Y-120303095D02*
X142501905Y-120207857D01*
X142501905Y-120207857D02*
X142549524Y-120160238D01*
X142549524Y-120160238D02*
X142644762Y-120112619D01*
X142644762Y-120112619D02*
X142835238Y-120112619D01*
X142835238Y-120112619D02*
X142930476Y-120160238D01*
X142930476Y-120160238D02*
X142978095Y-120207857D01*
X142978095Y-120207857D02*
X143025714Y-120303095D01*
X143025714Y-120303095D02*
X143025714Y-120350714D01*
X143025714Y-120350714D02*
X142978095Y-120445952D01*
X142978095Y-120445952D02*
X142930476Y-120493571D01*
X142930476Y-120493571D02*
X142835238Y-120541190D01*
X142835238Y-120541190D02*
X142644762Y-120541190D01*
X142644762Y-120541190D02*
X142549524Y-120588809D01*
X142549524Y-120588809D02*
X142501905Y-120636428D01*
X142501905Y-120636428D02*
X142454286Y-120731666D01*
X142454286Y-120731666D02*
X142454286Y-120922142D01*
X142454286Y-120922142D02*
X142501905Y-121017380D01*
X142501905Y-121017380D02*
X142549524Y-121065000D01*
X142549524Y-121065000D02*
X142644762Y-121112619D01*
X142644762Y-121112619D02*
X142835238Y-121112619D01*
X142835238Y-121112619D02*
X142930476Y-121065000D01*
X142930476Y-121065000D02*
X142978095Y-121017380D01*
X142978095Y-121017380D02*
X143025714Y-120922142D01*
X143025714Y-120922142D02*
X143025714Y-120731666D01*
X143025714Y-120731666D02*
X142978095Y-120636428D01*
X142978095Y-120636428D02*
X142930476Y-120588809D01*
X142930476Y-120588809D02*
X142835238Y-120541190D01*
%TO.C,D2*%
X159281905Y-128732619D02*
X159281905Y-127732619D01*
X159281905Y-127732619D02*
X159520000Y-127732619D01*
X159520000Y-127732619D02*
X159662857Y-127780238D01*
X159662857Y-127780238D02*
X159758095Y-127875476D01*
X159758095Y-127875476D02*
X159805714Y-127970714D01*
X159805714Y-127970714D02*
X159853333Y-128161190D01*
X159853333Y-128161190D02*
X159853333Y-128304047D01*
X159853333Y-128304047D02*
X159805714Y-128494523D01*
X159805714Y-128494523D02*
X159758095Y-128589761D01*
X159758095Y-128589761D02*
X159662857Y-128685000D01*
X159662857Y-128685000D02*
X159520000Y-128732619D01*
X159520000Y-128732619D02*
X159281905Y-128732619D01*
X160234286Y-127827857D02*
X160281905Y-127780238D01*
X160281905Y-127780238D02*
X160377143Y-127732619D01*
X160377143Y-127732619D02*
X160615238Y-127732619D01*
X160615238Y-127732619D02*
X160710476Y-127780238D01*
X160710476Y-127780238D02*
X160758095Y-127827857D01*
X160758095Y-127827857D02*
X160805714Y-127923095D01*
X160805714Y-127923095D02*
X160805714Y-128018333D01*
X160805714Y-128018333D02*
X160758095Y-128161190D01*
X160758095Y-128161190D02*
X160186667Y-128732619D01*
X160186667Y-128732619D02*
X160805714Y-128732619D01*
X155948095Y-126932619D02*
X155948095Y-125932619D01*
X156519523Y-126932619D02*
X156090952Y-126361190D01*
X156519523Y-125932619D02*
X155948095Y-126504047D01*
%TO.C,J2*%
X115236666Y-99792619D02*
X115236666Y-100506904D01*
X115236666Y-100506904D02*
X115189047Y-100649761D01*
X115189047Y-100649761D02*
X115093809Y-100745000D01*
X115093809Y-100745000D02*
X114950952Y-100792619D01*
X114950952Y-100792619D02*
X114855714Y-100792619D01*
X115665238Y-99887857D02*
X115712857Y-99840238D01*
X115712857Y-99840238D02*
X115808095Y-99792619D01*
X115808095Y-99792619D02*
X116046190Y-99792619D01*
X116046190Y-99792619D02*
X116141428Y-99840238D01*
X116141428Y-99840238D02*
X116189047Y-99887857D01*
X116189047Y-99887857D02*
X116236666Y-99983095D01*
X116236666Y-99983095D02*
X116236666Y-100078333D01*
X116236666Y-100078333D02*
X116189047Y-100221190D01*
X116189047Y-100221190D02*
X115617619Y-100792619D01*
X115617619Y-100792619D02*
X116236666Y-100792619D01*
%TO.C,C2*%
X120463333Y-98447380D02*
X120415714Y-98495000D01*
X120415714Y-98495000D02*
X120272857Y-98542619D01*
X120272857Y-98542619D02*
X120177619Y-98542619D01*
X120177619Y-98542619D02*
X120034762Y-98495000D01*
X120034762Y-98495000D02*
X119939524Y-98399761D01*
X119939524Y-98399761D02*
X119891905Y-98304523D01*
X119891905Y-98304523D02*
X119844286Y-98114047D01*
X119844286Y-98114047D02*
X119844286Y-97971190D01*
X119844286Y-97971190D02*
X119891905Y-97780714D01*
X119891905Y-97780714D02*
X119939524Y-97685476D01*
X119939524Y-97685476D02*
X120034762Y-97590238D01*
X120034762Y-97590238D02*
X120177619Y-97542619D01*
X120177619Y-97542619D02*
X120272857Y-97542619D01*
X120272857Y-97542619D02*
X120415714Y-97590238D01*
X120415714Y-97590238D02*
X120463333Y-97637857D01*
X120844286Y-97637857D02*
X120891905Y-97590238D01*
X120891905Y-97590238D02*
X120987143Y-97542619D01*
X120987143Y-97542619D02*
X121225238Y-97542619D01*
X121225238Y-97542619D02*
X121320476Y-97590238D01*
X121320476Y-97590238D02*
X121368095Y-97637857D01*
X121368095Y-97637857D02*
X121415714Y-97733095D01*
X121415714Y-97733095D02*
X121415714Y-97828333D01*
X121415714Y-97828333D02*
X121368095Y-97971190D01*
X121368095Y-97971190D02*
X120796667Y-98542619D01*
X120796667Y-98542619D02*
X121415714Y-98542619D01*
%TO.C,C6*%
X129373333Y-129907380D02*
X129325714Y-129955000D01*
X129325714Y-129955000D02*
X129182857Y-130002619D01*
X129182857Y-130002619D02*
X129087619Y-130002619D01*
X129087619Y-130002619D02*
X128944762Y-129955000D01*
X128944762Y-129955000D02*
X128849524Y-129859761D01*
X128849524Y-129859761D02*
X128801905Y-129764523D01*
X128801905Y-129764523D02*
X128754286Y-129574047D01*
X128754286Y-129574047D02*
X128754286Y-129431190D01*
X128754286Y-129431190D02*
X128801905Y-129240714D01*
X128801905Y-129240714D02*
X128849524Y-129145476D01*
X128849524Y-129145476D02*
X128944762Y-129050238D01*
X128944762Y-129050238D02*
X129087619Y-129002619D01*
X129087619Y-129002619D02*
X129182857Y-129002619D01*
X129182857Y-129002619D02*
X129325714Y-129050238D01*
X129325714Y-129050238D02*
X129373333Y-129097857D01*
X130230476Y-129002619D02*
X130040000Y-129002619D01*
X130040000Y-129002619D02*
X129944762Y-129050238D01*
X129944762Y-129050238D02*
X129897143Y-129097857D01*
X129897143Y-129097857D02*
X129801905Y-129240714D01*
X129801905Y-129240714D02*
X129754286Y-129431190D01*
X129754286Y-129431190D02*
X129754286Y-129812142D01*
X129754286Y-129812142D02*
X129801905Y-129907380D01*
X129801905Y-129907380D02*
X129849524Y-129955000D01*
X129849524Y-129955000D02*
X129944762Y-130002619D01*
X129944762Y-130002619D02*
X130135238Y-130002619D01*
X130135238Y-130002619D02*
X130230476Y-129955000D01*
X130230476Y-129955000D02*
X130278095Y-129907380D01*
X130278095Y-129907380D02*
X130325714Y-129812142D01*
X130325714Y-129812142D02*
X130325714Y-129574047D01*
X130325714Y-129574047D02*
X130278095Y-129478809D01*
X130278095Y-129478809D02*
X130230476Y-129431190D01*
X130230476Y-129431190D02*
X130135238Y-129383571D01*
X130135238Y-129383571D02*
X129944762Y-129383571D01*
X129944762Y-129383571D02*
X129849524Y-129431190D01*
X129849524Y-129431190D02*
X129801905Y-129478809D01*
X129801905Y-129478809D02*
X129754286Y-129574047D01*
%TO.C,U1*%
X106352619Y-113791904D02*
X107162142Y-113791904D01*
X107162142Y-113791904D02*
X107257380Y-113744285D01*
X107257380Y-113744285D02*
X107305000Y-113696666D01*
X107305000Y-113696666D02*
X107352619Y-113601428D01*
X107352619Y-113601428D02*
X107352619Y-113410952D01*
X107352619Y-113410952D02*
X107305000Y-113315714D01*
X107305000Y-113315714D02*
X107257380Y-113268095D01*
X107257380Y-113268095D02*
X107162142Y-113220476D01*
X107162142Y-113220476D02*
X106352619Y-113220476D01*
X107352619Y-112220476D02*
X107352619Y-112791904D01*
X107352619Y-112506190D02*
X106352619Y-112506190D01*
X106352619Y-112506190D02*
X106495476Y-112601428D01*
X106495476Y-112601428D02*
X106590714Y-112696666D01*
X106590714Y-112696666D02*
X106638333Y-112791904D01*
%TO.C,J7*%
X158416666Y-133852619D02*
X158416666Y-134566904D01*
X158416666Y-134566904D02*
X158369047Y-134709761D01*
X158369047Y-134709761D02*
X158273809Y-134805000D01*
X158273809Y-134805000D02*
X158130952Y-134852619D01*
X158130952Y-134852619D02*
X158035714Y-134852619D01*
X158797619Y-133852619D02*
X159464285Y-133852619D01*
X159464285Y-133852619D02*
X159035714Y-134852619D01*
%TO.C,J1*%
X126666666Y-102332619D02*
X126666666Y-103046904D01*
X126666666Y-103046904D02*
X126619047Y-103189761D01*
X126619047Y-103189761D02*
X126523809Y-103285000D01*
X126523809Y-103285000D02*
X126380952Y-103332619D01*
X126380952Y-103332619D02*
X126285714Y-103332619D01*
X127666666Y-103332619D02*
X127095238Y-103332619D01*
X127380952Y-103332619D02*
X127380952Y-102332619D01*
X127380952Y-102332619D02*
X127285714Y-102475476D01*
X127285714Y-102475476D02*
X127190476Y-102570714D01*
X127190476Y-102570714D02*
X127095238Y-102618333D01*
%TO.C,D1*%
X159281905Y-123652619D02*
X159281905Y-122652619D01*
X159281905Y-122652619D02*
X159520000Y-122652619D01*
X159520000Y-122652619D02*
X159662857Y-122700238D01*
X159662857Y-122700238D02*
X159758095Y-122795476D01*
X159758095Y-122795476D02*
X159805714Y-122890714D01*
X159805714Y-122890714D02*
X159853333Y-123081190D01*
X159853333Y-123081190D02*
X159853333Y-123224047D01*
X159853333Y-123224047D02*
X159805714Y-123414523D01*
X159805714Y-123414523D02*
X159758095Y-123509761D01*
X159758095Y-123509761D02*
X159662857Y-123605000D01*
X159662857Y-123605000D02*
X159520000Y-123652619D01*
X159520000Y-123652619D02*
X159281905Y-123652619D01*
X160805714Y-123652619D02*
X160234286Y-123652619D01*
X160520000Y-123652619D02*
X160520000Y-122652619D01*
X160520000Y-122652619D02*
X160424762Y-122795476D01*
X160424762Y-122795476D02*
X160329524Y-122890714D01*
X160329524Y-122890714D02*
X160234286Y-122938333D01*
X163568095Y-125452619D02*
X163568095Y-124452619D01*
X164139523Y-125452619D02*
X163710952Y-124881190D01*
X164139523Y-124452619D02*
X163568095Y-125024047D01*
%TO.C,J10*%
X142700476Y-133852619D02*
X142700476Y-134566904D01*
X142700476Y-134566904D02*
X142652857Y-134709761D01*
X142652857Y-134709761D02*
X142557619Y-134805000D01*
X142557619Y-134805000D02*
X142414762Y-134852619D01*
X142414762Y-134852619D02*
X142319524Y-134852619D01*
X143700476Y-134852619D02*
X143129048Y-134852619D01*
X143414762Y-134852619D02*
X143414762Y-133852619D01*
X143414762Y-133852619D02*
X143319524Y-133995476D01*
X143319524Y-133995476D02*
X143224286Y-134090714D01*
X143224286Y-134090714D02*
X143129048Y-134138333D01*
X144319524Y-133852619D02*
X144414762Y-133852619D01*
X144414762Y-133852619D02*
X144510000Y-133900238D01*
X144510000Y-133900238D02*
X144557619Y-133947857D01*
X144557619Y-133947857D02*
X144605238Y-134043095D01*
X144605238Y-134043095D02*
X144652857Y-134233571D01*
X144652857Y-134233571D02*
X144652857Y-134471666D01*
X144652857Y-134471666D02*
X144605238Y-134662142D01*
X144605238Y-134662142D02*
X144557619Y-134757380D01*
X144557619Y-134757380D02*
X144510000Y-134805000D01*
X144510000Y-134805000D02*
X144414762Y-134852619D01*
X144414762Y-134852619D02*
X144319524Y-134852619D01*
X144319524Y-134852619D02*
X144224286Y-134805000D01*
X144224286Y-134805000D02*
X144176667Y-134757380D01*
X144176667Y-134757380D02*
X144129048Y-134662142D01*
X144129048Y-134662142D02*
X144081429Y-134471666D01*
X144081429Y-134471666D02*
X144081429Y-134233571D01*
X144081429Y-134233571D02*
X144129048Y-134043095D01*
X144129048Y-134043095D02*
X144176667Y-133947857D01*
X144176667Y-133947857D02*
X144224286Y-133900238D01*
X144224286Y-133900238D02*
X144319524Y-133852619D01*
%TO.C,C3*%
X110222380Y-127166666D02*
X110270000Y-127214285D01*
X110270000Y-127214285D02*
X110317619Y-127357142D01*
X110317619Y-127357142D02*
X110317619Y-127452380D01*
X110317619Y-127452380D02*
X110270000Y-127595237D01*
X110270000Y-127595237D02*
X110174761Y-127690475D01*
X110174761Y-127690475D02*
X110079523Y-127738094D01*
X110079523Y-127738094D02*
X109889047Y-127785713D01*
X109889047Y-127785713D02*
X109746190Y-127785713D01*
X109746190Y-127785713D02*
X109555714Y-127738094D01*
X109555714Y-127738094D02*
X109460476Y-127690475D01*
X109460476Y-127690475D02*
X109365238Y-127595237D01*
X109365238Y-127595237D02*
X109317619Y-127452380D01*
X109317619Y-127452380D02*
X109317619Y-127357142D01*
X109317619Y-127357142D02*
X109365238Y-127214285D01*
X109365238Y-127214285D02*
X109412857Y-127166666D01*
X109317619Y-126833332D02*
X109317619Y-126214285D01*
X109317619Y-126214285D02*
X109698571Y-126547618D01*
X109698571Y-126547618D02*
X109698571Y-126404761D01*
X109698571Y-126404761D02*
X109746190Y-126309523D01*
X109746190Y-126309523D02*
X109793809Y-126261904D01*
X109793809Y-126261904D02*
X109889047Y-126214285D01*
X109889047Y-126214285D02*
X110127142Y-126214285D01*
X110127142Y-126214285D02*
X110222380Y-126261904D01*
X110222380Y-126261904D02*
X110270000Y-126309523D01*
X110270000Y-126309523D02*
X110317619Y-126404761D01*
X110317619Y-126404761D02*
X110317619Y-126690475D01*
X110317619Y-126690475D02*
X110270000Y-126785713D01*
X110270000Y-126785713D02*
X110222380Y-126833332D01*
%TO.C,R1*%
X124922619Y-117006666D02*
X124446428Y-117339999D01*
X124922619Y-117578094D02*
X123922619Y-117578094D01*
X123922619Y-117578094D02*
X123922619Y-117197142D01*
X123922619Y-117197142D02*
X123970238Y-117101904D01*
X123970238Y-117101904D02*
X124017857Y-117054285D01*
X124017857Y-117054285D02*
X124113095Y-117006666D01*
X124113095Y-117006666D02*
X124255952Y-117006666D01*
X124255952Y-117006666D02*
X124351190Y-117054285D01*
X124351190Y-117054285D02*
X124398809Y-117101904D01*
X124398809Y-117101904D02*
X124446428Y-117197142D01*
X124446428Y-117197142D02*
X124446428Y-117578094D01*
X124922619Y-116054285D02*
X124922619Y-116625713D01*
X124922619Y-116339999D02*
X123922619Y-116339999D01*
X123922619Y-116339999D02*
X124065476Y-116435237D01*
X124065476Y-116435237D02*
X124160714Y-116530475D01*
X124160714Y-116530475D02*
X124208333Y-116625713D01*
%TO.C,J4*%
X107616666Y-133852619D02*
X107616666Y-134566904D01*
X107616666Y-134566904D02*
X107569047Y-134709761D01*
X107569047Y-134709761D02*
X107473809Y-134805000D01*
X107473809Y-134805000D02*
X107330952Y-134852619D01*
X107330952Y-134852619D02*
X107235714Y-134852619D01*
X108521428Y-134185952D02*
X108521428Y-134852619D01*
X108283333Y-133805000D02*
X108045238Y-134519285D01*
X108045238Y-134519285D02*
X108664285Y-134519285D01*
%TO.C,C1*%
X114768333Y-119747380D02*
X114720714Y-119795000D01*
X114720714Y-119795000D02*
X114577857Y-119842619D01*
X114577857Y-119842619D02*
X114482619Y-119842619D01*
X114482619Y-119842619D02*
X114339762Y-119795000D01*
X114339762Y-119795000D02*
X114244524Y-119699761D01*
X114244524Y-119699761D02*
X114196905Y-119604523D01*
X114196905Y-119604523D02*
X114149286Y-119414047D01*
X114149286Y-119414047D02*
X114149286Y-119271190D01*
X114149286Y-119271190D02*
X114196905Y-119080714D01*
X114196905Y-119080714D02*
X114244524Y-118985476D01*
X114244524Y-118985476D02*
X114339762Y-118890238D01*
X114339762Y-118890238D02*
X114482619Y-118842619D01*
X114482619Y-118842619D02*
X114577857Y-118842619D01*
X114577857Y-118842619D02*
X114720714Y-118890238D01*
X114720714Y-118890238D02*
X114768333Y-118937857D01*
X115720714Y-119842619D02*
X115149286Y-119842619D01*
X115435000Y-119842619D02*
X115435000Y-118842619D01*
X115435000Y-118842619D02*
X115339762Y-118985476D01*
X115339762Y-118985476D02*
X115244524Y-119080714D01*
X115244524Y-119080714D02*
X115149286Y-119128333D01*
%TO.C,C5*%
X147153333Y-117207380D02*
X147105714Y-117255000D01*
X147105714Y-117255000D02*
X146962857Y-117302619D01*
X146962857Y-117302619D02*
X146867619Y-117302619D01*
X146867619Y-117302619D02*
X146724762Y-117255000D01*
X146724762Y-117255000D02*
X146629524Y-117159761D01*
X146629524Y-117159761D02*
X146581905Y-117064523D01*
X146581905Y-117064523D02*
X146534286Y-116874047D01*
X146534286Y-116874047D02*
X146534286Y-116731190D01*
X146534286Y-116731190D02*
X146581905Y-116540714D01*
X146581905Y-116540714D02*
X146629524Y-116445476D01*
X146629524Y-116445476D02*
X146724762Y-116350238D01*
X146724762Y-116350238D02*
X146867619Y-116302619D01*
X146867619Y-116302619D02*
X146962857Y-116302619D01*
X146962857Y-116302619D02*
X147105714Y-116350238D01*
X147105714Y-116350238D02*
X147153333Y-116397857D01*
X148058095Y-116302619D02*
X147581905Y-116302619D01*
X147581905Y-116302619D02*
X147534286Y-116778809D01*
X147534286Y-116778809D02*
X147581905Y-116731190D01*
X147581905Y-116731190D02*
X147677143Y-116683571D01*
X147677143Y-116683571D02*
X147915238Y-116683571D01*
X147915238Y-116683571D02*
X148010476Y-116731190D01*
X148010476Y-116731190D02*
X148058095Y-116778809D01*
X148058095Y-116778809D02*
X148105714Y-116874047D01*
X148105714Y-116874047D02*
X148105714Y-117112142D01*
X148105714Y-117112142D02*
X148058095Y-117207380D01*
X148058095Y-117207380D02*
X148010476Y-117255000D01*
X148010476Y-117255000D02*
X147915238Y-117302619D01*
X147915238Y-117302619D02*
X147677143Y-117302619D01*
X147677143Y-117302619D02*
X147581905Y-117255000D01*
X147581905Y-117255000D02*
X147534286Y-117207380D01*
%TO.C,C9*%
X142093333Y-98447380D02*
X142045714Y-98495000D01*
X142045714Y-98495000D02*
X141902857Y-98542619D01*
X141902857Y-98542619D02*
X141807619Y-98542619D01*
X141807619Y-98542619D02*
X141664762Y-98495000D01*
X141664762Y-98495000D02*
X141569524Y-98399761D01*
X141569524Y-98399761D02*
X141521905Y-98304523D01*
X141521905Y-98304523D02*
X141474286Y-98114047D01*
X141474286Y-98114047D02*
X141474286Y-97971190D01*
X141474286Y-97971190D02*
X141521905Y-97780714D01*
X141521905Y-97780714D02*
X141569524Y-97685476D01*
X141569524Y-97685476D02*
X141664762Y-97590238D01*
X141664762Y-97590238D02*
X141807619Y-97542619D01*
X141807619Y-97542619D02*
X141902857Y-97542619D01*
X141902857Y-97542619D02*
X142045714Y-97590238D01*
X142045714Y-97590238D02*
X142093333Y-97637857D01*
X142569524Y-98542619D02*
X142760000Y-98542619D01*
X142760000Y-98542619D02*
X142855238Y-98495000D01*
X142855238Y-98495000D02*
X142902857Y-98447380D01*
X142902857Y-98447380D02*
X142998095Y-98304523D01*
X142998095Y-98304523D02*
X143045714Y-98114047D01*
X143045714Y-98114047D02*
X143045714Y-97733095D01*
X143045714Y-97733095D02*
X142998095Y-97637857D01*
X142998095Y-97637857D02*
X142950476Y-97590238D01*
X142950476Y-97590238D02*
X142855238Y-97542619D01*
X142855238Y-97542619D02*
X142664762Y-97542619D01*
X142664762Y-97542619D02*
X142569524Y-97590238D01*
X142569524Y-97590238D02*
X142521905Y-97637857D01*
X142521905Y-97637857D02*
X142474286Y-97733095D01*
X142474286Y-97733095D02*
X142474286Y-97971190D01*
X142474286Y-97971190D02*
X142521905Y-98066428D01*
X142521905Y-98066428D02*
X142569524Y-98114047D01*
X142569524Y-98114047D02*
X142664762Y-98161666D01*
X142664762Y-98161666D02*
X142855238Y-98161666D01*
X142855238Y-98161666D02*
X142950476Y-98114047D01*
X142950476Y-98114047D02*
X142998095Y-98066428D01*
X142998095Y-98066428D02*
X143045714Y-97971190D01*
%TO.C,C7*%
X163663333Y-117207380D02*
X163615714Y-117255000D01*
X163615714Y-117255000D02*
X163472857Y-117302619D01*
X163472857Y-117302619D02*
X163377619Y-117302619D01*
X163377619Y-117302619D02*
X163234762Y-117255000D01*
X163234762Y-117255000D02*
X163139524Y-117159761D01*
X163139524Y-117159761D02*
X163091905Y-117064523D01*
X163091905Y-117064523D02*
X163044286Y-116874047D01*
X163044286Y-116874047D02*
X163044286Y-116731190D01*
X163044286Y-116731190D02*
X163091905Y-116540714D01*
X163091905Y-116540714D02*
X163139524Y-116445476D01*
X163139524Y-116445476D02*
X163234762Y-116350238D01*
X163234762Y-116350238D02*
X163377619Y-116302619D01*
X163377619Y-116302619D02*
X163472857Y-116302619D01*
X163472857Y-116302619D02*
X163615714Y-116350238D01*
X163615714Y-116350238D02*
X163663333Y-116397857D01*
X163996667Y-116302619D02*
X164663333Y-116302619D01*
X164663333Y-116302619D02*
X164234762Y-117302619D01*
%TO.C,U2*%
X124142619Y-109971904D02*
X124952142Y-109971904D01*
X124952142Y-109971904D02*
X125047380Y-109924285D01*
X125047380Y-109924285D02*
X125095000Y-109876666D01*
X125095000Y-109876666D02*
X125142619Y-109781428D01*
X125142619Y-109781428D02*
X125142619Y-109590952D01*
X125142619Y-109590952D02*
X125095000Y-109495714D01*
X125095000Y-109495714D02*
X125047380Y-109448095D01*
X125047380Y-109448095D02*
X124952142Y-109400476D01*
X124952142Y-109400476D02*
X124142619Y-109400476D01*
X124237857Y-108971904D02*
X124190238Y-108924285D01*
X124190238Y-108924285D02*
X124142619Y-108829047D01*
X124142619Y-108829047D02*
X124142619Y-108590952D01*
X124142619Y-108590952D02*
X124190238Y-108495714D01*
X124190238Y-108495714D02*
X124237857Y-108448095D01*
X124237857Y-108448095D02*
X124333095Y-108400476D01*
X124333095Y-108400476D02*
X124428333Y-108400476D01*
X124428333Y-108400476D02*
X124571190Y-108448095D01*
X124571190Y-108448095D02*
X125142619Y-109019523D01*
X125142619Y-109019523D02*
X125142619Y-108400476D01*
%TO.C,J13*%
X130000476Y-102332619D02*
X130000476Y-103046904D01*
X130000476Y-103046904D02*
X129952857Y-103189761D01*
X129952857Y-103189761D02*
X129857619Y-103285000D01*
X129857619Y-103285000D02*
X129714762Y-103332619D01*
X129714762Y-103332619D02*
X129619524Y-103332619D01*
X131000476Y-103332619D02*
X130429048Y-103332619D01*
X130714762Y-103332619D02*
X130714762Y-102332619D01*
X130714762Y-102332619D02*
X130619524Y-102475476D01*
X130619524Y-102475476D02*
X130524286Y-102570714D01*
X130524286Y-102570714D02*
X130429048Y-102618333D01*
X131333810Y-102332619D02*
X131952857Y-102332619D01*
X131952857Y-102332619D02*
X131619524Y-102713571D01*
X131619524Y-102713571D02*
X131762381Y-102713571D01*
X131762381Y-102713571D02*
X131857619Y-102761190D01*
X131857619Y-102761190D02*
X131905238Y-102808809D01*
X131905238Y-102808809D02*
X131952857Y-102904047D01*
X131952857Y-102904047D02*
X131952857Y-103142142D01*
X131952857Y-103142142D02*
X131905238Y-103237380D01*
X131905238Y-103237380D02*
X131857619Y-103285000D01*
X131857619Y-103285000D02*
X131762381Y-103332619D01*
X131762381Y-103332619D02*
X131476667Y-103332619D01*
X131476667Y-103332619D02*
X131381429Y-103285000D01*
X131381429Y-103285000D02*
X131333810Y-103237380D01*
%TO.C,R2*%
X106513333Y-105872619D02*
X106180000Y-105396428D01*
X105941905Y-105872619D02*
X105941905Y-104872619D01*
X105941905Y-104872619D02*
X106322857Y-104872619D01*
X106322857Y-104872619D02*
X106418095Y-104920238D01*
X106418095Y-104920238D02*
X106465714Y-104967857D01*
X106465714Y-104967857D02*
X106513333Y-105063095D01*
X106513333Y-105063095D02*
X106513333Y-105205952D01*
X106513333Y-105205952D02*
X106465714Y-105301190D01*
X106465714Y-105301190D02*
X106418095Y-105348809D01*
X106418095Y-105348809D02*
X106322857Y-105396428D01*
X106322857Y-105396428D02*
X105941905Y-105396428D01*
X106894286Y-104967857D02*
X106941905Y-104920238D01*
X106941905Y-104920238D02*
X107037143Y-104872619D01*
X107037143Y-104872619D02*
X107275238Y-104872619D01*
X107275238Y-104872619D02*
X107370476Y-104920238D01*
X107370476Y-104920238D02*
X107418095Y-104967857D01*
X107418095Y-104967857D02*
X107465714Y-105063095D01*
X107465714Y-105063095D02*
X107465714Y-105158333D01*
X107465714Y-105158333D02*
X107418095Y-105301190D01*
X107418095Y-105301190D02*
X106846667Y-105872619D01*
X106846667Y-105872619D02*
X107465714Y-105872619D01*
%TO.C,J9*%
X150796666Y-97022619D02*
X150796666Y-97736904D01*
X150796666Y-97736904D02*
X150749047Y-97879761D01*
X150749047Y-97879761D02*
X150653809Y-97975000D01*
X150653809Y-97975000D02*
X150510952Y-98022619D01*
X150510952Y-98022619D02*
X150415714Y-98022619D01*
X151320476Y-98022619D02*
X151510952Y-98022619D01*
X151510952Y-98022619D02*
X151606190Y-97975000D01*
X151606190Y-97975000D02*
X151653809Y-97927380D01*
X151653809Y-97927380D02*
X151749047Y-97784523D01*
X151749047Y-97784523D02*
X151796666Y-97594047D01*
X151796666Y-97594047D02*
X151796666Y-97213095D01*
X151796666Y-97213095D02*
X151749047Y-97117857D01*
X151749047Y-97117857D02*
X151701428Y-97070238D01*
X151701428Y-97070238D02*
X151606190Y-97022619D01*
X151606190Y-97022619D02*
X151415714Y-97022619D01*
X151415714Y-97022619D02*
X151320476Y-97070238D01*
X151320476Y-97070238D02*
X151272857Y-97117857D01*
X151272857Y-97117857D02*
X151225238Y-97213095D01*
X151225238Y-97213095D02*
X151225238Y-97451190D01*
X151225238Y-97451190D02*
X151272857Y-97546428D01*
X151272857Y-97546428D02*
X151320476Y-97594047D01*
X151320476Y-97594047D02*
X151415714Y-97641666D01*
X151415714Y-97641666D02*
X151606190Y-97641666D01*
X151606190Y-97641666D02*
X151701428Y-97594047D01*
X151701428Y-97594047D02*
X151749047Y-97546428D01*
X151749047Y-97546428D02*
X151796666Y-97451190D01*
%TO.C,R4*%
X119848333Y-131272619D02*
X119515000Y-130796428D01*
X119276905Y-131272619D02*
X119276905Y-130272619D01*
X119276905Y-130272619D02*
X119657857Y-130272619D01*
X119657857Y-130272619D02*
X119753095Y-130320238D01*
X119753095Y-130320238D02*
X119800714Y-130367857D01*
X119800714Y-130367857D02*
X119848333Y-130463095D01*
X119848333Y-130463095D02*
X119848333Y-130605952D01*
X119848333Y-130605952D02*
X119800714Y-130701190D01*
X119800714Y-130701190D02*
X119753095Y-130748809D01*
X119753095Y-130748809D02*
X119657857Y-130796428D01*
X119657857Y-130796428D02*
X119276905Y-130796428D01*
X120705476Y-130605952D02*
X120705476Y-131272619D01*
X120467381Y-130225000D02*
X120229286Y-130939285D01*
X120229286Y-130939285D02*
X120848333Y-130939285D01*
%TO.C,J3*%
X106346666Y-99792619D02*
X106346666Y-100506904D01*
X106346666Y-100506904D02*
X106299047Y-100649761D01*
X106299047Y-100649761D02*
X106203809Y-100745000D01*
X106203809Y-100745000D02*
X106060952Y-100792619D01*
X106060952Y-100792619D02*
X105965714Y-100792619D01*
X106727619Y-99792619D02*
X107346666Y-99792619D01*
X107346666Y-99792619D02*
X107013333Y-100173571D01*
X107013333Y-100173571D02*
X107156190Y-100173571D01*
X107156190Y-100173571D02*
X107251428Y-100221190D01*
X107251428Y-100221190D02*
X107299047Y-100268809D01*
X107299047Y-100268809D02*
X107346666Y-100364047D01*
X107346666Y-100364047D02*
X107346666Y-100602142D01*
X107346666Y-100602142D02*
X107299047Y-100697380D01*
X107299047Y-100697380D02*
X107251428Y-100745000D01*
X107251428Y-100745000D02*
X107156190Y-100792619D01*
X107156190Y-100792619D02*
X106870476Y-100792619D01*
X106870476Y-100792619D02*
X106775238Y-100745000D01*
X106775238Y-100745000D02*
X106727619Y-100697380D01*
%TO.C,R11*%
X142867142Y-105237619D02*
X142533809Y-104761428D01*
X142295714Y-105237619D02*
X142295714Y-104237619D01*
X142295714Y-104237619D02*
X142676666Y-104237619D01*
X142676666Y-104237619D02*
X142771904Y-104285238D01*
X142771904Y-104285238D02*
X142819523Y-104332857D01*
X142819523Y-104332857D02*
X142867142Y-104428095D01*
X142867142Y-104428095D02*
X142867142Y-104570952D01*
X142867142Y-104570952D02*
X142819523Y-104666190D01*
X142819523Y-104666190D02*
X142771904Y-104713809D01*
X142771904Y-104713809D02*
X142676666Y-104761428D01*
X142676666Y-104761428D02*
X142295714Y-104761428D01*
X143819523Y-105237619D02*
X143248095Y-105237619D01*
X143533809Y-105237619D02*
X143533809Y-104237619D01*
X143533809Y-104237619D02*
X143438571Y-104380476D01*
X143438571Y-104380476D02*
X143343333Y-104475714D01*
X143343333Y-104475714D02*
X143248095Y-104523333D01*
X144771904Y-105237619D02*
X144200476Y-105237619D01*
X144486190Y-105237619D02*
X144486190Y-104237619D01*
X144486190Y-104237619D02*
X144390952Y-104380476D01*
X144390952Y-104380476D02*
X144295714Y-104475714D01*
X144295714Y-104475714D02*
X144200476Y-104523333D01*
%TO.C,R10*%
X154297142Y-98252619D02*
X153963809Y-97776428D01*
X153725714Y-98252619D02*
X153725714Y-97252619D01*
X153725714Y-97252619D02*
X154106666Y-97252619D01*
X154106666Y-97252619D02*
X154201904Y-97300238D01*
X154201904Y-97300238D02*
X154249523Y-97347857D01*
X154249523Y-97347857D02*
X154297142Y-97443095D01*
X154297142Y-97443095D02*
X154297142Y-97585952D01*
X154297142Y-97585952D02*
X154249523Y-97681190D01*
X154249523Y-97681190D02*
X154201904Y-97728809D01*
X154201904Y-97728809D02*
X154106666Y-97776428D01*
X154106666Y-97776428D02*
X153725714Y-97776428D01*
X155249523Y-98252619D02*
X154678095Y-98252619D01*
X154963809Y-98252619D02*
X154963809Y-97252619D01*
X154963809Y-97252619D02*
X154868571Y-97395476D01*
X154868571Y-97395476D02*
X154773333Y-97490714D01*
X154773333Y-97490714D02*
X154678095Y-97538333D01*
X155868571Y-97252619D02*
X155963809Y-97252619D01*
X155963809Y-97252619D02*
X156059047Y-97300238D01*
X156059047Y-97300238D02*
X156106666Y-97347857D01*
X156106666Y-97347857D02*
X156154285Y-97443095D01*
X156154285Y-97443095D02*
X156201904Y-97633571D01*
X156201904Y-97633571D02*
X156201904Y-97871666D01*
X156201904Y-97871666D02*
X156154285Y-98062142D01*
X156154285Y-98062142D02*
X156106666Y-98157380D01*
X156106666Y-98157380D02*
X156059047Y-98205000D01*
X156059047Y-98205000D02*
X155963809Y-98252619D01*
X155963809Y-98252619D02*
X155868571Y-98252619D01*
X155868571Y-98252619D02*
X155773333Y-98205000D01*
X155773333Y-98205000D02*
X155725714Y-98157380D01*
X155725714Y-98157380D02*
X155678095Y-98062142D01*
X155678095Y-98062142D02*
X155630476Y-97871666D01*
X155630476Y-97871666D02*
X155630476Y-97633571D01*
X155630476Y-97633571D02*
X155678095Y-97443095D01*
X155678095Y-97443095D02*
X155725714Y-97347857D01*
X155725714Y-97347857D02*
X155773333Y-97300238D01*
X155773333Y-97300238D02*
X155868571Y-97252619D01*
D11*
%TO.C,J12*%
X134560000Y-138370000D02*
X134560000Y-138490000D01*
X134560000Y-138490000D02*
X137220000Y-138490000D01*
X135890000Y-135830000D02*
X137220000Y-135830000D01*
X137220000Y-135830000D02*
X137220000Y-137160000D01*
X137220000Y-138370000D02*
X137220000Y-138490000D01*
%TO.C,R5*%
X154210000Y-110390000D02*
X160750000Y-110390000D01*
X154210000Y-110720000D02*
X154210000Y-110390000D01*
X154210000Y-112800000D02*
X154210000Y-113130000D01*
X154210000Y-113130000D02*
X160750000Y-113130000D01*
X160750000Y-110390000D02*
X160750000Y-110720000D01*
X160750000Y-113130000D02*
X160750000Y-112800000D01*
%TO.C,J11*%
X138370000Y-138370000D02*
X138370000Y-138490000D01*
X138370000Y-138490000D02*
X141030000Y-138490000D01*
X139700000Y-135830000D02*
X141030000Y-135830000D01*
X141030000Y-135830000D02*
X141030000Y-137160000D01*
X141030000Y-138370000D02*
X141030000Y-138490000D01*
%TO.C,R6*%
X139160000Y-125830000D02*
X132620000Y-125830000D01*
X139160000Y-125500000D02*
X139160000Y-125830000D01*
X139160000Y-123420000D02*
X139160000Y-123090000D01*
X139160000Y-123090000D02*
X132620000Y-123090000D01*
X132620000Y-125830000D02*
X132620000Y-125500000D01*
X132620000Y-123090000D02*
X132620000Y-123420000D01*
%TO.C,J5*%
X110430000Y-138370000D02*
X110430000Y-138490000D01*
X110430000Y-138490000D02*
X113090000Y-138490000D01*
X111760000Y-135830000D02*
X113090000Y-135830000D01*
X113090000Y-135830000D02*
X113090000Y-137160000D01*
X113090000Y-138370000D02*
X113090000Y-138490000D01*
%TO.C,J8*%
X145990000Y-101540000D02*
X145990000Y-101660000D01*
X145990000Y-101660000D02*
X148650000Y-101660000D01*
X147320000Y-99000000D02*
X148650000Y-99000000D01*
X148650000Y-99000000D02*
X148650000Y-100330000D01*
X148650000Y-101540000D02*
X148650000Y-101660000D01*
%TO.C,D3*%
X145140000Y-127020000D02*
X148230000Y-127020000D01*
X146685462Y-121470001D02*
G75*
G03*
X145140170Y-127019999I-462J-2989999D01*
G01*
X148229830Y-127020000D02*
G75*
G03*
X146684538Y-121470000I-1544830J2560000D01*
G01*
X149185000Y-124460000D02*
G75*
G03*
X149185000Y-124460000I-2500000J0D01*
G01*
%TO.C,C8*%
X141870000Y-110640000D02*
X141870000Y-110705000D01*
X141870000Y-110640000D02*
X145110000Y-110640000D01*
X141870000Y-112815000D02*
X141870000Y-112880000D01*
X141870000Y-112880000D02*
X145110000Y-112880000D01*
X145110000Y-110640000D02*
X145110000Y-110705000D01*
X145110000Y-112815000D02*
X145110000Y-112880000D01*
%TO.C,R7*%
X139160000Y-118210000D02*
X132620000Y-118210000D01*
X139160000Y-117880000D02*
X139160000Y-118210000D01*
X139160000Y-115800000D02*
X139160000Y-115470000D01*
X139160000Y-115470000D02*
X132620000Y-115470000D01*
X132620000Y-118210000D02*
X132620000Y-117880000D01*
X132620000Y-115470000D02*
X132620000Y-115800000D01*
%TO.C,R3*%
X108050000Y-122460000D02*
X108050000Y-129000000D01*
X107720000Y-122460000D02*
X108050000Y-122460000D01*
X105640000Y-122460000D02*
X105310000Y-122460000D01*
X105310000Y-122460000D02*
X105310000Y-129000000D01*
X108050000Y-129000000D02*
X107720000Y-129000000D01*
X105310000Y-129000000D02*
X105640000Y-129000000D01*
%TO.C,R9*%
X154210000Y-105310000D02*
X160750000Y-105310000D01*
X154210000Y-105640000D02*
X154210000Y-105310000D01*
X154210000Y-107720000D02*
X154210000Y-108050000D01*
X154210000Y-108050000D02*
X160750000Y-108050000D01*
X160750000Y-105310000D02*
X160750000Y-105640000D01*
X160750000Y-108050000D02*
X160750000Y-107720000D01*
%TO.C,C4*%
X125880000Y-122290000D02*
X125945000Y-122290000D01*
X125880000Y-122290000D02*
X125880000Y-119050000D01*
X128055000Y-122290000D02*
X128120000Y-122290000D01*
X128120000Y-122290000D02*
X128120000Y-119050000D01*
X125880000Y-119050000D02*
X125945000Y-119050000D01*
X128055000Y-119050000D02*
X128120000Y-119050000D01*
%TO.C,J6*%
X161230000Y-138370000D02*
X161230000Y-138490000D01*
X161230000Y-138490000D02*
X163890000Y-138490000D01*
X162560000Y-135830000D02*
X163890000Y-135830000D01*
X163890000Y-135830000D02*
X163890000Y-137160000D01*
X163890000Y-138370000D02*
X163890000Y-138490000D01*
%TO.C,R8*%
X132620000Y-119280000D02*
X139160000Y-119280000D01*
X132620000Y-119610000D02*
X132620000Y-119280000D01*
X132620000Y-121690000D02*
X132620000Y-122020000D01*
X132620000Y-122020000D02*
X139160000Y-122020000D01*
X139160000Y-119280000D02*
X139160000Y-119610000D01*
X139160000Y-122020000D02*
X139160000Y-121690000D01*
%TO.C,D2*%
X157250000Y-128270000D02*
X157900000Y-128270000D01*
X157900000Y-127150000D02*
X157900000Y-129390000D01*
X157900000Y-129390000D02*
X162140000Y-129390000D01*
X158500000Y-127150000D02*
X158500000Y-129390000D01*
X158620000Y-127150000D02*
X158620000Y-129390000D01*
X158740000Y-127150000D02*
X158740000Y-129390000D01*
X162140000Y-127150000D02*
X157900000Y-127150000D01*
X162140000Y-129390000D02*
X162140000Y-127150000D01*
X162790000Y-128270000D02*
X162140000Y-128270000D01*
%TO.C,J2*%
X111700000Y-101540000D02*
X111700000Y-101660000D01*
X111700000Y-101660000D02*
X114360000Y-101660000D01*
X113030000Y-99000000D02*
X114360000Y-99000000D01*
X114360000Y-99000000D02*
X114360000Y-100330000D01*
X114360000Y-101540000D02*
X114360000Y-101660000D01*
%TO.C,C2*%
X119010000Y-99210000D02*
X119010000Y-99275000D01*
X119010000Y-99210000D02*
X122250000Y-99210000D01*
X119010000Y-101385000D02*
X119010000Y-101450000D01*
X119010000Y-101450000D02*
X122250000Y-101450000D01*
X122250000Y-99210000D02*
X122250000Y-99275000D01*
X122250000Y-101385000D02*
X122250000Y-101450000D01*
%TO.C,C6*%
X128554775Y-131015000D02*
X128054775Y-131015000D01*
X128304775Y-131265000D02*
X128304775Y-130765000D01*
X125750000Y-132120000D02*
X125750000Y-126960000D01*
X125710000Y-132120000D02*
X125710000Y-126960000D01*
X125670000Y-132119000D02*
X125670000Y-126961000D01*
X125630000Y-132118000D02*
X125630000Y-126962000D01*
X125590000Y-132116000D02*
X125590000Y-126964000D01*
X125550000Y-132113000D02*
X125550000Y-126967000D01*
X125510000Y-132109000D02*
X125510000Y-130580000D01*
X125510000Y-128500000D02*
X125510000Y-126971000D01*
X125470000Y-132105000D02*
X125470000Y-130580000D01*
X125470000Y-128500000D02*
X125470000Y-126975000D01*
X125430000Y-132101000D02*
X125430000Y-130580000D01*
X125430000Y-128500000D02*
X125430000Y-126979000D01*
X125390000Y-132096000D02*
X125390000Y-130580000D01*
X125390000Y-128500000D02*
X125390000Y-126984000D01*
X125350000Y-132090000D02*
X125350000Y-130580000D01*
X125350000Y-128500000D02*
X125350000Y-126990000D01*
X125310000Y-132083000D02*
X125310000Y-130580000D01*
X125310000Y-128500000D02*
X125310000Y-126997000D01*
X125270000Y-132076000D02*
X125270000Y-130580000D01*
X125270000Y-128500000D02*
X125270000Y-127004000D01*
X125230000Y-132068000D02*
X125230000Y-130580000D01*
X125230000Y-128500000D02*
X125230000Y-127012000D01*
X125190000Y-132060000D02*
X125190000Y-130580000D01*
X125190000Y-128500000D02*
X125190000Y-127020000D01*
X125150000Y-132051000D02*
X125150000Y-130580000D01*
X125150000Y-128500000D02*
X125150000Y-127029000D01*
X125110000Y-132041000D02*
X125110000Y-130580000D01*
X125110000Y-128500000D02*
X125110000Y-127039000D01*
X125070000Y-132031000D02*
X125070000Y-130580000D01*
X125070000Y-128500000D02*
X125070000Y-127049000D01*
X125029000Y-132020000D02*
X125029000Y-130580000D01*
X125029000Y-128500000D02*
X125029000Y-127060000D01*
X124989000Y-132008000D02*
X124989000Y-130580000D01*
X124989000Y-128500000D02*
X124989000Y-127072000D01*
X124949000Y-131995000D02*
X124949000Y-130580000D01*
X124949000Y-128500000D02*
X124949000Y-127085000D01*
X124909000Y-131982000D02*
X124909000Y-130580000D01*
X124909000Y-128500000D02*
X124909000Y-127098000D01*
X124869000Y-131968000D02*
X124869000Y-130580000D01*
X124869000Y-128500000D02*
X124869000Y-127112000D01*
X124829000Y-131954000D02*
X124829000Y-130580000D01*
X124829000Y-128500000D02*
X124829000Y-127126000D01*
X124789000Y-131938000D02*
X124789000Y-130580000D01*
X124789000Y-128500000D02*
X124789000Y-127142000D01*
X124749000Y-131922000D02*
X124749000Y-130580000D01*
X124749000Y-128500000D02*
X124749000Y-127158000D01*
X124709000Y-131905000D02*
X124709000Y-130580000D01*
X124709000Y-128500000D02*
X124709000Y-127175000D01*
X124669000Y-131888000D02*
X124669000Y-130580000D01*
X124669000Y-128500000D02*
X124669000Y-127192000D01*
X124629000Y-131869000D02*
X124629000Y-130580000D01*
X124629000Y-128500000D02*
X124629000Y-127211000D01*
X124589000Y-131850000D02*
X124589000Y-130580000D01*
X124589000Y-128500000D02*
X124589000Y-127230000D01*
X124549000Y-131830000D02*
X124549000Y-130580000D01*
X124549000Y-128500000D02*
X124549000Y-127250000D01*
X124509000Y-131808000D02*
X124509000Y-130580000D01*
X124509000Y-128500000D02*
X124509000Y-127272000D01*
X124469000Y-131787000D02*
X124469000Y-130580000D01*
X124469000Y-128500000D02*
X124469000Y-127293000D01*
X124429000Y-131764000D02*
X124429000Y-130580000D01*
X124429000Y-128500000D02*
X124429000Y-127316000D01*
X124389000Y-131740000D02*
X124389000Y-130580000D01*
X124389000Y-128500000D02*
X124389000Y-127340000D01*
X124349000Y-131715000D02*
X124349000Y-130580000D01*
X124349000Y-128500000D02*
X124349000Y-127365000D01*
X124309000Y-131689000D02*
X124309000Y-130580000D01*
X124309000Y-128500000D02*
X124309000Y-127391000D01*
X124269000Y-131662000D02*
X124269000Y-130580000D01*
X124269000Y-128500000D02*
X124269000Y-127418000D01*
X124229000Y-131635000D02*
X124229000Y-130580000D01*
X124229000Y-128500000D02*
X124229000Y-127445000D01*
X124189000Y-131605000D02*
X124189000Y-130580000D01*
X124189000Y-128500000D02*
X124189000Y-127475000D01*
X124149000Y-131575000D02*
X124149000Y-130580000D01*
X124149000Y-128500000D02*
X124149000Y-127505000D01*
X124109000Y-131544000D02*
X124109000Y-130580000D01*
X124109000Y-128500000D02*
X124109000Y-127536000D01*
X124069000Y-131511000D02*
X124069000Y-130580000D01*
X124069000Y-128500000D02*
X124069000Y-127569000D01*
X124029000Y-131477000D02*
X124029000Y-130580000D01*
X124029000Y-128500000D02*
X124029000Y-127603000D01*
X123989000Y-131441000D02*
X123989000Y-130580000D01*
X123989000Y-128500000D02*
X123989000Y-127639000D01*
X123949000Y-131404000D02*
X123949000Y-130580000D01*
X123949000Y-128500000D02*
X123949000Y-127676000D01*
X123909000Y-131366000D02*
X123909000Y-130580000D01*
X123909000Y-128500000D02*
X123909000Y-127714000D01*
X123869000Y-131325000D02*
X123869000Y-130580000D01*
X123869000Y-128500000D02*
X123869000Y-127755000D01*
X123829000Y-131283000D02*
X123829000Y-130580000D01*
X123829000Y-128500000D02*
X123829000Y-127797000D01*
X123789000Y-131239000D02*
X123789000Y-130580000D01*
X123789000Y-128500000D02*
X123789000Y-127841000D01*
X123749000Y-131193000D02*
X123749000Y-130580000D01*
X123749000Y-128500000D02*
X123749000Y-127887000D01*
X123709000Y-131145000D02*
X123709000Y-130580000D01*
X123709000Y-128500000D02*
X123709000Y-127935000D01*
X123669000Y-131094000D02*
X123669000Y-130580000D01*
X123669000Y-128500000D02*
X123669000Y-127986000D01*
X123629000Y-131040000D02*
X123629000Y-130580000D01*
X123629000Y-128500000D02*
X123629000Y-128040000D01*
X123589000Y-130983000D02*
X123589000Y-130580000D01*
X123589000Y-128500000D02*
X123589000Y-128097000D01*
X123549000Y-130923000D02*
X123549000Y-130580000D01*
X123549000Y-128500000D02*
X123549000Y-128157000D01*
X123509000Y-130859000D02*
X123509000Y-130580000D01*
X123509000Y-128500000D02*
X123509000Y-128221000D01*
X123469000Y-130791000D02*
X123469000Y-130580000D01*
X123469000Y-128500000D02*
X123469000Y-128289000D01*
X123429000Y-130718000D02*
X123429000Y-128362000D01*
X123389000Y-130638000D02*
X123389000Y-128442000D01*
X123349000Y-130551000D02*
X123349000Y-128529000D01*
X123309000Y-130455000D02*
X123309000Y-128625000D01*
X123269000Y-130345000D02*
X123269000Y-128735000D01*
X123229000Y-130217000D02*
X123229000Y-128863000D01*
X123189000Y-130058000D02*
X123189000Y-129022000D01*
X123149000Y-129824000D02*
X123149000Y-129256000D01*
X128370000Y-129540000D02*
G75*
G03*
X128370000Y-129540000I-2620000J0D01*
G01*
%TO.C,U1*%
X107890000Y-115680000D02*
X118170000Y-115680000D01*
X118170000Y-115680000D02*
X118170000Y-110380000D01*
X107890000Y-114030000D02*
X107890000Y-115680000D01*
X107890000Y-110380000D02*
X107890000Y-112030000D01*
X118170000Y-110380000D02*
X107890000Y-110380000D01*
X107890000Y-114030000D02*
G75*
G03*
X107890000Y-112030000I0J1000000D01*
G01*
%TO.C,J7*%
X157420000Y-138370000D02*
X157420000Y-138490000D01*
X157420000Y-138490000D02*
X160080000Y-138490000D01*
X158750000Y-135830000D02*
X160080000Y-135830000D01*
X160080000Y-135830000D02*
X160080000Y-137160000D01*
X160080000Y-138370000D02*
X160080000Y-138490000D01*
%TO.C,J1*%
X125670000Y-101540000D02*
X125670000Y-101660000D01*
X125670000Y-101660000D02*
X128330000Y-101660000D01*
X127000000Y-99000000D02*
X128330000Y-99000000D01*
X128330000Y-99000000D02*
X128330000Y-100330000D01*
X128330000Y-101540000D02*
X128330000Y-101660000D01*
%TO.C,D1*%
X162790000Y-123190000D02*
X162140000Y-123190000D01*
X162140000Y-124310000D02*
X162140000Y-122070000D01*
X162140000Y-122070000D02*
X157900000Y-122070000D01*
X161540000Y-124310000D02*
X161540000Y-122070000D01*
X161420000Y-124310000D02*
X161420000Y-122070000D01*
X161300000Y-124310000D02*
X161300000Y-122070000D01*
X157900000Y-124310000D02*
X162140000Y-124310000D01*
X157900000Y-122070000D02*
X157900000Y-124310000D01*
X157250000Y-123190000D02*
X157900000Y-123190000D01*
%TO.C,J10*%
X142180000Y-138370000D02*
X142180000Y-138490000D01*
X142180000Y-138490000D02*
X144840000Y-138490000D01*
X143510000Y-135830000D02*
X144840000Y-135830000D01*
X144840000Y-135830000D02*
X144840000Y-137160000D01*
X144840000Y-138370000D02*
X144840000Y-138490000D01*
%TO.C,C3*%
X110690000Y-126770000D02*
X110705000Y-126770000D01*
X110690000Y-126770000D02*
X110690000Y-122230000D01*
X112815000Y-126770000D02*
X112830000Y-126770000D01*
X112830000Y-126770000D02*
X112830000Y-122230000D01*
X110690000Y-122230000D02*
X110705000Y-122230000D01*
X112815000Y-122230000D02*
X112830000Y-122230000D01*
%TO.C,R1*%
X120550000Y-116300000D02*
X120550000Y-109760000D01*
X120880000Y-116300000D02*
X120550000Y-116300000D01*
X122960000Y-116300000D02*
X123290000Y-116300000D01*
X123290000Y-116300000D02*
X123290000Y-109760000D01*
X120550000Y-109760000D02*
X120880000Y-109760000D01*
X123290000Y-109760000D02*
X122960000Y-109760000D01*
%TO.C,J4*%
X106620000Y-138370000D02*
X106620000Y-138490000D01*
X106620000Y-138490000D02*
X109280000Y-138490000D01*
X107950000Y-135830000D02*
X109280000Y-135830000D01*
X109280000Y-135830000D02*
X109280000Y-137160000D01*
X109280000Y-138370000D02*
X109280000Y-138490000D01*
%TO.C,C1*%
X123309698Y-125505000D02*
X122509698Y-125505000D01*
X122909698Y-125905000D02*
X122909698Y-125105000D01*
X118900000Y-127270000D02*
X118900000Y-119110000D01*
X118860000Y-127270000D02*
X118860000Y-119110000D01*
X118820000Y-127270000D02*
X118820000Y-119110000D01*
X118780000Y-127269000D02*
X118780000Y-119111000D01*
X118740000Y-127267000D02*
X118740000Y-119113000D01*
X118700000Y-127266000D02*
X118700000Y-119114000D01*
X118660000Y-127264000D02*
X118660000Y-119116000D01*
X118620000Y-127261000D02*
X118620000Y-119119000D01*
X118580000Y-127258000D02*
X118580000Y-119122000D01*
X118540000Y-127255000D02*
X118540000Y-119125000D01*
X118500000Y-127251000D02*
X118500000Y-119129000D01*
X118460000Y-127247000D02*
X118460000Y-119133000D01*
X118420000Y-127242000D02*
X118420000Y-119138000D01*
X118380000Y-127238000D02*
X118380000Y-119142000D01*
X118340000Y-127232000D02*
X118340000Y-119148000D01*
X118300000Y-127227000D02*
X118300000Y-119153000D01*
X118260000Y-127220000D02*
X118260000Y-119160000D01*
X118220000Y-127214000D02*
X118220000Y-119166000D01*
X118179000Y-127207000D02*
X118179000Y-124230000D01*
X118179000Y-122150000D02*
X118179000Y-119173000D01*
X118139000Y-127200000D02*
X118139000Y-124230000D01*
X118139000Y-122150000D02*
X118139000Y-119180000D01*
X118099000Y-127192000D02*
X118099000Y-124230000D01*
X118099000Y-122150000D02*
X118099000Y-119188000D01*
X118059000Y-127184000D02*
X118059000Y-124230000D01*
X118059000Y-122150000D02*
X118059000Y-119196000D01*
X118019000Y-127175000D02*
X118019000Y-124230000D01*
X118019000Y-122150000D02*
X118019000Y-119205000D01*
X117979000Y-127166000D02*
X117979000Y-124230000D01*
X117979000Y-122150000D02*
X117979000Y-119214000D01*
X117939000Y-127157000D02*
X117939000Y-124230000D01*
X117939000Y-122150000D02*
X117939000Y-119223000D01*
X117899000Y-127147000D02*
X117899000Y-124230000D01*
X117899000Y-122150000D02*
X117899000Y-119233000D01*
X117859000Y-127137000D02*
X117859000Y-124230000D01*
X117859000Y-122150000D02*
X117859000Y-119243000D01*
X117819000Y-127126000D02*
X117819000Y-124230000D01*
X117819000Y-122150000D02*
X117819000Y-119254000D01*
X117779000Y-127115000D02*
X117779000Y-124230000D01*
X117779000Y-122150000D02*
X117779000Y-119265000D01*
X117739000Y-127104000D02*
X117739000Y-124230000D01*
X117739000Y-122150000D02*
X117739000Y-119276000D01*
X117699000Y-127092000D02*
X117699000Y-124230000D01*
X117699000Y-122150000D02*
X117699000Y-119288000D01*
X117659000Y-127079000D02*
X117659000Y-124230000D01*
X117659000Y-122150000D02*
X117659000Y-119301000D01*
X117619000Y-127067000D02*
X117619000Y-124230000D01*
X117619000Y-122150000D02*
X117619000Y-119313000D01*
X117579000Y-127053000D02*
X117579000Y-124230000D01*
X117579000Y-122150000D02*
X117579000Y-119327000D01*
X117539000Y-127040000D02*
X117539000Y-124230000D01*
X117539000Y-122150000D02*
X117539000Y-119340000D01*
X117499000Y-127025000D02*
X117499000Y-124230000D01*
X117499000Y-122150000D02*
X117499000Y-119355000D01*
X117459000Y-127011000D02*
X117459000Y-124230000D01*
X117459000Y-122150000D02*
X117459000Y-119369000D01*
X117419000Y-126995000D02*
X117419000Y-124230000D01*
X117419000Y-122150000D02*
X117419000Y-119385000D01*
X117379000Y-126980000D02*
X117379000Y-124230000D01*
X117379000Y-122150000D02*
X117379000Y-119400000D01*
X117339000Y-126964000D02*
X117339000Y-124230000D01*
X117339000Y-122150000D02*
X117339000Y-119416000D01*
X117299000Y-126947000D02*
X117299000Y-124230000D01*
X117299000Y-122150000D02*
X117299000Y-119433000D01*
X117259000Y-126930000D02*
X117259000Y-124230000D01*
X117259000Y-122150000D02*
X117259000Y-119450000D01*
X117219000Y-126912000D02*
X117219000Y-124230000D01*
X117219000Y-122150000D02*
X117219000Y-119468000D01*
X117179000Y-126894000D02*
X117179000Y-124230000D01*
X117179000Y-122150000D02*
X117179000Y-119486000D01*
X117139000Y-126876000D02*
X117139000Y-124230000D01*
X117139000Y-122150000D02*
X117139000Y-119504000D01*
X117099000Y-126856000D02*
X117099000Y-124230000D01*
X117099000Y-122150000D02*
X117099000Y-119524000D01*
X117059000Y-126837000D02*
X117059000Y-124230000D01*
X117059000Y-122150000D02*
X117059000Y-119543000D01*
X117019000Y-126817000D02*
X117019000Y-124230000D01*
X117019000Y-122150000D02*
X117019000Y-119563000D01*
X116979000Y-126796000D02*
X116979000Y-124230000D01*
X116979000Y-122150000D02*
X116979000Y-119584000D01*
X116939000Y-126774000D02*
X116939000Y-124230000D01*
X116939000Y-122150000D02*
X116939000Y-119606000D01*
X116899000Y-126752000D02*
X116899000Y-124230000D01*
X116899000Y-122150000D02*
X116899000Y-119628000D01*
X116859000Y-126730000D02*
X116859000Y-124230000D01*
X116859000Y-122150000D02*
X116859000Y-119650000D01*
X116819000Y-126707000D02*
X116819000Y-124230000D01*
X116819000Y-122150000D02*
X116819000Y-119673000D01*
X116779000Y-126683000D02*
X116779000Y-124230000D01*
X116779000Y-122150000D02*
X116779000Y-119697000D01*
X116739000Y-126659000D02*
X116739000Y-124230000D01*
X116739000Y-122150000D02*
X116739000Y-119721000D01*
X116699000Y-126634000D02*
X116699000Y-124230000D01*
X116699000Y-122150000D02*
X116699000Y-119746000D01*
X116659000Y-126608000D02*
X116659000Y-124230000D01*
X116659000Y-122150000D02*
X116659000Y-119772000D01*
X116619000Y-126582000D02*
X116619000Y-124230000D01*
X116619000Y-122150000D02*
X116619000Y-119798000D01*
X116579000Y-126555000D02*
X116579000Y-124230000D01*
X116579000Y-122150000D02*
X116579000Y-119825000D01*
X116539000Y-126528000D02*
X116539000Y-124230000D01*
X116539000Y-122150000D02*
X116539000Y-119852000D01*
X116499000Y-126499000D02*
X116499000Y-124230000D01*
X116499000Y-122150000D02*
X116499000Y-119881000D01*
X116459000Y-126470000D02*
X116459000Y-124230000D01*
X116459000Y-122150000D02*
X116459000Y-119910000D01*
X116419000Y-126440000D02*
X116419000Y-124230000D01*
X116419000Y-122150000D02*
X116419000Y-119940000D01*
X116379000Y-126410000D02*
X116379000Y-124230000D01*
X116379000Y-122150000D02*
X116379000Y-119970000D01*
X116339000Y-126379000D02*
X116339000Y-124230000D01*
X116339000Y-122150000D02*
X116339000Y-120001000D01*
X116299000Y-126346000D02*
X116299000Y-124230000D01*
X116299000Y-122150000D02*
X116299000Y-120034000D01*
X116259000Y-126314000D02*
X116259000Y-124230000D01*
X116259000Y-122150000D02*
X116259000Y-120066000D01*
X116219000Y-126280000D02*
X116219000Y-124230000D01*
X116219000Y-122150000D02*
X116219000Y-120100000D01*
X116179000Y-126245000D02*
X116179000Y-124230000D01*
X116179000Y-122150000D02*
X116179000Y-120135000D01*
X116139000Y-126209000D02*
X116139000Y-124230000D01*
X116139000Y-122150000D02*
X116139000Y-120171000D01*
X116099000Y-126173000D02*
X116099000Y-120207000D01*
X116059000Y-126135000D02*
X116059000Y-120245000D01*
X116019000Y-126097000D02*
X116019000Y-120283000D01*
X115979000Y-126057000D02*
X115979000Y-120323000D01*
X115939000Y-126016000D02*
X115939000Y-120364000D01*
X115899000Y-125974000D02*
X115899000Y-120406000D01*
X115859000Y-125931000D02*
X115859000Y-120449000D01*
X115819000Y-125887000D02*
X115819000Y-120493000D01*
X115779000Y-125841000D02*
X115779000Y-120539000D01*
X115739000Y-125794000D02*
X115739000Y-120586000D01*
X115699000Y-125746000D02*
X115699000Y-120634000D01*
X115659000Y-125695000D02*
X115659000Y-120685000D01*
X115619000Y-125644000D02*
X115619000Y-120736000D01*
X115579000Y-125590000D02*
X115579000Y-120790000D01*
X115539000Y-125535000D02*
X115539000Y-120845000D01*
X115499000Y-125477000D02*
X115499000Y-120903000D01*
X115459000Y-125418000D02*
X115459000Y-120962000D01*
X115419000Y-125356000D02*
X115419000Y-121024000D01*
X115379000Y-125292000D02*
X115379000Y-121088000D01*
X115339000Y-125224000D02*
X115339000Y-121156000D01*
X115299000Y-125154000D02*
X115299000Y-121226000D01*
X115259000Y-125080000D02*
X115259000Y-121300000D01*
X115219000Y-125003000D02*
X115219000Y-121377000D01*
X115179000Y-124921000D02*
X115179000Y-121459000D01*
X115139000Y-124835000D02*
X115139000Y-121545000D01*
X115099000Y-124742000D02*
X115099000Y-121638000D01*
X115059000Y-124643000D02*
X115059000Y-121737000D01*
X115019000Y-124536000D02*
X115019000Y-121844000D01*
X114979000Y-124419000D02*
X114979000Y-121961000D01*
X114939000Y-124288000D02*
X114939000Y-122092000D01*
X114899000Y-124138000D02*
X114899000Y-122242000D01*
X114859000Y-123958000D02*
X114859000Y-122422000D01*
X114819000Y-123723000D02*
X114819000Y-122657000D01*
X123020000Y-123190000D02*
G75*
G03*
X123020000Y-123190000I-4120000J0D01*
G01*
%TO.C,C5*%
X150130000Y-115770000D02*
X150130000Y-115785000D01*
X150130000Y-115770000D02*
X154670000Y-115770000D01*
X150130000Y-117895000D02*
X150130000Y-117910000D01*
X150130000Y-117910000D02*
X154670000Y-117910000D01*
X154670000Y-115770000D02*
X154670000Y-115785000D01*
X154670000Y-117895000D02*
X154670000Y-117910000D01*
%TO.C,C9*%
X140640000Y-99210000D02*
X140640000Y-99275000D01*
X140640000Y-99210000D02*
X143880000Y-99210000D01*
X140640000Y-101385000D02*
X140640000Y-101450000D01*
X140640000Y-101450000D02*
X143880000Y-101450000D01*
X143880000Y-99210000D02*
X143880000Y-99275000D01*
X143880000Y-101385000D02*
X143880000Y-101450000D01*
%TO.C,C7*%
X158420000Y-115720000D02*
X158420000Y-115785000D01*
X158420000Y-115720000D02*
X161660000Y-115720000D01*
X158420000Y-117895000D02*
X158420000Y-117960000D01*
X158420000Y-117960000D02*
X161660000Y-117960000D01*
X161660000Y-115720000D02*
X161660000Y-115785000D01*
X161660000Y-117895000D02*
X161660000Y-117960000D01*
%TO.C,U2*%
X125680000Y-111860000D02*
X135960000Y-111860000D01*
X135960000Y-111860000D02*
X135960000Y-106560000D01*
X125680000Y-110210000D02*
X125680000Y-111860000D01*
X125680000Y-106560000D02*
X125680000Y-108210000D01*
X135960000Y-106560000D02*
X125680000Y-106560000D01*
X125680000Y-110210000D02*
G75*
G03*
X125680000Y-108210000I0J1000000D01*
G01*
%TO.C,J13*%
X129480000Y-101540000D02*
X129480000Y-101660000D01*
X129480000Y-101660000D02*
X132140000Y-101660000D01*
X130810000Y-99000000D02*
X132140000Y-99000000D01*
X132140000Y-99000000D02*
X132140000Y-100330000D01*
X132140000Y-101540000D02*
X132140000Y-101660000D01*
%TO.C,R2*%
X116300000Y-106780000D02*
X109760000Y-106780000D01*
X116300000Y-106450000D02*
X116300000Y-106780000D01*
X116300000Y-104370000D02*
X116300000Y-104040000D01*
X116300000Y-104040000D02*
X109760000Y-104040000D01*
X109760000Y-106780000D02*
X109760000Y-106450000D01*
X109760000Y-104040000D02*
X109760000Y-104370000D01*
%TO.C,J9*%
X149800000Y-101540000D02*
X149800000Y-101660000D01*
X149800000Y-101660000D02*
X152460000Y-101660000D01*
X151130000Y-99000000D02*
X152460000Y-99000000D01*
X152460000Y-99000000D02*
X152460000Y-100330000D01*
X152460000Y-101540000D02*
X152460000Y-101660000D01*
%TO.C,R4*%
X111030000Y-129440000D02*
X117570000Y-129440000D01*
X111030000Y-129770000D02*
X111030000Y-129440000D01*
X111030000Y-131850000D02*
X111030000Y-132180000D01*
X111030000Y-132180000D02*
X117570000Y-132180000D01*
X117570000Y-129440000D02*
X117570000Y-129770000D01*
X117570000Y-132180000D02*
X117570000Y-131850000D01*
%TO.C,J3*%
X107890000Y-101540000D02*
X107890000Y-101660000D01*
X107890000Y-101660000D02*
X110550000Y-101660000D01*
X109220000Y-99000000D02*
X110550000Y-99000000D01*
X110550000Y-99000000D02*
X110550000Y-100330000D01*
X110550000Y-101540000D02*
X110550000Y-101660000D01*
%TO.C,R11*%
X144050000Y-105310000D02*
X150590000Y-105310000D01*
X144050000Y-105640000D02*
X144050000Y-105310000D01*
X144050000Y-107720000D02*
X144050000Y-108050000D01*
X144050000Y-108050000D02*
X150590000Y-108050000D01*
X150590000Y-105310000D02*
X150590000Y-105640000D01*
X150590000Y-108050000D02*
X150590000Y-107720000D01*
%TO.C,R10*%
X162020000Y-101700000D02*
X155480000Y-101700000D01*
X162020000Y-101370000D02*
X162020000Y-101700000D01*
X162020000Y-99290000D02*
X162020000Y-98960000D01*
X162020000Y-98960000D02*
X155480000Y-98960000D01*
X155480000Y-101700000D02*
X155480000Y-101370000D01*
X155480000Y-98960000D02*
X155480000Y-99290000D01*
%TD*%
M02*
